/* XPM */
static char * error_xpm[] = {
"32 32 4 1",
" 	c None",
".	c black",
"X	c red",
"o	c yellow",
"            ........            ",
"         ...XXXXXXXX...         ",
"       ..XXXXXXXXXXXXXX..       ",
"      .XXXXXXXXXXXXXXXXXX.      ",
"     .XXXXXXXXXXXo...XXXXX.     ",
"    .XXXXXXXXXXXo....XXXXXX.    ",
"   .XXXXXXXXXXXo....XXXXXXXX.   ",
"  .XXXXXXXXXXXo....XXXXXXXXXX.  ",
"  .XXXXXXXXXXo....XXXXXXXXXXX.  ",
" .XXXXXXXXXXo....XXXXXXXXXXXXX. ",
" .XXXXXXXXXo....XXXXXXXXXXXXXX. ",
" .XXXXXXXXo....XXXXXXXXXXXXXXX. ",
".XXXXXXXXo....XXXXXXXXXXXXXXXXX.",
".XXXXXXXo....XXXXXXXXXXXXXXXXXX.",
".XXXXXXo....XXXXXXXXXXXXXXXXXXX.",
".XXXXXX................XXXXXXXX.",
".XXXXXXX................XXXXXXX.",
".XXXXXXXXXXXXXXXXXo....XXXXXXXX.",
".XXXXXXXXXXXXXXXXo....XXXXXXXXX.",
".XXXXXXXXXXXXXXXo....XXXXXXXXXX.",
" .XXXXXXXXXXXXXo....XXXXXXXXXX. ",
" .XXXXXXXXXXXXo....XXXXXXXXXXX. ",
" .XXXXXXXXX.Xo....XXXXXXXXXXXX. ",
"  .XXXXXXX..o....XXXXXXXXXXXX.  ",
"  .XXXXXXX......XXXXXXXXXXXXX.  ",
"   .XXXXXX.....XXXXXXXXXXXXX.   ",
"    .XXXXX.....XXXXXXXXXXXX.    ",
"     .XXXX.......XXXXXXXXX.     ",
"      .XXX......XXXXXXXXX.      ",
"       ..XXXXXXXXXXXXXX..       ",
"         ...XXXXXXXX...         ",
"            ........            "};
