/* XPM */
static char * i_char_dev_xpm[] = {
"16 17 41 1",
" 	c None",
".	c #980000",
"+	c #8A0000",
"@	c #C20000",
"#	c #FF0606",
"$	c #FF0E0E",
"%	c #FF0000",
"&	c #FE3535",
"*	c #FF6161",
"=	c #F40000",
"-	c #000000",
";	c #5E0000",
">	c #A50000",
",	c #BC0000",
"'	c #C80101",
")	c #ED0000",
"!	c #DB0000",
"~	c #E10000",
"{	c #3A0000",
"]	c #340000",
"^	c #FF2323",
"/	c #FE5353",
"(	c #FF1010",
"_	c #4E0000",
":	c #950101",
"<	c #200000",
"[	c #780000",
"}	c #FF2525",
"|	c #620000",
"1	c #AC0000",
"2	c #FE3838",
"3	c #830000",
"4	c #D00000",
"5	c #680000",
"6	c #760000",
"7	c #FF1919",
"8	c #FE3131",
"9	c #FF1E1E",
"0	c #B10000",
"a	c #440000",
"b	c #550000",
"   .+           ",
" @#$$%          ",
" %&&*#= ------  ",
"+=%%%%%-------  ",
";>,@'----       ",
" ;;;----)!%%%~  ",
"  {]---~%%^&/(% ",
"  _:-< [)%^^}(%.",
"  |=-- ;,)%%%%=.",
"  12-- .3>@44'1;",
"  %#--->;|56[5| ",
" %78---5]]]]]]  ",
":%79}---        ",
"3=%%%---------  ",
" >'440a-------  ",
" a;||b          ",
"   <<           "};
