/* XPM */
static char * i_dir_up_xpm[] = {
"16 16 49 1",
" 	c None",
".	c #2CB2E0",
"+	c #6ABAD6",
"@	c #02669A",
"#	c #CEEAFE",
"$	c #069EF6",
"%	c #42ACE6",
"&	c #5EB0E0",
"*	c #025AA2",
"=	c #C2E6FE",
"-	c #5A9EE2",
";	c #269EEE",
">	c #6AB2DA",
",	c #024A96",
"'	c #020220",
")	c #B2DBFE",
"!	c #86C1E3",
"~	c #0296FA",
"{	c #1296F2",
"]	c #6EB2DE",
"^	c #7AB2DE",
"/	c #0268B0",
"(	c #020202",
"_	c #A5D3F9",
":	c #BEE2FE",
"<	c #92C6E6",
"[	c #027AF6",
"}	c #2286F6",
"|	c #8ACAEA",
"1	c #023666",
"2	c #0276BA",
"3	c #92C2FE",
"4	c #026EF6",
"5	c #97CAF5",
"6	c #AADAFE",
"7	c #7AB6EE",
"8	c #62AADA",
"9	c #86C2F2",
"0	c #0262C6",
"a	c #75BBE1",
"b	c #82BED2",
"c	c #02264E",
"d	c #020212",
"e	c #022E5E",
"f	c #636363",
"g	c #024A7A",
"h	c #0276CA",
"i	c #0242AA",
"j	c #02164A",
"                ",
" ..+            ",
"@##$%&          ",
"*#==-;%>&&      ",
",==')#!~{]^,    ",
"/@(('_:=<[}-    ",
",|11(2:_:)345   ",
",_[12(66:_748   ",
",:[1)!!!:)90>   ",
",)[111)!!|a/b   ",
",<_:1111!_|*c   ",
"db2]_#e115901(f ",
" dgah%#!2:7ie((f",
"   ''!h&_570(((f",
"     'jb2%!@(((f",
"        '+21((f "};
