/* XPM */
static char * i_dir_pd_xpm[] = {
"16 16 50 1",
" 	c None",
".	c #FE0202",
"+	c #2AB2E2",
"@	c #6ABAD6",
"#	c #02629E",
"$	c #C8EBFE",
"%	c #069EF6",
"&	c #44ABE4",
"*	c #5EB1DD",
"=	c #B6E2FE",
"-	c #86C0E4",
";	c #269EEE",
">	c #6AB2DA",
",	c #02569A",
"'	c #C1E6FE",
")	c #BEE2FE",
"!	c #B2DEFE",
"~	c #0296FA",
"{	c #1296F2",
"]	c #7AB2DE",
"^	c #92C6E6",
"/	c #027AF6",
"(	c #5A9EE2",
"_	c #025AA2",
":	c #A2D4F8",
"<	c #92C2FE",
"[	c #026EF6",
"}	c #99CAF3",
"|	c #0262DE",
"1	c #62AADA",
"2	c #026AAE",
"3	c #ABDBFE",
"4	c #86C2F2",
"5	c #0262CA",
"6	c #7ABEDE",
"7	c #82BED2",
"8	c #9AD2F2",
"9	c #02264E",
"0	c #020212",
"a	c #0273B2",
"b	c #023666",
"c	c #020202",
"d	c #636363",
"e	c #024A7A",
"f	c #0279CB",
"g	c #AAD6FA",
"h	c #77B7EA",
"i	c #0242AA",
"j	c #020221",
"k	c #02164A",
".              .",
" .+@          . ",
"#$.%&*       .  ",
"#$=.-;&>**  .   ",
",')'.!-~{>].    ",
",$'$'.='^/.(    ",
"_$)'!'.:).<[}   ",
"#''=!)!..:]|1   ",
"2'))!!3..!45>   ",
"23!)!3.::.627   ",
"#^8)3.=888._9   ",
"07a@.!8!:}-.bcd ",
" 0e.f&:g-'hi.ccd",
"  .jj-f*g^h5c.cd",
" .   jk6f&4#cc.d",
".       j@abccd."};
