/* XPM */
static char * i_dir_close_lnk_xpm[] = {
"16 16 50 1",
" 	c None",
".	c #2EB2DE",
"+	c #2AB2E2",
"@	c #6ABAD6",
"#	c #02669A",
"$	c #CEEAFE",
"%	c #8DCAEA",
"&	c #069EF6",
"*	c #46AAE2",
"=	c #5EB0E0",
"-	c #02629E",
";	c #BEE2FE",
">	c #C1E6FE",
",	c #87C0EB",
"'	c #269EEE",
")	c #6AB2DA",
"!	c #025A9E",
"~	c #B4DEFE",
"{	c #0296FA",
"]	c #1296F2",
"^	c #7AB5EA",
"/	c #024A96",
"(	c #0242AA",
"_	c #95CAF2",
":	c #027AF6",
"<	c #2286F6",
"[	c #5A9EE2",
"}	c #FAFE02",
"|	c #AAD6FA",
"1	c #92C2FE",
"2	c #026EF6",
"3	c #A1D5F6",
"4	c #0262DE",
"5	c #62AADA",
"6	c #026AAE",
"7	c #0262CA",
"8	c #78BDDC",
"9	c #022A56",
"0	c #020202",
"a	c #0276B2",
"b	c #6EB6DE",
"c	c #023666",
"d	c #636363",
"e	c #020212",
"f	c #024A7A",
"g	c #0279C6",
"h	c #3EAEEA",
"i	c #020222",
"j	c #02164A",
"k	c #86C2DA",
"                ",
" .+@            ",
"#$%&*=          ",
"-$;>,'*)==      ",
"!>>>>~,{])^/    ",
"!>;$>(;;_:<[    ",
"!$>((}((~|12_   ",
"->>(}}}(;3^45   ",
"6>(}}}}}(~,7)   ",
"6~~(}}}(3%86,   ",
"-%3((}((33%!9   ",
"08ab3(3~3_,7c0d ",
" ef8gh||,;^(900d",
"   ii,a=3%^7000d",
"     ijkghk-000d",
"        ibac00d "};
