/* XPM */
static char * i_dir_open_write_xpm[] = {
"16 16 50 1",
" 	c None",
".	c #2AB2E2",
"+	c #6ABAD6",
"@	c #00B400",
"#	c #CCEAFE",
"$	c #92CAE6",
"%	c #069EF6",
"&	c #46AAE2",
"*	c #5EB2DA",
"=	c #02669A",
"-	c #82BED2",
";	c #269EEE",
">	c #68B0DA",
",	c #025DA1",
"'	c #02569A",
")	c #BFE6FE",
"!	c #0296FA",
"~	c #BEE2FE",
"{	c #B1DEFE",
"]	c #88C0EB",
"^	c #1296F2",
"/	c #6EAEDE",
"(	c #024A96",
"_	c #96CAF6",
":	c #027AF6",
"<	c #2286F6",
"[	c #5A9EE2",
"}	c #AADAFE",
"|	c #92C2FE",
"1	c #026EF6",
"2	c #7ABBE5",
"3	c #0262DE",
"4	c #A2D3F6",
"5	c #0262CA",
"6	c #B6E2FE",
"7	c #A2DAF6",
"8	c #026AB2",
"9	c #9AD2F2",
"0	c #022A56",
"a	c #0276B2",
"b	c #023666",
"c	c #020203",
"d	c #636363",
"e	c #020222",
"f	c #024A7A",
"g	c #027ECE",
"h	c #3FADE7",
"i	c #0242AA",
"j	c #0276C7",
"k	c #02164A",
"                ",
"  .+       @@@@ ",
" #$%&*      @@@ ",
"=%-#-;&>*,   @@ ",
"')!%~{]!^/,(  @ ",
"'#)!%%~~_:<[    ",
",#))#%%!~}|1_   ",
"=)){{~{%,|23>   ",
" ()){{{4|,]5>   ",
" ({~67}74%~8-   ",
" (4{{}{99%%~0   ",
" (a>4~964_%5bcd ",
" ef2gh9}]~%i0ccd",
"   ee]j*9$%5cccd",
"     ek-jh(=cccd",
"       <e/abccd "};
