/* XPM */
static char * i_dir_close_owner_xpm[] = {
"16 16 49 1",
" 	c None",
".	c #7A7696",
"+	c #76729A",
"@	c #8E8BB8",
"#	c #403E62",
"$	c #D0CCFC",
"%	c #A6A2D6",
"&	c #6A629E",
"*	c #7A76AE",
"=	c #8982B8",
"-	c #C3C3FA",
";	c #9A96D6",
">	c #6E6AAE",
",	c #413965",
"'	c #BEBEFE",
")	c #CAC6FE",
"!	c #BDB8FB",
"~	c #9A92D6",
"{	c #665EA2",
"]	c #968ACE",
"^	c #AEB2FA",
"/	c #A29EEE",
"(	c #5A52A6",
"_	c #6A5EBE",
":	c #8276CA",
"<	c #ABAAF4",
"[	c #9E96FE",
"}	c #564AAA",
"|	c #AEA2EA",
"1	c #B5B9FC",
"2	c #8A86EA",
"3	c #444287",
"4	c #464272",
"5	c #9292EA",
"6	c #AAB2EE",
"7	c #9AA6DE",
"8	c #8E92C6",
"9	c #9F9AC2",
"0	c #363A6A",
"a	c #1E1E3E",
"b	c #020203",
"c	c #222646",
"d	c #636363",
"e	c #322E4E",
"f	c #494B7E",
"g	c #322E7A",
"h	c #020222",
"i	c #0E123A",
"j	c #9696C2",
"                ",
" .+@            ",
"#$%&*=          ",
"#$-$;>*@==      ",
",$'))!~{>=],    ",
",)'$-^')/(_:    ",
",$--!)'<!^[}|   ",
",)-'1'!^-|23=   ",
"4-'-11^<'^53@   ",
"411-16!6^7839   ",
",%<1^<166670a   ",
"b94861<^</53cbd ",
" be8f*6<5!2gabbd",
"   hh93=<%23bbbd",
"     hijf*j#bbbd",
"        h@4cbbd "};
