/* XPM */
static char * i_dir_open_lnk_owner_xpm[] = {
"16 16 50 1",
" 	c None",
".	c #76729A",
"+	c #908CB8",
"@	c #D6CEFE",
"#	c #A6A2DA",
"$	c #66629A",
"%	c #7877AE",
"&	c #8B82B7",
"*	c #3E3E66",
"=	c #9A97D5",
"-	c #9696EA",
";	c #6E6AAE",
">	c #3E3763",
",	c #C6C6FA",
"'	c #6A62A2",
")	c #BAB6FE",
"!	c #9292E6",
"~	c #8E86C6",
"{	c #3A3266",
"]	c #C2BEFE",
"^	c #AAA0EE",
"/	c #584EA8",
"(	c #6A5EBE",
"_	c #8276CA",
":	c #CACAFA",
"<	c #C3C2FB",
"[	c #9E96FE",
"}	c #8A8A02",
"|	c #1A1A36",
"1	c #8A86EA",
"2	c #4A429A",
"3	c #FEFE02",
"4	c #424286",
"5	c #AAB2F2",
"6	c #43456F",
"7	c #A29ABE",
"8	c #ABABF0",
"9	c #9E9EEE",
"0	c #222246",
"a	c #020202",
"b	c #636363",
"c	c #020212",
"d	c #322E4E",
"e	c #9696C2",
"f	c #4A4B7D",
"g	c #322E7A",
"h	c #02021E",
"i	c #02022A",
"j	c #8282C2",
"k	c #0E123A",
"                ",
"  .+            ",
" @#$%&          ",
"*$=@-;%+&*      ",
">,'$,)!''~*{    ",
"{@]$'$]]^/(_    ",
">:<]@$$'])[/^   ",
"*:<}|||}>[12&   ",
" {<|}3}|[>!4+   ",
" {)|333|5$]67   ",
" >8|}3}|8$$]|   ",
" {6}|||}89$40ab ",
" cdef%88!]$g0aab",
"   hiefj89$6aaab",
"     hke6%g*aaab",
"       (h+60aab "};
