/* XPM */
static char * i_dir_close_write_xpm[] = {
"16 16 35 1",
" 	c None",
".	c #2CB2E0",
"+	c #69B3D9",
"@	c #00B400",
"#	c #0269AF",
"$	c #C9EBFE",
"%	c #97C9F4",
"&	c #069EF6",
"*	c #3EABE7",
"=	c #58AEDF",
"-	c #025C9E",
";	c #BEE4FD",
">	c #80BED2",
",	c #269EEE",
"'	c #B1DDFD",
")	c #8AC3EA",
"!	c #0296FA",
"~	c #1296F2",
"{	c #024A88",
"]	c #A9D8FB",
"^	c #0274F6",
"/	c #2286F6",
"(	c #5A9EE2",
"_	c #A0D5F6",
":	c #79B8E4",
"<	c #0262D1",
"[	c #021E4C",
"}	c #020204",
"|	c #0276BF",
"1	c #023666",
"2	c #636363",
"3	c #027ECE",
"4	c #0242AA",
"5	c #022E5E",
"6	c #020222",
"                ",
" ..+       @@@@ ",
"#$%&*=      @@@ ",
"-$;$>,*+=+   @@ ",
"-;;$;')!~++{  @ ",
"-;;$$];;%^/(    ",
"-$;;';;_;])^%   ",
"-$;'';;];%:<=   ",
"#;;;'']_;')<+   ",
"#'';']']]%:#>   ",
"-)_;']'___%-[   ",
"}>|+_'%]]))<1}2 ",
" }{>3*]]);:45}}2",
"   66)|=_%:#}}}2",
"     6[:|*><}}}2",
"        6+|1}}2 "};
