/* XPM */
static char * i_dir_up_owner_xpm[] = {
"16 16 49 1",
" 	c None",
".	c #7A7696",
"+	c #8F8AB6",
"@	c #404069",
"#	c #D6CEFE",
"$	c #66629E",
"%	c #7E7AAE",
"&	c #8A82BC",
"*	c #363A6A",
"=	c #CACAFA",
"-	c #8276CA",
";	c #6E6AAE",
">	c #7676AE",
",	c #3A3266",
"'	c #CAC2FE",
")	c #020212",
"!	c #BAB2FE",
"~	c #9896D5",
"{	c #9187C9",
"]	c #020202",
"^	c #ABA5F7",
"/	c #C0BDFE",
"(	c #9E9EEE",
"_	c #5A52A6",
":	c #6A5EBE",
"<	c #9AA2DE",
"[	c #1E1E3E",
"}	c #222246",
"|	c #4A4A7A",
"1	c #9E96FE",
"2	c #564AAA",
"3	c #AAAEEE",
"4	c #8A88DE",
"5	c #B2B6FA",
"6	c #9292EA",
"7	c #464A82",
"8	c #8A92CA",
"9	c #A29ABE",
"0	c #A6A2D6",
"a	c #AEB2F6",
"b	c #9296C6",
"c	c #424286",
"d	c #636363",
"e	c #322E4E",
"f	c #322E7A",
"g	c #020221",
"h	c #0E123A",
"i	c #8E8EC2",
"j	c #46466E",
"                ",
" ..+            ",
"@##$%&          ",
"*#==-;>+&+      ",
",'=)!#~$${{,    ",
"@@]])^/'(_:-    ",
",<[}]|/^/!12^   ",
",^_}|]/3/^42&   ",
",=_}!~~~/567{   ",
",!_}}}!~~<8@9   ",
",00#}}}}~a<*[   ",
"]b7+3#}}}(4c}]d ",
" )eb|>#67=4f[]]d",
"   ggb7&3(4c]]]d",
"     ghb7>~@]]]d",
"        gij}]]d "};
