/* XPM */
static char * i_dir_close_lnk_owner_xpm[] = {
"16 16 50 1",
" 	c None",
".	c #7A7696",
"+	c #76729A",
"@	c #8E8AB6",
"#	c #403E65",
"$	c #D6D2FE",
"%	c #A6A2DA",
"&	c #6A629E",
"*	c #7A76AE",
"=	c #8C82BB",
"-	c #C2BEFE",
";	c #CECAFE",
">	c #9996D1",
",	c #6E6AAE",
"'	c #3E3662",
")	c #C8C5FD",
"!	c #B6B6FC",
"~	c #665EA2",
"{	c #8E86C6",
"]	c #928CD4",
"^	c #322E7A",
"/	c #9E9EEE",
"(	c #5A52A6",
"_	c #6A5EBE",
":	c #8276CA",
"<	c #363A6A",
"[	c #FEFE02",
"}	c #9E96FE",
"|	c #5046A2",
"1	c #AAA2EE",
"2	c #8A86E6",
"3	c #434371",
"4	c #9292EA",
"5	c #42428A",
"6	c #B6BAFE",
"7	c #AAB2F2",
"8	c #9AA6DE",
"9	c #8E91C1",
"0	c #A09ABC",
"a	c #AAAEF3",
"b	c #9AA2DE",
"c	c #161737",
"d	c #020202",
"e	c #222246",
"f	c #636363",
"g	c #020212",
"h	c #322E4E",
"i	c #484B7E",
"j	c #020222",
"k	c #424282",
"                ",
" .+@            ",
"#$%&*=          ",
"#$-;>,*@=@      ",
"';-))!>~&{]'    ",
"';-))^-)/(_:    ",
"<;;^^[^^-!}|1   ",
"#;-^[[[^-12|=   ",
"3)^[[[[[^!45@   ",
"3!6^[[[^78930   ",
"#%a^^[^^aab<c   ",
"d039a^a7ab45edf ",
" gh>i+aa4-2^cddf",
"   jj/3=a/]kdddf",
"     jc@5*>#dddf",
"        g9ieddf "};
