/* XPM */
static char * i_dir_open_xpm[] = {
"16 16 49 1",
" 	c None",
".	c #2AB2E2",
"+	c #6ABAD6",
"@	c #CCEAFE",
"#	c #92CAE6",
"$	c #069EF6",
"%	c #46AAE2",
"&	c #5EB2DA",
"*	c #02669A",
"=	c #82BED2",
"-	c #269EEE",
";	c #68B0DA",
">	c #025DA1",
",	c #02569A",
"'	c #BFE6FE",
")	c #0296FA",
"!	c #BEE2FE",
"~	c #B1DEFE",
"{	c #88C0EB",
"]	c #1296F2",
"^	c #6EAEDE",
"/	c #024A96",
"(	c #96CAF6",
"_	c #027AF6",
":	c #2286F6",
"<	c #5A9EE2",
"[	c #AADAFE",
"}	c #92C2FE",
"|	c #026EF6",
"1	c #7ABBE5",
"2	c #0262DE",
"3	c #A2D3F6",
"4	c #0262CA",
"5	c #B6E2FE",
"6	c #A2DAF6",
"7	c #026AB2",
"8	c #9AD2F2",
"9	c #022A56",
"0	c #0276B2",
"a	c #023666",
"b	c #020203",
"c	c #636363",
"d	c #020222",
"e	c #024A7A",
"f	c #027ECE",
"g	c #3FADE7",
"h	c #0242AA",
"i	c #0276C7",
"j	c #02164A",
"                ",
"  .+            ",
" @#$%&          ",
"*$=@=-%;&>      ",
",')$!~{)]^>/    ",
",@')$$!!(_:<    ",
">@''@$$)![}|(   ",
"*''~~!~$>}12;   ",
" /''~~~3}>{4;   ",
" /~!56[63$!7=   ",
" /3~~[~88$$!9   ",
" /0;3!853($4abc ",
" de1fg8[{!$h9bbc",
"   dd{i&8#$4bbbc",
"     dj=ig/*bbbc",
"       :d^0abbc "};
