/* XPM */
static char * i_dir_close_xpm[] = {
"16 16 34 1",
" 	c None",
".	c #2CB2E0",
"+	c #69B3D9",
"@	c #0269AF",
"#	c #C9EBFE",
"$	c #97C9F4",
"%	c #069EF6",
"&	c #3EABE7",
"*	c #58AEDF",
"=	c #025C9E",
"-	c #BEE4FD",
";	c #80BED2",
">	c #269EEE",
",	c #B1DDFD",
"'	c #8AC3EA",
")	c #0296FA",
"!	c #1296F2",
"~	c #024A88",
"{	c #A9D8FB",
"]	c #0274F6",
"^	c #2286F6",
"/	c #5A9EE2",
"(	c #A0D5F6",
"_	c #79B8E4",
":	c #0262D1",
"<	c #021E4C",
"[	c #020204",
"}	c #0276BF",
"|	c #023666",
"1	c #636363",
"2	c #027ECE",
"3	c #0242AA",
"4	c #022E5E",
"5	c #020222",
"                ",
" ..+            ",
"@#$%&*          ",
"=#-#;>&+*+      ",
"=--#-,')!++~    ",
"=--##{--$]^/    ",
"=#--,--(-{']$   ",
"=#-,,--{-$_:*   ",
"@---,,{(-,':+   ",
"@,,-,{,{{$_@;   ",
"='(-,{,((($=<   ",
"[;}+(,${{'':|[1 ",
" [~;2&{{'-_34[[1",
"   55'}*($_@[[[1",
"     5<_}&;:[[[1",
"        5+}|[[1 "};
