/* XPM */
static char * i_dir_open_owner_xpm[] = {
"16 16 50 1",
" 	c None",
".	c #76729A",
"+	c #8E8AB9",
"@	c #D6CEFE",
"#	c #AAA2E2",
"$	c #66629A",
"%	c #7E7AAE",
"&	c #8A82BC",
"*	c #3E3C66",
"=	c #9A96DA",
"-	c #9A92D6",
";	c #6E6AAE",
">	c #7676AE",
",	c #3B3365",
"'	c #CAC2FE",
")	c #BEB6FE",
"!	c #665EA2",
"~	c #C2C2FA",
"{	c #C2BEFE",
"]	c #A29EEE",
"^	c #5A52A6",
"/	c #6A5EBE",
"(	c #8276CA",
"_	c #CACAFA",
":	c #BDBDFD",
"<	c #B0B2F8",
"[	c #9E96FE",
"}	c #5046A2",
"|	c #B6BAFE",
"1	c #8A86EA",
"2	c #B2B6FA",
"3	c #AAAAF2",
"4	c #9494E8",
"5	c #42428A",
"6	c #AEAEFA",
"7	c #424470",
"8	c #A29ABE",
"9	c #A9AEED",
"0	c #141638",
"a	c #484B7E",
"b	c #8E8EC2",
"c	c #222246",
"d	c #020202",
"e	c #636363",
"f	c #020212",
"g	c #322E4E",
"h	c #9797C5",
"i	c #322E7A",
"j	c #02021E",
"k	c #02022A",
"                ",
"  .+            ",
" @#$%&          ",
"*$=@-;>+&*      ",
",'$$')=!$+*,    ",
"*@~!$${']^/(    ",
"*_~~@$$$:<[}#   ",
"*~_||:|$,[1}&   ",
" ,~:|{23[*45+   ",
" ,|:|626<!:78   ",
" ,3|<<|39$$:0   ",
" ,ab9|3<3]$5cde ",
" fgha>994{$icdde",
"   jkha&3]$7ddde",
"     k0ba>,*ddde",
"       /fb7cdde "};
