/* XPM */
static char * i_dir_open_lnk_xpm[] = {
"16 16 50 1",
" 	c None",
".	c #2AB2E2",
"+	c #6ABAD6",
"@	c #CEEAFE",
"#	c #92CAE6",
"$	c #069EF6",
"%	c #43AAE5",
"&	c #5EB1DE",
"*	c #02669A",
"=	c #86BEEE",
"-	c #C1E6FE",
";	c #86BEE2",
">	c #269EEE",
",	c #6AB2DA",
"'	c #025CA0",
")	c #02569A",
"!	c #BDE2FE",
"~	c #B2DBFE",
"{	c #0296FA",
"]	c #1296F2",
"^	c #024A96",
"/	c #90C2FC",
"(	c #027AF6",
"_	c #2286F6",
":	c #5A9EE2",
"<	c #026EF6",
"[	c #96CAF2",
"}	c #2E8A02",
"|	c #02264E",
"1	c #7AB6F2",
"2	c #0262DE",
"3	c #62AADA",
"4	c #FAFE02",
"5	c #0262C6",
"6	c #A6D6F6",
"7	c #0266AE",
"8	c #7EBEDC",
"9	c #9AD2F2",
"0	c #0276BA",
"a	c #A2D8F6",
"b	c #023666",
"c	c #020203",
"d	c #636363",
"e	c #024A7A",
"f	c #027ECE",
"g	c #3AAEEA",
"h	c #0242AA",
"i	c #022E5E",
"j	c #020222",
"k	c #02164A",
"                ",
"  .+            ",
" @#$%&          ",
"*$=-;>%,&'      ",
")-$$!~;{],'^    ",
")@!$$$!-/(_:    ",
"'@-!@$$$~~/<[   ",
"*-!}|||}'[123   ",
" ^-|}4}|/'/5,   ",
" ^~|444|6$!78   ",
" ^9|}4}|9$$!|   ",
" ^0}|||}a[$5bcd ",
" ce8fg66=!$hiccd",
"   jj;0&6#$5cccd",
"     jk80g^7cccd",
"       _j+0bccd "};
