/* XPM */
static char * i_exe_suid_xpm[] = {
"16 16 5 1",
" 	c None",
".	c #000000",
"+	c #FF0000",
"@	c #BEBEBE",
"#	c #FFFFFF",
"                ",
" .............  ",
" .+++++++++++.@ ",
" .+++++++++++.@@",
" .............@@",
" .###########.@@",
" .###########.@@",
" .###########.@@",
" .###########.@@",
" .###########.@@",
" .###########.@@",
" .###########.@@",
" .............@@",
"  @@@@@@@@@@@@@@",
"   @@@@@@@@@@@@@",
"                "};
