/* XPM */
static char * i_exe_lnk_owner_xpm[] = {
"16 16 6 1",
" 	c None",
".	c black",
"X	c white",
"o	c blue",
"O	c #BEBEBE",
"+	c #FFFF7F",
"                ",
"                ",
" .............. ",
" .XooooooooooX.O",
" .XooooooooooX.O",
" ..............O",
" .++++++++++++.O",
" .++++++++o+++.O",
" .++++++++oo++.O",
" .++ooooooooo+.O",
" .++++++++oo++.O",
" .++++++++o+++.O",
" .++++++++++++.O",
" ..............O",
"  OOOOOOOOOOOOOO",
"                "};
