/* XPM */
static char * i_exe_sugd_xpm[] = {
"16 16 26 1",
" 	c None",
".	c #000000",
"+	c #FC0200",
"@	c #E51900",
"#	c #CE3000",
"$	c #B74700",
"%	c #A05E00",
"&	c #897500",
"*	c #728C00",
"=	c #5BA300",
"-	c #44BA00",
";	c #2DD100",
">	c #16E800",
",	c #BEBEBE",
"'	c #FF0000",
")	c #E81600",
"!	c #D12D00",
"~	c #BA4400",
"{	c #A35B00",
"]	c #8C7200",
"^	c #758900",
"/	c #5EA000",
"(	c #47B700",
"_	c #30CE00",
":	c #19E500",
"<	c #FFFFFF",
"                ",
" .............  ",
" .+@#$%&*=-;>., ",
" .')!~{]^/(_:.,,",
" .............,,",
" .<<<<<<<<<<<.,,",
" .<<<<<<<<<<<.,,",
" .<<<<<<<<<<<.,,",
" .<<<<<<<<<<<.,,",
" .<<<<<<<<<<<.,,",
" .<<<<<<<<<<<.,,",
" .<<<<<<<<<<<.,,",
" .............,,",
"  ,,,,,,,,,,,,,,",
"   ,,,,,,,,,,,,,",
"                "};
