/* XPM */
static char * i_fifo_xpm[] = {
"16 16 4 1",
" 	c None",
".	c blue",
"X	c #D3D3D3",
"o	c black",
"                ",
"                ",
"                ",
"                ",
"    .........   ",
"   ........XX.  ",
" o........XX..o ",
"oo........X.oooo",
" o........XX..o ",
"   ........XX.  ",
"    .........   ",
"                ",
"                ",
"                ",
"                ",
"                "};
