/* XPM */
static char * i_page_write_xpm[] = {
"16 16 5 1",
" 	c None",
".	c #000000",
"+	c #FFFFFF",
"@	c #00B400",
"#	c #808080",
"                ",
"  ........      ",
"  .+++++.@.     ",
"  .+###+.@@.    ",
"  .+++++.@@@.   ",
"  .+###+.....#  ",
"  .++++++###.#  ",
"  .+#######+.#  ",
"  .+++++++++.#  ",
"  .+#######+.#  ",
"  .+++++++++.#  ",
"  .+#######+.#  ",
"  .+++++++++.#  ",
"  ...........#  ",
"   ###########  ",
"                "};
