/* XPM */
static char * i_page_owner_xpm[] = {
"16 16 5 1",
" 	c None",
".	c #000000",
"+	c #FFFF7F",
"@	c #808080",
"#	c #FFFFFF",
"                ",
"  ........      ",
"  .++++++..     ",
"  .+@@@@+.#.    ",
"  .++++++....   ",
"  .+@@@@@+@@.@  ",
"  .+++++++++.@  ",
"  .+@@@@@@@+.@  ",
"  .+++++++++.@  ",
"  .+@@@@@@@+.@  ",
"  .+++++++++.@  ",
"  .+@@@@@@@+.@  ",
"  .+++++++++.@  ",
"  ...........@  ",
"   @@@@@@@@@@@  ",
"                "};
