/* XPM */
static char * info_xpm[] = {
"32 32 4 1",
" 	c None",
".	c #000000",
"+	c #0000FF",
"@	c #FFFFFF",
"            ........            ",
"         ...++++++++...         ",
"       ..+++++@@@@+++++..       ",
"      .++++++@@@@@@++++++.      ",
"     .++++++@@@@@@@@++++++.     ",
"    .+++++++@@@@@@@@+++++++.    ",
"   .++++++++@@@@@@@@++++++++.   ",
"  .++++++++++@@@@@@++++++++++.  ",
"  .+++++++++++@@@@+++++++++++.  ",
" .++++++++++++++++++++++++++++. ",
" .++++++++++++++++++++++++++++. ",
" .+++++++++@@@@@@@@@++++++++++. ",
".++++++++++@@@@@@@@@+++++++++++.",
".+++++++++++++@@@@@@+++++++++++.",
".+++++++++++++@@@@@@+++++++++++.",
".+++++++++++++@@@@@@+++++++++++.",
".+++++++++++++@@@@@@+++++++++++.",
".+++++++++++++@@@@@@+++++++++++.",
".+++++++++++++@@@@@@+++++++++++.",
".+++++++++++++@@@@@@+++++++++++.",
" .++++++++++++@@@@@@++++++++++. ",
" .++++++++++++@@@@@@++++++++++. ",
" .++++++++++++@@@@@@++++++++++. ",
"  .+++++++++++@@@@@@+++++++++.  ",
"  .+++++++++++@@@@@@+++++++++.  ",
"   .+++++++@@@@@@@@@@@@+++++.   ",
"    .++++++@@@@@@@@@@@@++++.    ",
"     .+++++@@@@@@@@@@@@+++.     ",
"      .++++++++++++++++++.      ",
"       ..++++++++++++++..       ",
"         ...++++++++...         ",
"            ........            "};
