/* XPM */
static char * mini_lynx_xpm[] = {
"15 16 7 1",
" 	s None	c None",
".	c yellow",
"X	c yellow3",
"o	c #808080",
"O	c black",
"+	c red",
"@	c blue",
"          .XXX.",
"  ooOO     ..XX",
"  o..o      X.X",
"  o.O      . .X",
"  o.+         .",
"  o.+          ",
"  o.+          ",
"  o.+    +++   ",
"  o..+++++X+   ",
"  o..@@@@.X+   ",
"  oo@ooooo++   ",
"  @@@@@@@@@@@  ",
" @OOOOOOOOO@@@ ",
"@O@@@OOOOOOOO@@",
"OOOOOOOOOOOOOOO",
"               "};
