/* XPM */
static char * mini_blender_xpm[] = {
"16 16 136 2",
"  	c None",
". 	c #FFEFE2",
"+ 	c #FBD9B8",
"@ 	c #FDEEE0",
"# 	c #FFDFC2",
"$ 	c #F19841",
"% 	c #F5B170",
"& 	c #FDE5CF",
"* 	c #FCD0AD",
"= 	c #F79B49",
"- 	c #F19F4E",
"; 	c #FCD8B4",
"> 	c #FDE4D0",
", 	c #FCC595",
"' 	c #FCC18D",
") 	c #FCBE88",
"! 	c #FABF89",
"~ 	c #F2A85C",
"{ 	c #F08E31",
"] 	c #EE8D31",
"^ 	c #F6C28E",
"/ 	c #FEF4EA",
"( 	c #F9C497",
"_ 	c #F2A356",
": 	c #F1A255",
"< 	c #EF9239",
"[ 	c #F28F34",
"} 	c #F59B49",
"| 	c #F6A255",
"1 	c #F29C48",
"2 	c #F29237",
"3 	c #F8B475",
"4 	c #FFE7D5",
"5 	c #FFF1E7",
"6 	c #FCE7D2",
"7 	c #FBE3C9",
"8 	c #F9BF85",
"9 	c #F1953D",
"0 	c #EE9135",
"a 	c #FCBC84",
"b 	c #F9DDC3",
"c 	c #EBDCC8",
"d 	c #F7DBC1",
"e 	c #FAB776",
"f 	c #F4953D",
"g 	c #FBAF6E",
"h 	c #FFEEE4",
"i 	c #F7BF8C",
"j 	c #F19843",
"k 	c #EF8E32",
"l 	c #F9B87C",
"m 	c #E6E6E4",
"n 	c #6396B8",
"o 	c #3075A2",
"p 	c #5B8FB2",
"q 	c #F4E8DD",
"r 	c #FAB576",
"s 	c #F39036",
"t 	c #FCC697",
"u 	c #FEE8D7",
"v 	c #F6B26E",
"w 	c #F18D31",
"x 	c #F7963E",
"y 	c #FEEBDA",
"z 	c #75A3C1",
"A 	c #005083",
"B 	c #6E9DBA",
"C 	c #FEDCBE",
"D 	c #F89742",
"E 	c #FD9E4D",
"F 	c #FAD6B2",
"G 	c #F5A558",
"H 	c #EF9135",
"I 	c #F5A459",
"J 	c #F4943B",
"K 	c #F89944",
"L 	c #FEEAD9",
"M 	c #74A2BF",
"N 	c #005185",
"O 	c #76A3BF",
"P 	c #FDDDBF",
"Q 	c #F59943",
"R 	c #FC9737",
"S 	c #F8CBA1",
"T 	c #F09A47",
"U 	c #F19137",
"V 	c #F7BC84",
"W 	c #FEDEC2",
"X 	c #F5A04C",
"Y 	c #F09135",
"Z 	c #F8CA9D",
"` 	c #D5E1EB",
" .	c #5F92B4",
"..	c #33749E",
"+.	c #598EAF",
"@.	c #DDE2E4",
"#.	c #FDC492",
"$.	c #F59138",
"%.	c #FC9C47",
"&.	c #EF9943",
"*.	c #FAC899",
"=.	c #F7B87A",
"-.	c #F4953F",
";.	c #F7D5B2",
">.	c #ECEDF2",
",.	c #DDE8EF",
"'.	c #EAEDEF",
").	c #FECA9B",
"!.	c #F5973F",
"~.	c #F28D31",
"{.	c #FDBA81",
"].	c #FFE2C6",
"^.	c #FFE5D0",
"/.	c #FCE5CC",
"(.	c #F3A456",
"_.	c #EE8F33",
":.	c #F18F32",
"<.	c #F99D45",
"[.	c #F5A758",
"}.	c #F69A43",
"|.	c #EF9035",
"1.	c #F3AC63",
"2.	c #FDEEE5",
"3.	c #FCE1C4",
"4.	c #F6B16C",
"5.	c #F3953F",
"6.	c #EE9034",
"7.	c #F19034",
"8.	c #F39034",
"9.	c #F59A47",
"0.	c #F7B678",
"a.	c #FAE6D2",
"b.	c #FEDABA",
"c.	c #F8D5B0",
"d.	c #FFDEC3",
"e.	c #FFF2E8",
"                                ",
"              . + @             ",
"              # $ % &           ",
"                * = - ;         ",
"    > , ' ' ' ) ! ~ { ] ^ /     ",
"    ( _ : - < ] [ } | 1 2 3 4   ",
"    5 6 7 8 9 0 a b c d e f g h ",
"        i j k l m n o p q r s t ",
"    u v ] w x y z A A A B C D E ",
"  F G H I J K L M N A A O P Q R ",
"S T U V W X Y Z `  ...+.@.#.$.%.",
"&.$ *.    =.] -.;.>.,.'.).!.~.{.",
"].^.      /.(._.:.<.[.}.] |.1.2.",
"            3.4.5.6.7.8.9.0.a.  ",
"              . b.c.c.c.d.e.    ",
"                                "};
