/* XPM */
static char * LinNeighbourhood_xpm[] = {
"16 16 14 1",
" 	c None",
".	c #838183",
"+	c #FFFFFF",
"@	c #000000",
"#	c #C5C2FF",
"$	c #7B797B",
"%	c #00FFFF",
"&	c #008183",
"*	c #628183",
"=	c #C5C283",
"-	c #728183",
";	c #BDBEBD",
">	c #000083",
",	c #0000FF",
".........       ",
".+++++++@       ",
".+@@@@@#@  $$$$ ",
".+@%&&*=@  $++$@",
".+@&&&*#@  $+@$@",
".+@***-=@  $+;$@",
".#=#=#=#@  $+;$@",
".@@@@@@@.@ $+;$@",
".+>........$+;$@",
".#.+++++++@$+;$@",
" @.+@@@@@#@$+;$@",
"  .+@%,,>=@$+;$@",
"  .+@,,,>#@$+$$@",
"  .+@>>>>=@$+;$@",
"  .#=#=#=#@$$$$@",
"   @@@@@@@$@@@@@"};
