/* XPM */
static char * mini_gcombust_xpm[] = {
"16 16 10 1",
" 	c None",
".	c #808080",
"+	c #FFFF00",
"@	c #C0C0C0",
"#	c #000000",
"$	c #00FFFF",
"%	c #00FF00",
"&	c #FFFFFF",
"*	c #E21818",
"=	c #1D2F93",
"     .....      ",
"   ..++@@@##    ",
"  .$+++@@@@@#   ",
" .%$$++@@@@&@# *",
" .%%$++@@@&@@#**",
".@@%%$+@@&@@@***",
".@@@%$.#.@@@*** ",
".@@@@%# #@@==*# ",
".@@@@&.#.$===@# ",
".@@@&@@&%===@@# ",
" .@&@@@@===$@#  ",
" .&@@@@#==+$$#  ",
"  .@@@@##%++#   ",
"   ..@#@%%##    ",
"     ..###      ",
"                "};
