/* XPM */
static char * win31_printer_xpm[] = {
"16 16 72 1",
" 	c None",
".	c #454545",
"+	c #727272",
"@	c #636363",
"#	c #A3A5AD",
"$	c #A7A7FF",
"%	c #E8E8FF",
"&	c #C8CCCF",
"*	c #4B4D50",
"=	c #CBCCF6",
"-	c #8D8DFF",
";	c #9D9DFF",
">	c #E5E5F3",
",	c #505254",
"'	c #303133",
")	c #D5D7DC",
"!	c #ACACFF",
"~	c #9293FA",
"{	c #BCBDF8",
"]	c #717375",
"^	c #A8ADB2",
"/	c #CCCFE7",
"(	c #9FA1F0",
"_	c #BCBFC2",
":	c #000000",
"<	c #BBBBBB",
"[	c #7B7BFF",
"}	c #6E6E6E",
"|	c #B3B3B3",
"1	c #979797",
"2	c #565656",
"3	c #5A5A5A",
"4	c #7F8488",
"5	c #B6B6B6",
"6	c #BABEC2",
"7	c #31383F",
"8	c #626262",
"9	c #E2E2E2",
"0	c #E3E3E3",
"a	c #D7D9DA",
"b	c #7A8998",
"c	c #343C43",
"d	c #777777",
"e	c #C4C4C4",
"f	c #C0C0C0",
"g	c #CC9D9D",
"h	c #E35656",
"i	c #DC6B6B",
"j	c #B5B7BA",
"k	c #708090",
"l	c #6C7C8B",
"m	c #191D20",
"n	c #212529",
"o	c #99A0A7",
"p	c #9FA6AC",
"q	c #9299A0",
"r	c #1C2024",
"s	c #0E1013",
"t	c #2E343B",
"u	c #323941",
"v	c #384048",
"w	c #272C32",
"x	c #AFB3B6",
"y	c #ADB1B4",
"z	c #84909C",
"A	c #2D333A",
"B	c #BDBFC0",
"C	c #B8B9BB",
"D	c #78818A",
"E	c #0F1214",
"F	c #2C3238",
"G	c #111316",
"      .++++++@  ",
"      #$$$$$%&  ",
"     *=----;>,  ",
"    ')!---~{]   ",
"    ^/----(_    ",
"   :<$[[[[$<:   ",
" }|1233333324567",
"8900000000000abc",
"deffffffffghijkc",
"defffffffffffjkc",
"defffffffffffjlm",
"nopppppppppppqr ",
" stuuuuuuuuuuvw ",
"  xyyyyyyyyyyzA ",
"  BCCCCCCCCCCDE ",
"  FuuuuuuuuuuG  "};
