/* XPM */
static char * mini_xconsole_xpm[] = {
"14 14 5 1",
" 	c None",
".	c #D3D3D3",
"+	c #696969",
"@	c #000000",
"#	c #FFFFFF",
"              ",
"  .........+  ",
"  .@@@@@@@.+  ",
"  .@@@@@@@.+  ",
"  .@@@@@@@.++ ",
"  .@@@@@@@.++ ",
"  .@@@@@@@.++ ",
"  .@@@@@@@.+  ",
"   .......+   ",
"   +++++++++  ",
"  ++++++++.+  ",
" +######.. +++",
" .######.+ .. ",
"              "};
