/* XPM */
static char * mini_xchat_xpm[] = {
"16 16 6 1",
" 	c None",
".	c #000000",
"+	c #C0C0C0",
"@	c #F2FFAD",
"#	c #808080",
"$	c #3F9E12",
"  ....   ....   ",
" .+@@+. .+@@+.  ",
".+@@@@+.+@@@@+. ",
".@@@@@@.@@@@@@.#",
".@@@@@@.@@@@@@.#",
".@..@@@.@..@@@.#",
".+..@@+.+..@@+.#",
" .+@@+.#.+@@+.##",
"  ....## ....## ",
"   ####   ####  ",
"                ",
"   $$  $$  $$   ",
"   $$  $$       ",
"   $$$$$$  $$   ",
"   $$  $$  $$   ",
"   $$  $$  $$   "};
