/* XPM */
static char * mini_xsetbg_xpm[] = {
"14 14 78 1",
" 	c None",
".	c #BDC72A",
"+	c #A3AB32",
"@	c #E6F41F",
"#	c #B7C12C",
"$	c #E4F21F",
"%	c #E5F320",
"&	c #E5F322",
"*	c #E0EA55",
"=	c #E4F12D",
"-	c #E5F323",
";	c #D6E228",
">	c #7A7E3E",
",	c #DAE537",
"'	c #CFE51B",
")	c #BFDC19",
"!	c #75AD0F",
"~	c #DEEF1E",
"{	c #91E771",
"]	c #63E09B",
"^	c #3EDBC0",
"/	c #75E48E",
"(	c #E5F31F",
"_	c #3BDDC7",
":	c #3DDDC6",
"<	c #3BDDC8",
"[	c #5BDACA",
"}	c #DAE725",
"|	c #8EDABC",
"1	c #3ADCC7",
"2	c #37D6BD",
"3	c #3EDCC8",
"4	c #48DDBA",
"5	c #E4F120",
"6	c #BEDE99",
"7	c #38D8C0",
"8	c #3ADBC4",
"9	c #3BDCC8",
"0	c #40D4BF",
"a	c #E4F030",
"b	c #D6E327",
"c	c #E2ED44",
"d	c #3ADCC6",
"e	c #3ADBC5",
"f	c #39D9C1",
"g	c #35D2B5",
"h	c #8BE677",
"i	c #3DDCC8",
"j	c #3FDCC8",
"k	c #58DBCA",
"l	c #3ED4C1",
"m	c #3EDDC4",
"n	c #3ED3C0",
"o	c #3DD7C3",
"p	c #3BDCC7",
"q	c #3FD1BE",
"r	c #3BDBC6",
"s	c #E1EF21",
"t	c #42CAB9",
"u	c #3ED4C0",
"v	c #64DACB",
"w	c #A5E35A",
"x	c #E5F21F",
"y	c #E7F429",
"z	c #F0F881",
"A	c #F6FBB6",
"B	c #E8F534",
"C	c #E6F420",
"D	c #ECF658",
"E	c #D4D4C8",
"F	c #DEE764",
"G	c #E3F120",
"H	c #D7E427",
"I	c #696969",
"J	c #E3EF36",
"K	c #E8F536",
"L	c #E7F428",
"M	c #E9F53B",
".+   @   @    ",
"#@$%@@&*=@-;@@",
" >,')!~{]^/$@ ",
" @(_:<<<<<[}@ ",
"@@|<<<<<12345 ",
"@@6<<<<78<90(@",
" @a<<<<<<1<b(@",
"@@cd1defgd<h@ ",
"@@ ii999jklm@@",
" @@nol<plqr<@@",
"@@st<rrrruvw@@",
"@xyzABCDEF@GHI",
"@JK@@LMC((@@@@",
"@  @@   @   @@"};
