/* XPM */
static char * mini_BasiliskII_xpm[] = {
"16 16 65 1",
" 	c None",
".	c #266A26",
"+	c #777777",
"@	c #8686D6",
"#	c #B0AFAD",
"$	c #F26262",
"%	c #D9D95D",
"&	c #EE5959",
"*	c #DADA62",
"=	c #E6E2A2",
"-	c #4343D6",
";	c #F69F9F",
">	c #F6F2D2",
",	c #DEDA6A",
"'	c #D6D256",
")	c #F29A9A",
"!	c #D2D25A",
"~	c #7E7EEE",
"{	c #F6F6D6",
"]	c #D2CE5E",
"^	c #DEDE96",
"/	c #66624E",
"(	c #A2BEA2",
"_	c #D6D2BA",
":	c #8A8ADA",
"<	c #FADBDB",
"[	c #7676D2",
"}	c #A69A9A",
"|	c #D2D2B6",
"1	c #FAFAEA",
"2	c #CAD6CA",
"3	c #E4E4E4",
"4	c #737275",
"5	c #FEE2E2",
"6	c #E6C2C2",
"7	c #6A665A",
"8	c #FEF1F1",
"9	c #EE6666",
"0	c #F4E6E6",
"a	c #F6F6E2",
"b	c #D6D6CE",
"c	c #6F6E6D",
"d	c #A5A49E",
"e	c #D0D0D0",
"f	c #EAEAEA",
"g	c #FBFAF9",
"h	c #FAC8C8",
"i	c #676666",
"j	c #EAF2EA",
"k	c #D2DAD2",
"l	c #FEFEFE",
"m	c #696A69",
"n	c #B2AAAA",
"o	c #F7F6F5",
"p	c #E6E6FA",
"q	c #A8A8AA",
"r	c #636375",
"s	c #EE6262",
"t	c #FAD2D2",
"u	c #4646E8",
"v	c #ECE4E4",
"w	c #9696F6",
"x	c #DCDCDD",
"y	c #F2F0EF",
"z	c #F6EAEA",
"lllll3mmi//7dfll",
"lllllx4v=*%!b+ol",
"lj(jlx+oll1%_+ol",
"f2.kgk+yll1*|+ol",
"imm4fx+j{{>%|4ol",
"ixxqyx+y,%!^b+yl",
"meq#yvnoa#++e+ol",
"3+}6$s9zy3ebe+ol",
"lo)&hh<#+444cc3g",
"lo)&s;8zb:u--[c3",
"ll8<h&5llpw~-u@i",
"lllg5&<glloqrrim",
"llll8;95fylfxxxp",
"lllllg0dcqylllll",
"lllllly#!d#ollll",
"lllllllgjdqgllll"};
