/* XPM */
static char * mini_xvidcap_xpm[] = {
"16 16 6 1",
" 	c None",
".	c black",
"X	c white",
"o	c blue",
"O	c gray",
"+	c red",
"                ",
"............... ",
".XooXooXooXooX.O",
".XooXooXooXooX.O",
"...............O",
" OOOOOOOOOOOOOOO",
"                ",
"  +++++++++++   ",
"  +         +   ",
"  +         +   ",
"  +         +   ",
"  +         +   ",
"  +         +   ",
"  +         +   ",
"  +         +   ",
"  +++++++++++   "};
