/* XPM */
static char * mini_quicklist_xpm[] = {
"15 16 6 1",
" 	c None",
".	c blue3",
"X	c yellow",
"o	c red4",
"O	c gray",
"+	c white",
"               ",
" ............. ",
" .XXXoXXXoXXX.O",
" .XXXoXXXoXXX.O",
" .ooooooooooo.O",
" .+++o+++o+++.O",
" .ooooooooooo.O",
" .+++o+++o+++.O",
" .ooooooooooo.O",
" .+++o+++o+++.O",
" .ooooooooooo.O",
" .+++o+++o+++.O",
" .ooooooooooo.O",
" .+++o+++o+++.O",
" .............O",
"  OOOOOOOOOOOOO"};
