/* XPM */
static char * mini_plaympeg_xpm[] = {
"16 16 65 1",
" 	c None",
".	c #020202",
"+	c #9E9E9E",
"@	c #7E7E80",
"#	c #565653",
"$	c #2A2A24",
"%	c #CECECC",
"&	c #564E36",
"*	c #121210",
"=	c #AEAEAE",
"-	c #5E5E5A",
";	c #F2F2F2",
">	c #42423D",
",	c #828282",
"'	c #2A2612",
")	c #6A6A46",
"!	c #8A8A8A",
"~	c #DEDEDA",
"{	c #323216",
"]	c #B2B2B2",
"^	c #B6B6B2",
"/	c #929292",
"(	c #6E6E70",
"_	c #BABABA",
":	c #3E3E36",
"<	c #1A1A18",
"[	c #0A0A07",
"}	c #727276",
"|	c #A6A6A4",
"1	c #323231",
"2	c #C6C6C2",
"3	c #36362E",
"4	c #DADADA",
"5	c #52524C",
"6	c #4A4A42",
"7	c #9A9A9B",
"8	c #666662",
"9	c #22221F",
"0	c #7A7A7A",
"a	c #3A3A32",
"b	c #BEBEBE",
"c	c #262624",
"d	c #1E1E1A",
"e	c #4E4E4E",
"f	c #2E2E26",
"g	c #8E8E91",
"h	c #0E0E0C",
"i	c #464640",
"j	c #161614",
"k	c #D2D2D2",
"l	c #969696",
"m	c #060606",
"n	c #AAAAA6",
"o	c #C2C2C0",
"p	c #626266",
"q	c #A2A2A2",
"r	c #E2E2E2",
"s	c #868686",
"t	c #CACACA",
"u	c #363636",
"v	c #4A4A48",
"w	c #2E2E2C",
"x	c #3A3A38",
"y	c #2A2A2A",
"z	c #3E3E3E",
"                ",
"  5        *wi. ",
" hc       a3cuhh",
"9e!      3z2l4pj",
"3gg     jebk/ro1",
"u7/   $dv^%klr=9",
"<(g  m6j0b%t/%6d",
"<9#.m9y0@_|<8ij*",
"1z>xji,0@75j<w!1",
"v~:cg/g08chwlq]3",
"v~+0|lg(m3 x;t]1",
"vr+@n/0wc  1;%|y",
"c^+0+ev[   3;o#j",
"d>,}xmd    *s5h&",
"{[$9j:     fw>  ",
"' cd)           "};
