/* XPM */
static char * mini_AbiWord_xpm[] = {
"15 16 8 1",
" 	c None",
".	c #515151",
"+	c #000000",
"@	c #D11BA0",
"#	c #3F3F3F",
"$	c #871167",
"%	c #5E0C48",
"&	c #11169E",
"               ",
"   .+@@@@@@@@@@",
"#++++$$$$$$$$$$",
"   .+%%%%%%%%%%",
"               ",
"               ",
"             & ",
"   &   &&&   &&",
"  & &  &  &    ",
"  & &  &  &  & ",
"  &&&  &&&   & ",
" &   & &  &  & ",
" &   & &  &  & ",
" &   & &&&   & ",
"               ",
"               "};
