/* XPM */
static char * mini_bladeenc_xpm[] = {
"16 16 8 1",
" 	c None",
".	c #0F7F2D",
"+	c #F9ED09",
"@	c #1C852A",
"#	c #2C8C28",
"$	c #9DC217",
"%	c #CD0000",
"&	c #8B0000",
"  ........... ++",
"++ .......... ++",
"+++ ........ +++",
" ++++@.... +++++",
"++++++#.. ++++++",
"++++++$.. +++++ ",
" +++++ ++++++   ",
"  ++      ++    ",
"%   % %%%   %%% ",
"%& &% %  % % + %",
"% % % %  % %++  ",
"% % % %%%  % %%%",
"%   % %    % + %",
"%   % %  + % + %",
"% + % % ++  %%% ",
" ++++ +++++     "};
