/* XPM */
static char * mini_display_xpm[] = {
"16 16 6 1",
" 	s None	c None",
".	c black",
"X	c #c0c0c0",
"o	c white",
"O	c red",
"+	c blue",
"    ...         ",
"  ..XXX..       ",
" .XXoooXX.      ",
" .XooOooX.      ",
".XoooXoooX.     ",
".XoOXOXOoX.     ",
".XoooXoooX.     ",
" .XooOooX.      ",
" .XXoooXX.      ",
"  ..XXX...X     ",
"    ...  +.X    ",
"          +.X   ",
"           +.X  ",
"            +.X ",
"             +.X",
"              +X"};
