/* XPM */
static char * mini_ghostview_xpm[] = {
"16 16 3 1",
" 	c None",
".	c #000000",
"+	c #45F9D5",
"                ",
"     ....       ",
"    .++++.      ",
"   .++++++.     ",
"   .++++++.     ",
"  ..+.++.+...   ",
" .+++.++.+.++.  ",
" .+++++++++++.  ",
"  .+++++++++.   ",
"   .+++++++.    ",
"   .+++++++.    ",
"   .+++++++.    ",
"  .+++++++++.   ",
" .+++.+++.+++.  ",
"  .... ... ..   ",
"                "};
