/* XPM */
static char * mini_gnapster_xpm[] = {
"16 16 141 2",
"  	c None",
". 	c #000000",
"+ 	c #010308",
"@ 	c #11245D",
"# 	c #2243AD",
"$ 	c #2253DE",
"% 	c #2253D8",
"& 	c #1F43AC",
"* 	c #0F1C57",
"= 	c #010107",
"- 	c #000001",
"; 	c #081127",
"> 	c #2550CF",
", 	c #3064FA",
"' 	c #2851D3",
") 	c #1C3BA1",
"! 	c #1C3FA6",
"~ 	c #2856D9",
"{ 	c #3064FD",
"] 	c #254CC6",
"^ 	c #080A1E",
"/ 	c #102369",
"( 	c #132161",
"_ 	c #2C5ADD",
": 	c #2C5CE2",
"< 	c #102363",
"[ 	c #112059",
"} 	c #18307C",
"| 	c #0C205B",
"1 	c #2C5CE8",
"2 	c #2B51D4",
"3 	c #102666",
"4 	c #10235C",
"5 	c #172F8A",
"6 	c #3165FF",
"7 	c #203CA3",
"8 	c #2D57E7",
"9 	c #2D59ED",
"0 	c #2D59F1",
"a 	c #2D57E6",
"b 	c #1B41AC",
"c 	c #172F76",
"d 	c #173392",
"e 	c #3161F8",
"f 	c #315FF8",
"g 	c #3164FD",
"h 	c #1F41A2",
"i 	c #061132",
"j 	c #03040E",
"k 	c #03040F",
"l 	c #0B163A",
"m 	c #1F41B0",
"n 	c #3164FE",
"o 	c #3160F5",
"p 	c #3165FC",
"q 	c #173384",
"r 	c #091739",
"s 	c #3060F6",
"t 	c #2659E8",
"u 	c #061434",
"v 	c #0F1F55",
"w 	c #0F2363",
"x 	c #090F2E",
"y 	c #3159F3",
"z 	c #091741",
"A 	c #1E3C9E",
"B 	c #00040C",
"C 	c #040410",
"D 	c #1E41A7",
"E 	c #2246AE",
"F 	c #2246C0",
"G 	c #1A2D78",
"H 	c #1A2D80",
"I 	c #03050E",
"J 	c #264FC1",
"K 	c #2959E8",
"L 	c #01040C",
"M 	c #003F3F",
"N 	c #004848",
"O 	c #000E0E",
"P 	c #004344",
"Q 	c #040510",
"R 	c #315CF3",
"S 	c #264FC8",
"T 	c #030513",
"U 	c #122466",
"V 	c #3165FA",
"W 	c #040D1E",
"X 	c #007D7D",
"Y 	c #00CECD",
"Z 	c #007777",
"` 	c #007C7C",
" .	c #008888",
"..	c #040D2A",
"+.	c #0D1F56",
"@.	c #050C22",
"#.	c #2E61F5",
"$.	c #192A80",
"%.	c #000202",
"&.	c #003535",
"*.	c #003F41",
"=.	c #00323A",
"-.	c #00373F",
";.	c #000402",
">.	c #193990",
",.	c #2E5FEE",
"'.	c #050919",
").	c #1C3EA0",
"!.	c #2D61F4",
"~.	c #09123A",
"{.	c #040A21",
"].	c #1944B5",
"^.	c #1944AF",
"/.	c #040A1E",
"(.	c #091940",
"_.	c #2D61F8",
":.	c #1C3993",
"<.	c #020819",
"[.	c #2C5DED",
"}.	c #12225F",
"|.	c #142666",
"1.	c #1F46C3",
"2.	c #102668",
"3.	c #122768",
"4.	c #2C5FF1",
"5.	c #2351C9",
"6.	c #020813",
"7.	c #214CC1",
"8.	c #2D5BED",
"9.	c #2854E1",
"0.	c #2D5BEE",
"a.	c #2147B7",
"b.	c #020A16",
"c.	c #000105",
"d.	c #0F1C4C",
"e.	c #1F3E99",
"f.	c #2245C2",
"g.	c #2245C0",
"h.	c #1B3E99",
"i.	c #0A1C44",
"j.	c #000104",
". . . . + @ # $ % & * = . . . . ",
". - . ; > , ' ) ! ~ { ] ^ . - . ",
". / ( _ : < [ } } | / 1 2 3 4 . ",
". 5 6 6 7 8 6 9 0 6 a b 6 6 c . ",
". d e f g h i j k l m n o p q . ",
"r s t u v - . . . . - w x y s z ",
"A 6 t B . . . . . . . . C y 6 D ",
"E 6 t B . . . . . . . . C y 6 F ",
"G 6 t B . . . . . . . . C y 6 H ",
"I J K L M N N O O N N P Q R S T ",
". U V W X Y Y Z ` Y Y  ...6 +.. ",
". @.#.$.%.&.*.=.-.*.&.;.>.,.'.. ",
". - ).!.~.. {.].^./.. (._.:.. . ",
". . <.2 [.}.|.1.1.2.3.4.5.6.. . ",
". . . /.7.g 8.9.9.0.n a.b.. . . ",
". . . . c.d.e.f.g.h.i.j.. . . . "};
