/* XPM */
static char * mini_bunzip2_xpm[] = {
"15 16 5 1",
" 	c None",
".	c black",
"X	c yellow3",
"o	c gray",
"O	c red3",
"   .XXXXXX.    ",
"   ........    ",
"     ....      ",
"     oo..      ",
"     ..oo      ",
"     oo..      ",
"     ..oo      ",
"     oo..      ",
"    OOOOOO     ",
"     OOOO      ",
"  ..........   ",
"               ",
"  ..........   ",
"               ",
"  ..........   ",
"               "};
