/* XPM */
static char * mini_gimp_xpm[] = {
"16 16 65 1",
" 	c None",
".	c #120E02",
"+	c #5A5A56",
"@	c #727672",
"#	c #939291",
"$	c #9E9E9E",
"%	c #BAB29E",
"&	c #2E2E2C",
"*	c #C0BEBE",
"=	c #CDCAC9",
"-	c #3D3E37",
";	c #766E5A",
">	c #DEDAD6",
",	c #464A46",
"'	c #CFCECF",
")	c #8E8A7E",
"!	c #321E0A",
"~	c #62553F",
"{	c #D2D2D2",
"]	c #1E1202",
"^	c #4E361E",
"/	c #606060",
"(	c #888176",
"_	c #58564C",
":	c #A5A4A2",
"<	c #2A1A0A",
"[	c #6B5F47",
"}	c #3B3A32",
"|	c #423E2E",
"1	c #ACACAC",
"2	c #7E7260",
"3	c #EEEAEA",
"4	c #422E16",
"5	c #D6D6D6",
"6	c #C3C2C2",
"7	c #4C4B3C",
"8	c #B8B8B8",
"9	c #767262",
"0	c #261E12",
"a	c #9A968A",
"b	c #666254",
"c	c #CAC6C7",
"d	c #6A6A6A",
"e	c #35352E",
"f	c #544E3E",
"g	c #7E827E",
"h	c #B4B2B4",
"i	c #4B4332",
"j	c #7E7A6A",
"k	c #4E4E4E",
"l	c #6E6F6C",
"m	c #615B4D",
"n	c #BEBAB5",
"o	c #23231E",
"p	c #4A463D",
"q	c #726656",
"r	c #3A260E",
"s	c #8D8D8A",
"t	c #7C7A79",
"u	c #C6C6C6",
"v	c #B2AEAC",
"w	c #737272",
"x	c #2A2418",
"y	c #989898",
"z	c #8E867A",
"5555555555555555",
"5555555555555655",
"555'555=6555ca55",
"555%vzq~mg6'(z=5",
"55{n^r!<].7(b)u5",
"5556~4r0oxpm_#6{",
"5n'3>:=#fp77m#65",
"$wf6+3n:[f}}+yc{",
"@l-(9ntlmieewh{5",
"g-/b;2jbi|e}s655",
"ullf_mfi~[[/$1'5",
"5=jeooe_pi2y#p@6",
"5{nskee&0&kwyy1'",
"5{=hawb/dg#:vh6'",
"555'6hv1h*c'''{5",
"55555{'{{{555555"};
