/* XPM */
static char * mini_xless_xpm[] = {
"16 16 8 1",
" 	s None	c None",
".	c brown",
"X	c #c0c0c0",
"o	c white",
"O	c black",
"+	c blue",
"@	c gray",
"#	c gray2",
"    .....       ",
"  X.ooXXX.X     ",
" X.oooooXX.X    ",
" .ooooooXXX.    ",
".oooOOOOOOXX.   ",
".oXoOOOOOOXX.   ",
".oXoOOooooXX.   ",
".oXoOOooooXX.   ",
".oooOOOOOXXX.   ",
" .ooOOOOOXX.    ",
" X.oOOoooX.X    ",
"  X.oooXX.XX+   ",
"    .....  +X+  ",
"     @      +X+ ",
"     @       +X#",
"     @        ##"};
