/* XPM */
static char * mini_wxftp_xpm[] = {
"15 16 7 1",
" 	c black",
".	c None",
"X	c gray",
"o	c blue",
"O	c red",
"+	c red2",
"@	c red3",
"    .     .    ",
" XXX... X.. .. ",
" ...... X.. .. ",
"    ... X..   .",
" X..... X.. X..",
" ...... X.. X..",
" ...... X.. X..",
"...............",
"...............",
".....ooooo.....",
"OOOOOOoooOOOOOO",
"++++++++++OO+++",
"@@@@@@@@@@@@@@@",
"      ooo      ",
".....ooooo.....",
"..............."};
