/* XPM */
static char * mini_artsbuilder_xpm[] = {
"16 16 65 1",
" 	c None",
".	c #12173D",
"+	c #A6A6AA",
"@	c #7E7E82",
"#	c #595F7F",
"$	c #3C4688",
"%	c #262E4E",
"&	c #CACACD",
"*	c #9296B2",
"=	c #363E62",
"-	c #727272",
";	c #BFBFBF",
">	c #45528C",
",	c #66709C",
"'	c #262E52",
")	c #263266",
"!	c #1E2667",
"~	c #868686",
"{	c #B8B8B9",
"]	c #4F5F97",
"^	c #5E6686",
"/	c #262E56",
"(	c #7682AA",
"_	c #7A7A86",
":	c #8E8E8E",
"<	c #AAAAAA",
"[	c #333F72",
"}	c #7A82A6",
"|	c #4A568C",
"1	c #CECECE",
"2	c #424E82",
"3	c #5E6AAA",
"4	c #202A6D",
"5	c #2C3777",
"6	c #AAB0C8",
"7	c #727BA9",
"8	c #969AB6",
"9	c #929296",
"0	c #161E52",
"a	c #5058A0",
"b	c #A0A0A1",
"c	c #888CA2",
"d	c #161E46",
"e	c #B1B1B2",
"f	c #333E7C",
"g	c #5A6292",
"h	c #323A76",
"i	c #C6C6C8",
"j	c #36427D",
"k	c #5E6899",
"l	c #838BB2",
"m	c #747680",
"n	c #232E70",
"o	c #A2A6BE",
"p	c #A6AAC2",
"q	c #525EA2",
"r	c #D5D6D9",
"s	c #273273",
"t	c #6A76A2",
"u	c #566296",
"v	c #666A96",
"w	c #4B5A91",
"x	c #414E8E",
"y	c #525A8A",
"z	c #9AA2BA",
"     /55n!.     ",
"   =qxh5s44!.   ",
"  y3a$$ocnsh!0  ",
" =3axxp&m2syj4. ",
" a7ll68<m>kfvsn ",
"/x6r11e;mf,[,fsd",
"5fpi{1{;mjv>|uh)",
"ssz{{{-bm$>k>gjh",
"nn8{e{-bmxw,|k$j",
"!4*e<ir&m>7w,u$[",
".4l9:<@bm]l](wx'",
" !)h[#~bm,tk(w> ",
" .!4shgbmuu7u|' ",
"  04)5jy#>|]wj  ",
"   .ns[f$xxx%   ",
"     dn[fh%     "};
