/* XPM */
static char * mini_gtop_xpm[] = {
"16 16 43 1",
" 	c None",
".	c #8C1E06",
"+	c #942E0C",
"@	c #9C3D11",
"#	c #A44D17",
"$	c #AC5C1C",
"%	c #B56B22",
"&	c #BD7B27",
"*	c #C58A2D",
"=	c #CD9932",
"-	c #D5A938",
";	c #DEB83D",
">	c #E6C743",
",	c #EED748",
"'	c #F6E64E",
")	c #660462",
"!	c #701261",
"~	c #7B1F60",
"{	c #862C60",
"]	c #91395F",
"^	c #9C465E",
"/	c #A7535E",
"(	c #B2605D",
"_	c #BD6D5C",
":	c #C87A5C",
"<	c #D3875B",
"[	c #DE945A",
"}	c #E9A15A",
"|	c #F4AE59",
"1	c #0E6605",
"2	c #176F17",
"3	c #207929",
"4	c #28833B",
"5	c #318D4D",
"6	c #39975E",
"7	c #42A170",
"8	c #4BAB82",
"9	c #53B594",
"0	c #5CBFA6",
"a	c #64C9B7",
"b	c #6DD3C9",
"c	c #75DDDB",
"d	c #7EE7ED",
"                ",
" .+@#$%&*=-;>,' ",
" .+@#$%&*=-;>,' ",
" .+@#$%&*=-;>,' ",
" .+@#$%&*=-;>,' ",
"                ",
" )!~{]^/(_:<[}| ",
" )!~{]^/(_:<[}| ",
" )!~{]^/(_:<[}| ",
" )!~{]^/(_:<[}| ",
"                ",
" 1234567890abcd ",
" 1234567890abcd ",
" 1234567890abcd ",
" 1234567890abcd ",
"                "};
