/* XPM */
static char * mini_vplay_xpm[] = {
"16 16 5 1",
" 	c None",
".	c black",
"X	c blue",
"o	c white",
"O	c red",
"                ",
"       .        ",
"       .        ",
"       X        ",
"      XXXXX     ",
"     X .   X    ",
"    X  .    X   ",
"...X.........XX.",
"   X o .  o   XX",
"  X    .        ",
"XX     .        ",
"o    OOOO      O",
"   OO  . O    O ",
"  O    .  OOOOo ",
" O     .        ",
" O              "};
