/* XPM */
static char * mini_applix_xpm[] = {
"16 16 10 1",
" 	c None",
".	c #0000D4",
"+	c #0E8AF7",
"@	c #000000",
"#	c #8BC3F4",
"$	c #808080",
"%	c #C0C0C0",
"&	c #FFFFFF",
"*	c #9B0932",
"=	c #ED1250",
".......+@.......",
".......++@@.....",
".......++@.@@...",
"......+#++@..@@.",
".....@@@@@@@...@",
"..............@.",
"..............@.",
".............@..",
"..$$$$$$$$$$$@$@",
"..$%$&&@%**%%%%@",
".$%$&&&@%*=**@%@",
".$%$&&@%*====@$@",
"$%@@@@@%@@@@@$$@",
"$&&&&&&&&&&&&$@.",
"$$$$$$$$$$$$$$@.",
"@@@@@@@@@@@@@@.."};
