/* XPM */
static char * mini_runq_xpm[] = {
"16 16 47 1",
" 	c None",
".	c #000000",
"+	c #FFFF00",
"@	c #131300",
"#	c #7A7A7B",
"$	c #242400",
"%	c #DDDD00",
"&	c #E9E900",
"*	c #3D3D00",
"=	c #7A7A7A",
"-	c #393900",
";	c #CCCC00",
">	c #FEFE00",
",	c #DBDB00",
"'	c #474700",
")	c #FAFA00",
"!	c #191900",
"~	c #FCFC00",
"{	c #B4B400",
"]	c #C7C700",
"^	c #141400",
"/	c #585800",
"(	c #939300",
"_	c #787800",
":	c #5A5A00",
"<	c #717100",
"[	c #929200",
"}	c #5E5E00",
"|	c #181800",
"1	c #535300",
"2	c #CDCD00",
"3	c #B6B600",
"4	c #B7B700",
"5	c #F1F100",
"6	c #DEDE00",
"7	c #646400",
"8	c #2B2B00",
"9	c #232300",
"0	c #252500",
"a	c #292900",
"b	c #262600",
"c	c #777777",
"d	c #767677",
"e	c #808080",
"f	c #FF8989",
"g	c #FF0000",
"h	c #606060",
"                ",
" ............   ",
" .++++++++++@#  ",
" .$%++++++&*.=  ",
" .+-;+>>+,')!=  ",
" .+~.{++;.]+^=  ",
" .+/(_::<[}+|=  ",
" .12++345+67.=  ",
" ..890aab98..=  ",
"  cddddddddcce  ",
"                ",
"     fff        ",
"fffffggfffffffff",
"gggggggggggggggg",
".....gg.........",
"    h..         "};
