/* XPM */
static char * mini_povfront_xpm[] = {
"16 16 97 2",
"  	c white",
". 	c #D1CAD8",
"X 	c #D7D2E0",
"o 	c #DED7E0",
"O 	c #E1DDE9",
"+ 	c #E7E4EC",
"@ 	c #EDE8EB",
"# 	c #EFEDF0",
"$ 	c #F0EEF3",
"% 	c #E9E3E8",
"& 	c #BAB4B9",
"* 	c #DFDBDB",
"= 	c #DBD2D9",
"- 	c #BFB7CE",
"; 	c #C6BED0",
": 	c #DED8E3",
"> 	c #E1DAE1",
", 	c #DED5DA",
"< 	c #EAE4E9",
"1 	c #E5DFE4",
"2 	c #E2DDDB",
"3 	c #AA9C95",
"4 	c #AA9E9D",
"5 	c #C6BDCE",
"6 	c #CFC6D4",
"7 	c #D7CFD8",
"8 	c #E2DADC",
"9 	c #A19992",
"0 	c #A09792",
"q 	c #714F43",
"w 	c #81625E",
"e 	c #8B6B73",
"r 	c #DCD2D3",
"t 	c #CDC2C7",
"y 	c #A89A94",
"u 	c #876A67",
"i 	c #5C423D",
"p 	c #937475",
"a 	c #7D5D59",
"s 	c #A38A87",
"d 	c #B79B93",
"f 	c #6C4E48",
"g 	c #94766E",
"h 	c #C1AFA9",
"j 	c #E5E1E2",
"k 	c #A69B9C",
"l 	c #58382D",
"z 	c #7C5B49",
"x 	c #9C7550",
"c 	c #4C3530",
"v 	c #745752",
"b 	c #997663",
"n 	c #6D453D",
"m 	c #4F362B",
"M 	c #B19F98",
"N 	c #A89B98",
"B 	c #3C2826",
"V 	c #5A3F30",
"C 	c #563B30",
"Z 	c #6F5450",
"A 	c #A6909D",
"S 	c #D3CAD3",
"D 	c #5B3F38",
"F 	c #442F29",
"G 	c #B7A3A9",
"H 	c #3F2A28",
"J 	c #BDADBC",
"K 	c #9F9393",
"L 	c #5F4332",
"P 	c #7D5B43",
"I 	c #624535",
"U 	c #957972",
"Y 	c #9C8279",
"T 	c #6C4C3B",
"R 	c #876D68",
"E 	c #B2A5AD",
"W 	c #9A9497",
"Q 	c #C6C6C6",
"! 	c #AFACAB",
"~ 	c #817877",
"^ 	c #91837A",
"/ 	c #948579",
"( 	c #97897F",
") 	c #9D8F88",
"_ 	c #9B8D83",
"` 	c #857C7F",
"' 	c #897F82",
"] 	c #B2A399",
"[ 	c #B5A79C",
"{ 	c #BEADA2",
"} 	c #C6B4A8",
"| 	c #C9B7A6",
" .	c #C5B4A6",
"..	c #D5C7C0",
"X.	c #C0AFA2",
"o.	c #A59D94",
"O.	c #ABA0A0",
"                                ",
"                                ",
"  . X o O + @ # $ $ # @ @ %     ",
"& & & & & & & & & & & & & & & & ",
"  * = o - ; = : > > * , < 1     ",
"  2 3 4 5 6 7 , : > 8 , @ &     ",
"  2 9 0 q w e r r t y u y 0     ",
"  2 0 y i p a s d f g g h 4     ",
"  j k 4 l z x c v b n m y 4     ",
"  * M N B c V C Z V C A S k     ",
"  2 9 4 B D V F G G H J K K     ",
"  * 9 3 V L P I U Y T R E W     ",
"Q ! ~ ~ ^ / / ( ) _ / ~ ` ' Q Q ",
"  2 ] [ { } |  ...X.o.0 O.K     ",
"                                ",
"                                "};
