/* XPM */
static char * mini_gtt_xpm[] = {
"16 16 137 2",
"  	c None",
". 	c #9C8370",
"+ 	c #8F7866",
"@ 	c #9B806E",
"# 	c #A28B77",
"$ 	c #957967",
"% 	c #AC927E",
"& 	c #AC947F",
"* 	c #846B5C",
"= 	c #9B8270",
"- 	c #806A5B",
"; 	c #70574A",
"> 	c #413F3E",
", 	c #6C6967",
"' 	c #947967",
") 	c #8F7564",
"! 	c #694E43",
"~ 	c #31302D",
"{ 	c #3D3C39",
"] 	c #47423D",
"^ 	c #6C574D",
"/ 	c #B29586",
"( 	c #77706C",
"_ 	c #8A6E5E",
": 	c #846959",
"< 	c #60453B",
"[ 	c #3C3A37",
"} 	c #7A7974",
"| 	c #9B9792",
"1 	c #9F9991",
"2 	c #B3AEA5",
"3 	c #C3A695",
"4 	c #987264",
"5 	c #906859",
"6 	c #947866",
"7 	c #70564A",
"8 	c #48332B",
"9 	c #343330",
"0 	c #A09E9A",
"a 	c #E4E2DE",
"b 	c #C0AAA6",
"c 	c #B2908D",
"d 	c #CAC4BD",
"e 	c #D2CAC0",
"f 	c #7F5F53",
"g 	c #956B5B",
"h 	c #6F4E42",
"i 	c #8F7161",
"j 	c #674E42",
"k 	c #706E6A",
"l 	c #E3E2DF",
"m 	c #D3D1C9",
"n 	c #C1B0A9",
"o 	c #B08E8A",
"p 	c #CAC3BD",
"q 	c #E2DFD7",
"r 	c #A68C80",
"s 	c #80584B",
"t 	c #80574B",
"u 	c #7B6152",
"v 	c #5F453A",
"w 	c #97948E",
"x 	c #D8D6CF",
"y 	c #CFCCC3",
"z 	c #B9AAA4",
"A 	c #A17E7C",
"B 	c #CEC8C2",
"C 	c #E8E5DC",
"D 	c #B0A299",
"E 	c #6D483D",
"F 	c #482E28",
"G 	c #674F43",
"H 	c #523931",
"I 	c #A8A59D",
"J 	c #D3D0C7",
"K 	c #D2CEC5",
"L 	c #776562",
"M 	c #7A6967",
"N 	c #C9C3BD",
"O 	c #ECEAE1",
"P 	c #B5A89F",
"Q 	c #52342C",
"R 	c #4C3028",
"S 	c #37231E",
"T 	c #6A4F43",
"U 	c #3F2A24",
"V 	c #ABA89F",
"W 	c #D5D1C9",
"X 	c #D4CDC4",
"Y 	c #946E6F",
"Z 	c #C6BFB9",
"` 	c #DEDAD3",
" .	c #F1EEE6",
"..	c #A09188",
"+.	c #432822",
"@.	c #462923",
"#.	c #63483D",
"$.	c #412A24",
"%.	c #9F9C94",
"&.	c #DAD6CD",
"*.	c #CBBFB9",
"=.	c #CDC4BD",
"-.	c #D5D0CA",
";.	c #F0EDE5",
">.	c #F0ECE4",
",.	c #65504A",
"'.	c #341D18",
").	c #331C18",
"!.	c #3A2822",
"~.	c #3E2822",
"{.	c #E5E1D9",
"].	c #EEEBE3",
"^.	c #F4F1E9",
"/.	c #B5ABA4",
"(.	c #291714",
"_.	c #291411",
":.	c #23110E",
"<.	c #53372F",
"[.	c #938980",
"}.	c #E1DCD2",
"|.	c #EEECE3",
"1.	c #F1EDE5",
"2.	c #CCC2B9",
"3.	c #312420",
"4.	c #1E110F",
"5.	c #190D0B",
"6.	c #452D26",
"7.	c #866254",
"8.	c #99786A",
"9.	c #8D7A70",
"0.	c #8B7469",
"a.	c #5F463C",
"b.	c #362721",
"c.	c #201713",
"d.	c #0F0B09",
"e.	c #040302",
"f.	c #452C26",
"    . +                         ",
"  @ # $                         ",
"  % & *                         ",
"  = - ;         >     ,         ",
"  ' ) !       ~ { ] ^ / (       ",
"  _ : <     [ } | 1 2 3 4 5     ",
"  6 7 8   9 0 a b c d e f g h   ",
"  i j     k l m n o p q r s t   ",
"  u v     w x y z A B C D E F   ",
"  G H     I J K L M N O P Q R S ",
"  T U     V W X Y Z `  ...+.@.  ",
"  #.$.    %.&.*.=.-.;.>.,.'.).  ",
"  !.~.      J {.{.].^./.(._.:.  ",
"  <.        [.}.|.1.2.3.4.5.    ",
"  6.        7.8.9.0.a.b.c.d.e.  ",
"  f.                            "};
