/* XPM */
static char * mini_nscal_xpm[] = {
"16 16 77 1",
" 	c None",
".	c #204CD2",
"+	c #416DB2",
"@	c #31468A",
"#	c #BFBFBF",
"$	c #A0A0A0",
"%	c #3146C9",
"&	c #424081",
"*	c #2D58AA",
"=	c #AEAFAE",
"-	c #DEDEDE",
";	c #EEEFEE",
">	c #293E9A",
",	c #3C3CC7",
"'	c #BDBEBD",
")	c #CECECE",
"!	c #FFFFFF",
"~	c #E0E0A0",
"{	c #1C32C1",
"]	c #1818B0",
"^	c #FFBFBF",
"/	c #B0C68A",
"(	c #2D2CB9",
"_	c #252489",
":	c #8E8ECE",
"<	c #EEAFAF",
"[	c #A2A0A2",
"}	c #4E4C9A",
"|	c #2D2C79",
"1	c #575657",
"2	c #313062",
"3	c #5E5FDE",
"4	c #FF8080",
"5	c #DE5F5E",
"6	c #C1C0C1",
"7	c #929092",
"8	c #EEEFAF",
"9	c #FF8040",
"0	c #D6D5D6",
"a	c #DEDE9E",
"b	c #FFFF80",
"c	c #FFBF80",
"d	c #C1C081",
"e	c #D09090",
"f	c #E0E060",
"g	c #CECE8E",
"h	c #8C8B98",
"i	c #EE6F6F",
"j	c #838183",
"k	c #9E9F5E",
"l	c #EEEF6F",
"m	c #7D7C89",
"n	c #969596",
"o	c #354A72",
"p	c #888760",
"q	c #EEAF2F",
"r	c #B0B0B0",
"s	c #393892",
"t	c #5A5872",
"u	c #EEEF2F",
"v	c #777790",
"w	c #B0B071",
"x	c #212041",
"y	c #181852",
"z	c #0C0C39",
"A	c #424062",
"B	c #6E6D7B",
"C	c #484860",
"D	c #DEDE5E",
"E	c #626162",
"F	c #424042",
"G	c #2D2C39",
"H	c #181831",
"I	c #000000",
"J	c #212021",
"K	c #505050",
"L	c #717071",
"...+...........@",
"..+#$%........& ",
"*%=-;#%......&  ",
">,')!!~%{...&   ",
".]'-!^!/(]{@    ",
"._:--<^^[}|1    ",
".23-)!456$-$    ",
".>3)'!54;7;^#   ",
".>]'-89;4[-4^0  ",
".{]')a#bcd#4<e  ",
"..23;)#$fgh!i4j ",
"..23)$)8klm!<4n ",
"..o]=jm=-bpakqr ",
"..s_jjjtm$uvfw8j",
".&xyzABjtttC$gDn",
"@    EFFAGHHIJKL"};
