/* XPM */
static char * mini_xbiff_xpm[] = {
"16 16 5 1",
" 	c None",
".	c blue",
"X	c yellow",
"o	c black",
"O	c white",
"       ..       ",
"       .X..     ",
"      .XXXX..   ",
"      .XXXXXX.. ",
"     ..XXXXXX.  ",
"     . ..XXXX.  ",
"    .    ..X.   ",
"    .      ..   ",
"   .            ",
"   .            ",
"  .  ooooooooooo",
"  .  ooOOOOOOOoo",
" .   oOooOOOooOo",
" .   oOOOoOoOOOo",
".    oOOOOoOOOOo",
".    ooooooooooo"};
