/* XPM */
static char * mini_animate_xpm[] = {
"16 16 5 1",
" 	c None",
".	c #E01A9B",
"+	c #BC1AE0",
"@	c #701AE0",
"#	c #1A7AE0",
".........       ",
".........       ",
"..+++++++++     ",
"..+++++++++     ",
"..++@@@@@@@@@   ",
"..++@@@@@@@@@   ",
"..++@@######### ",
"..++@@######### ",
"..++@@######### ",
"  ++@@######### ",
"  ++@@######### ",
"    @@######### ",
"    @@######### ",
"      ######### ",
"      ######### ",
"                "};
