/* XPM */
static char * mini_xwf_xpm[] = {
"16 16 6 1",
" 	c None",
".	c #77B46F",
"X	c #BFE6AD",
"o	c #00004A",
"O	c white",
"+	c #0C0C0C",
"    ..........  ",
"   .XXXXXXX..o  ",
"  ...........o  ",
"  .OOOOOOOo..o  ",
"  .OXXXXXXo..o  ",
"  .OX++XXXo..o  ",
"  .OXXXXXXo..o  ",
"  .OXXXXXXo..o  ",
"  .oooooooo..o  ",
"  .OOOOOOOo..o  ",
"  .OXXXXXXo..o  ",
"  .OX++XXXo..o  ",
"  .OXXXXXXo.o   ",
"  .OXXXXXXoo    ",
"  .oooooooo     ",
"                "};
