/* XPM */
static char * mini_gzip_xpm[] = {
"15 16 5 1",
" 	c None",
".	c black",
"X	c yellow",
"o	c gray",
"O	c blue",
"   .XXXXXX.    ",
"   ........    ",
"     ....      ",
"     oo..      ",
"     ..oo      ",
"     oo..      ",
"     ..oo      ",
"     oo..      ",
"     ..oo      ",
"     oo..      ",
"    OOOOOO     ",
"     OOOO      ",
" ...      .... ",
"    ......     ",
"  ...........  ",
"               "};
