/* XPM */
static char * mini_sweep_xpm[] = {
"16 16 221 2",
"  	c None",
". 	c #E3D635",
"+ 	c #E0D23A",
"@ 	c #D0BA50",
"# 	c #D6C347",
"$ 	c #D5C249",
"% 	c #D0BB50",
"& 	c #CFB951",
"* 	c #CAB159",
"= 	c #E5D932",
"- 	c #D8C645",
"; 	c #E2D438",
"> 	c #D1BC4E",
", 	c #D4BF4B",
"' 	c #DFD03B",
") 	c #E2D537",
"! 	c #D4C14A",
"~ 	c #E6D723",
"{ 	c #D1C233",
"] 	c #C0AE43",
"^ 	c #B3A04F",
"/ 	c #C4AA4C",
"( 	c #C6A950",
"_ 	c #C7AA4E",
": 	c #D9C436",
"< 	c #E9DB1F",
"[ 	c #E3D328",
"} 	c #DCC831",
"| 	c #EFE417",
"1 	c #EADC1E",
"2 	c #DFCE2B",
"3 	c #E1D129",
"4 	c #D1B940",
"5 	c #D2C52E",
"6 	c #8A8654",
"7 	c #ABA440",
"8 	c #9A8E53",
"9 	c #938858",
"0 	c #D0BB3E",
"a 	c #D9C632",
"b 	c #E6DD1A",
"c 	c #CAB83C",
"d 	c #B7AD3C",
"e 	c #B0A641",
"f 	c #AD9D4E",
"g 	c #A89E47",
"h 	c #9B9649",
"i 	c #C0B735",
"j 	c #D6C139",
"k 	c #ACA343",
"l 	c #7F7C5B",
"m 	c #F2E911",
"n 	c #E1D226",
"o 	c #DFD423",
"p 	c #ACA63E",
"q 	c #BAB632",
"r 	c #D7CC27",
"s 	c #A19B46",
"t 	c #99944A",
"u 	c #BDAF3F",
"v 	c #97934B",
"w 	c #B6AB3F",
"x 	c #928E4E",
"y 	c #BBB13A",
"z 	c #D5C62F",
"A 	c #A49B48",
"B 	c #7D785E",
"C 	c #E8DC1D",
"D 	c #EDE710",
"E 	c #E8E116",
"F 	c #BBB435",
"G 	c #9B944C",
"H 	c #AB9C4D",
"I 	c #888257",
"J 	c #8D8559",
"K 	c #98904F",
"L 	c #988C55",
"M 	c #918C4F",
"N 	c #CEC032",
"O 	c #BCAD40",
"P 	c #838057",
"Q 	c #847F59",
"R 	c #7D795D",
"S 	c #908856",
"T 	c #AD9C4E",
"U 	c #837C5D",
"V 	c #9F9253",
"W 	c #96924C",
"X 	c #A29B47",
"Y 	c #BBB239",
"Z 	c #CFB743",
"` 	c #A0954E",
" .	c #B5AB3D",
"..	c #A69D48",
"+.	c #B1A544",
"@.	c #D5BF3C",
"#.	c #BFB832",
"$.	c #BAAA44",
"%.	c #C7B242",
"&.	c #7B785E",
"*.	c #AB9D4A",
"=.	c #777460",
"-.	c #A3974E",
";.	c #ACA83D",
">.	c #A49D46",
",.	c #938B53",
"'.	c #9A9150",
").	c #D1C035",
"!.	c #BAAE3F",
"~.	c #D5C432",
"{.	c #AA9B4D",
"].	c #D0B842",
"^.	c #F1E714",
"/.	c #F5ED0F",
"(.	c #F4EC0F",
"_.	c #878455",
":.	c #B9B235",
"<.	c #79765E",
"[.	c #ABA144",
"}.	c #A19C45",
"|.	c #C1B439",
"1.	c #BFB439",
"2.	c #CBC12F",
"3.	c #F1E614",
"4.	c #DFCD2E",
"5.	c #E0CE2C",
"6.	c #B9AB42",
"7.	c #D0B841",
"8.	c #CBB83C",
"9.	c #D8C436",
"0.	c #898258",
"a.	c #BBB533",
"b.	c #B9B334",
"c.	c #878356",
"d.	c #CAC22C",
"e.	c #D6C72F",
"f.	c #E1CF2B",
"g.	c #E2D02A",
"h.	c #FAF508",
"i.	c #DAC634",
"j.	c #DCC832",
"k.	c #9D964A",
"l.	c #7A765F",
"m.	c #BDA74A",
"n.	c #A49452",
"o.	c #7C775F",
"p.	c #D4BE3A",
"q.	c #EDE416",
"r.	c #CBB73E",
"s.	c #EBDE1C",
"t.	c #DFCE2C",
"u.	c #E2D129",
"v.	c #DAC534",
"w.	c #FBF408",
"x.	c #D8C337",
"y.	c #E2D228",
"z.	c #E9DC1F",
"A.	c #B2AE35",
"B.	c #7C795B",
"C.	c #7A775D",
"D.	c #868256",
"E.	c #BEB831",
"F.	c #D1BA3F",
"G.	c #EDE219",
"H.	c #C9AE4B",
"I.	c #D4BD3D",
"J.	c #E3D228",
"K.	c #DBC733",
"L.	c #F1E813",
"M.	c #DCC930",
"N.	c #E7D822",
"O.	c #D5BE3B",
"P.	c #E4D426",
"Q.	c #948C53",
"R.	c #B2A14B",
"S.	c #CFB741",
"T.	c #E8DB20",
"U.	c #E8DA21",
"V.	c #D5BF3B",
"W.	c #E1D02A",
"X.	c #DECB2F",
"Y.	c #E4D525",
"Z.	c #CAAF4A",
"`.	c #CDB346",
" +	c #D7C238",
".+	c #D2BA3F",
"++	c #F5ED0E",
"@+	c #D8C238",
"#+	c #EADD1D",
"$+	c #CFB643",
"%+	c #E9DB20",
"&+	c #E8DA20",
"*+	c #F2E813",
"=+	c #F6EF0D",
"-+	c #F7EF0C",
";+	c #ECE01B",
">+	c #E4D427",
",+	c #DDCA30",
"'+	c #CBB049",
")+	c #F3E912",
"!+	c #E7D921",
"~+	c #DCC931",
"{+	c #DFCD2D",
"]+	c #DECC2E",
"^+	c #E5D525",
"/+	c #C8AB4E",
"(+	c #DDC930",
"_+	c #E2D229",
":+	c #EEE219",
"<+	c #D9C535",
"[+	c #D1BA40",
"}+	c #CAAE4B",
"|+	c #CBAF4A",
"1+	c #CAAE4A",
"2+	c #DDCB2F",
"3+	c #DDC931",
"4+	c #D3BC3D",
"5+	c #DDCA2F",
"6+	c #EADD1E",
"7+	c #FAF308",
"8+	c #EFE317",
". + @ # $ % & * = - ; > , ' ) ! ",
"~ { ] ^ / ( _ : < [ } | 1 2 3 4 ",
"5 6 7 8 9 0 a b c d e f g h i j ",
"k l m n o p q r s t u v w x y z ",
"A B C D E F G H I J K L M N e y ",
"O P Q R S T U V W X Y Z `  ...+.",
"@.#.$.%.&.*.=.-.;.>.,.'.).!.~.{.",
"].^./.(._.:.<.[.}.|.1.2.3.4.5.6.",
"7.8.2 9.0.a.b.c.d.e.f.g.h.i.f.j.",
"k.l.m.n.o.p.q.r.s.t.u.v.w.x.y.z.",
"A.B.C.D.E.F.G.H.I.u.J.K.L.M.N.O.",
"P.Q.R.S.T.K.U.V.: W.X.5.P.Y.: < ",
"Z.`. +i..+u.J.z.++X.u.W.@+#+$+%+",
"&+*+=+-+i.u.5.;+4.[ >+P.V.;+,+'+",
")+!+: ~+< {+]+^+/+P.(+_+i.;+:+<+",
"[+}+|+1+&+2+3+t.4+X.X.5+]+6+7+8+"};
