/* XPM */
static char * mini_gnome_help_browser_xpm[] = {
"16 16 62 1",
" 	c None",
".	c #1F1F1F",
"+	c #454545",
"@	c #535353",
"#	c #484848",
"$	c #242424",
"%	c #B0B0B0",
"&	c #EDEDED",
"*	c #F9F9F9",
"=	c #FEFEFE",
"-	c #FAFAFA",
";	c #EEEEEE",
">	c #B9B9B9",
",	c #343434",
"'	c #2E2E2E",
")	c #EBEBEB",
"!	c #FFFFFF",
"~	c #909090",
"{	c #393939",
"]	c #6C6C6C",
"^	c #F8F8F8",
"/	c #3C3C3C",
"(	c #000000",
"_	c #9C9C9C",
":	c #BFBFBF",
"<	c #757575",
"[	c #B8B8B8",
"}	c #C1C1C1",
"|	c #A0A0A0",
"1	c #404040",
"2	c #DFDFDF",
"3	c #DDDDDD",
"4	c #959595",
"5	c #FDFDFD",
"6	c #6F6F6F",
"7	c #B1B1B1",
"8	c #212121",
"9	c #E3E3E3",
"0	c #D7D7D7",
"a	c #767676",
"b	c #E9E9E9",
"c	c #2B2B2B",
"d	c #313131",
"e	c #E2E2E2",
"f	c #E1E1E1",
"g	c #FBFBFB",
"h	c #A5A5A5",
"i	c #272727",
"j	c #232323",
"k	c #A7A7A7",
"l	c #F6F6F6",
"m	c #CACACA",
"n	c #0F0F0F",
"o	c #040404",
"p	c #333333",
"q	c #939393",
"r	c #696969",
"s	c #010101",
"t	c #020202",
"u	c #2F2F2F",
"v	c #686868",
"w	c #2C2C2C",
"                ",
"                ",
"     .+@#$      ",
"   $%&*=-;>,    ",
"  ')!!~{]^!*/(  ",
"  _!!!:*<>!![(  ",
"  }!!!!|12!!3(( ",
"  4!!!56)!!!7(( ",
"  89!!0a!!!bc(  ",
"   de!-f!ghi((  ",
"    jkl!!mn((   ",
"     opq;-rs(   ",
"       (tuvw(   ",
"         ((((   ",
"                ",
"                "};
