/* XPM */
static char * mini_gnome_ppp_xpm[] = {
"16 16 165 2",
"  	c None",
". 	c #374B54",
"+ 	c #3F5151",
"@ 	c #495147",
"# 	c #305D8D",
"$ 	c #90A5AF",
"% 	c #7E999D",
"& 	c #8E9D8E",
"* 	c #97A17F",
"= 	c #7F8D6E",
"- 	c #81885E",
"; 	c #383925",
"> 	c #5F8BB3",
", 	c #C9D4C5",
"' 	c #FCFBE0",
") 	c #F1F2D3",
"! 	c #9AB0B4",
"~ 	c #9CA6A2",
"{ 	c #BAB194",
"] 	c #C4BB91",
"^ 	c #BBB37A",
"/ 	c #685F3C",
"( 	c #335E87",
"_ 	c #CEDBD6",
": 	c #FCFCE8",
"< 	c #FCFCDA",
"[ 	c #FCFBD8",
"} 	c #FBFAD2",
"| 	c #F4F5D9",
"1 	c #D5D4A3",
"2 	c #EEE7A8",
"3 	c #BAB182",
"4 	c #9A9163",
"5 	c #2E2C21",
"6 	c #4880B6",
"7 	c #C2C9A7",
"8 	c #E6E8B9",
"9 	c #F5F6D1",
"0 	c #FAFADD",
"a 	c #FCFBD5",
"b 	c #FCFBD2",
"c 	c #B8BA9A",
"d 	c #EDE4A2",
"e 	c #B2AD81",
"f 	c #7C7A5B",
"g 	c #5D5C46",
"h 	c #224160",
"i 	c #4B82B8",
"j 	c #6A96B8",
"k 	c #789DB0",
"l 	c #A2BC9B",
"m 	c #A6C195",
"n 	c #C7CA99",
"o 	c #E1D09B",
"p 	c #C1B48C",
"q 	c #B0B08F",
"r 	c #6D7971",
"s 	c #364550",
"t 	c #65665A",
"u 	c #323232",
"v 	c #244261",
"w 	c #487EB4",
"x 	c #5085B9",
"y 	c #5484B0",
"z 	c #A3B099",
"A 	c #B0B78E",
"B 	c #B6B488",
"C 	c #C1B58A",
"D 	c #CEBA85",
"E 	c #A9A482",
"F 	c #2C475E",
"G 	c #3D3E40",
"H 	c #7E7E7F",
"I 	c #A4A4A3",
"J 	c #4C4C4B",
"K 	c #1F3C5A",
"L 	c #4274A9",
"M 	c #4A7BAD",
"N 	c #4C7BA5",
"O 	c #A8B1AA",
"P 	c #DCC695",
"Q 	c #C5B586",
"R 	c #B4A67C",
"S 	c #687373",
"T 	c #2D4E69",
"U 	c #31485B",
"V 	c #393A3A",
"W 	c #494949",
"X 	c #949493",
"Y 	c #626263",
"Z 	c #0C0C0C",
"` 	c #376699",
" .	c #406E9E",
"..	c #436D96",
"+.	c #CEC8A3",
"@.	c #DCCE98",
"#.	c #ABAC7E",
"$.	c #9D9872",
"%.	c #304F68",
"&.	c #24415C",
"*.	c #56626B",
"=.	c #8D8D8D",
"-.	c #4B4B4C",
";.	c #4E4E4F",
">.	c #383838",
",.	c #040404",
"'.	c #29537F",
").	c #35618F",
"!.	c #39628A",
"~.	c #B3B6A1",
"{.	c #D9CA94",
"].	c #A2A076",
"^.	c #4E6269",
"/.	c #565F5F",
"(.	c #294053",
"_.	c #868C8F",
":.	c #B2B2B3",
"<.	c #8E8E8F",
"[.	c #474747",
"}.	c #141414",
"|.	c #000000",
"1.	c #112134",
"2.	c #274F79",
"3.	c #2A5178",
"4.	c #607782",
"5.	c #B2A583",
"6.	c #586269",
"7.	c #234263",
"8.	c #324755",
"9.	c #203C55",
"0.	c #57666F",
"a.	c #BBBBBB",
"b.	c #333334",
"c.	c #010101",
"d.	c #17273B",
"e.	c #234064",
"f.	c #1F4474",
"g.	c #21436E",
"h.	c #1F3F64",
"i.	c #203F5C",
"j.	c #203F58",
"k.	c #1F3E57",
"l.	c #6F7B84",
"m.	c #8B8B8B",
"n.	c #2A2A2A",
"o.	c #0A131E",
"p.	c #1A304C",
"q.	c #1D3A5B",
"r.	c #1F3D5C",
"s.	c #1F3C55",
"t.	c #1B3751",
"u.	c #132737",
"v.	c #898B8C",
"w.	c #636363",
"x.	c #020202",
"y.	c #010203",
"z.	c #05090E",
"A.	c #060C13",
"B.	c #050B10",
"C.	c #030508",
"D.	c #0F0F10",
"E.	c #737372",
"F.	c #151515",
"G.	c #2F2F30",
"H.	c #444443",
"          . + @                 ",
"      # $ % & * = - ;           ",
"    > , ' ) ! ~ { ] ^ /         ",
"  ( _ : < [ } | 1 2 3 4 5       ",
"  6 7 8 9 0 a b c d e f g       ",
"h i j k l m n o p q r s t u     ",
"v w x y z A B C D E F G H I J   ",
"K L M N O P Q R S T U V W X Y Z ",
"  `  ...+.@.#.$.%.&.*.=.-.;.>.,.",
"  '.).!.~.{.].^./.(._.:.<.[.}.|.",
"  1.2.3.4.5.6.7.8.9.0.a.H b.c.  ",
"    d.e.f.g.h.i.j.k.l.m.n.,.|.  ",
"      o.p.q.r.s.t.u.v.w.x.|.    ",
"        y.z.A.B.C.D.E.F.|.      ",
"                  G.H.x.        ",
"                                "};
