/* XPM */
static char * mini_blender_xpm[] = {
"16 16 231 2",
"  	c None",
". 	c #8191D4",
"+ 	c #7785C1",
"@ 	c #6671AA",
"# 	c #7A86BF",
"$ 	c #8D9BD8",
"% 	c #909DD9",
"& 	c #8E9BD5",
"* 	c #5C6075",
"= 	c #9294B1",
"- 	c #92A1D8",
"; 	c #94A5DE",
"> 	c #8993C7",
", 	c #959FCF",
"' 	c #777EAE",
") 	c #767FB2",
"! 	c #6F77A3",
"~ 	c #82859F",
"{ 	c #959DC8",
"] 	c #5B617A",
"^ 	c #B9BAC3",
"/ 	c #909DD3",
"( 	c #5E699D",
"_ 	c #8793C9",
": 	c #838CBA",
"< 	c #656E9E",
"[ 	c #636C96",
"} 	c #83848C",
"| 	c #A0A4BD",
"1 	c #7582BF",
"2 	c #7F8092",
"3 	c #7B88C3",
"4 	c #5F6DA5",
"5 	c #8A93C3",
"6 	c #646B92",
"7 	c #717A98",
"8 	c #7887C7",
"9 	c #6976A9",
"0 	c #7E829A",
"a 	c #808FD0",
"b 	c #747FB1",
"c 	c #7684BE",
"d 	c #8C9AD0",
"e 	c #8F9FD9",
"f 	c #93A4DE",
"g 	c #92A3DD",
"h 	c #8C99D1",
"i 	c #7D88BD",
"j 	c #545667",
"k 	c #A3A5B0",
"l 	c #9A9FB4",
"m 	c #69739D",
"n 	c #687097",
"o 	c #757D9F",
"p 	c #BCBFCA",
"q 	c #DDDFE0",
"r 	c #DFE2DF",
"s 	c #D5D8E2",
"t 	c #B8BCD7",
"u 	c #9DA8DA",
"v 	c #9BAAE0",
"w 	c #AAAFD3",
"x 	c #7C83A5",
"y 	c #6B7289",
"z 	c #5D627D",
"A 	c #6C7183",
"B 	c #636A82",
"C 	c #7A7C89",
"D 	c #EEF1DC",
"E 	c #EBFF8A",
"F 	c #E0FE4A",
"G 	c #CDF232",
"H 	c #A6C22E",
"I 	c #A1A885",
"J 	c #C2C2D1",
"K 	c #97A4D7",
"L 	c #686D87",
"M 	c #696C7D",
"N 	c #73788D",
"O 	c #5B6486",
"P 	c #525A84",
"Q 	c #686C7B",
"R 	c #EDF3CA",
"S 	c #E4FF59",
"T 	c #DCFF3E",
"U 	c #D2F934",
"V 	c #C9F227",
"W 	c #C2EB1C",
"X 	c #AFD512",
"Y 	c #778056",
"Z 	c #A7AAC4",
"` 	c #8F9EDA",
" .	c #474A61",
"..	c #7C7C81",
"+.	c #9C9DA4",
"@.	c #7C8293",
"#.	c #464C6C",
"$.	c #CBCBC7",
"%.	c #E1FD5F",
"&.	c #D7FD38",
"*.	c #A8C829",
"=.	c #6D4521",
"-.	c #913E26",
";.	c #AC921D",
">.	c #B8E110",
",.	c #88A410",
"'.	c #96979F",
").	c #909CD0",
"!.	c #576081",
"~.	c #555D81",
"{.	c #576087",
"].	c #5A6289",
"^.	c #696D7D",
"/.	c #E5F4A7",
"(.	c #C5EC26",
"_.	c #9FBF20",
":.	c #341118",
"<.	c #8B102A",
"[.	c #CD2041",
"}.	c #E22246",
"|.	c #B7801E",
"1.	c #AAD307",
"2.	c #68734E",
"3.	c #8F9BCB",
"4.	c #656D88",
"5.	c #5C6585",
"6.	c #6D7389",
"7.	c #636B88",
"8.	c #6A707C",
"9.	c #C3E53E",
"0.	c #B8E11A",
"a.	c #4B5813",
"b.	c #490E1D",
"c.	c #9C142E",
"d.	c #F8617F",
"e.	c #FE7291",
"f.	c #D13539",
"g.	c #ABD405",
"h.	c #96B72D",
"i.	c #8494D4",
"j.	c #6C738D",
"k.	c #5F6785",
"l.	c #767A8B",
"m.	c #666E89",
"n.	c #616D72",
"o.	c #B4DE11",
"p.	c #B0D811",
"q.	c #333D0C",
"r.	c #3E101B",
"s.	c #90122B",
"t.	c #E24260",
"u.	c #F94E6F",
"v.	c #CA3F32",
"w.	c #A5CB05",
"x.	c #667827",
"y.	c #7580B7",
"z.	c #565F88",
"A.	c #576085",
"B.	c #5A6284",
"C.	c #606987",
"D.	c #474B59",
"E.	c #8AA810",
"F.	c #9FC608",
"G.	c #566A0B",
"H.	c #180B13",
"I.	c #640E20",
"J.	c #9D132E",
"K.	c #B41B33",
"L.	c #A48214",
"M.	c #7F9B05",
"N.	c #22242D",
"O.	c #7380BA",
"P.	c #5D6688",
"Q.	c #5A6384",
"R.	c #596284",
"S.	c #42465C",
"T.	c #4E5A25",
"U.	c #9ABD02",
"V.	c #99BD00",
"W.	c #47530A",
"X.	c #2F2C0F",
"Y.	c #5B4016",
"Z.	c #918A0F",
"`.	c #9DC201",
" +	c #374111",
".+	c #3B405F",
"++	c #7F90D3",
"@+	c #5E678B",
"#+	c #5E6786",
"$+	c #5B6485",
"%+	c #5B627F",
"&+	c #2E2F3A",
"*+	c #718A10",
"=+	c #96BB03",
"-+	c #9CC000",
";+	c #A4CA03",
">+	c #A3C800",
",+	c #98BA01",
"'+	c #47550F",
")+	c #27283A",
"!+	c #6D7BBB",
"~+	c #7C8DD2",
"{+	c #5F678D",
"]+	c #5E6687",
"^+	c #555C79",
"/+	c #2E3036",
"(+	c #546317",
"_+	c #7B9709",
":+	c #83A008",
"<+	c #64780D",
"[+	c #333B1C",
"}+	c #2F3142",
"|+	c #6B77AF",
"1+	c #7686CF",
"2+	c #7485CE",
"3+	c #616A98",
"4+	c #5E668E",
"5+	c #5E6788",
"6+	c #5C6487",
"7+	c #5B6484",
"8+	c #596282",
"9+	c #565D7D",
"0+	c #3A3E55",
"a+	c #2F303F",
"b+	c #2D2E3C",
"c+	c #34374C",
"d+	c #596084",
"e+	c #8290CA",
"f+	c #8696D7",
"g+	c #8292D5",
"h+	c #7D8DD3",
". + @ # $ % & * = - ; ; ; ; ; ; ",
"> , ' ) ! ~ { ] ^ / ; ; ; ; ; ; ",
"( _ : < [ } | 1 2 3 ; ; ; ; ; ; ",
"4 5 6 7 8 9 0 a b c d e f g ; ; ",
"h i j k l m n o p q r s t u v ; ",
"w x y z A B C D E F G H I J K ; ",
"L M N O P Q R S T U V W X Y Z ` ",
" ...+.@.#.$.%.&.*.=.-.;.>.,.'.).",
"!.~.{.].^./.(._.:.<.[.}.|.1.2.3.",
"4.5.6.7.8.9.0.a.b.c.d.e.f.g.h.i.",
"j.k.l.m.n.o.p.q.r.s.t.u.v.w.x.y.",
"z.A.B.C.D.E.F.G.H.I.J.K.L.M.N.O.",
"P.Q.R.5.S.T.U.V.W.X.Y.Z.`. +.+++",
"@+#+#+$+%+&+*+=+-+;+>+,+'+)+!+~+",
"{+$+]+Q.$+^+/+(+_+:+<+[+}+|+1+2+",
"3+4+5+6+7+8+9+0+a+b+c+d+e+f+g+h+"};
