/* XPM */
static char * mini_gcolorsel_xpm[] = {
"16 16 65 1",
" 	c None",
".	c #220A12",
"+	c #2A767A",
"@	c #C66A4A",
"#	c #7E2E42",
"$	c #B2926C",
"%	c #92AA92",
"&	c #2D3A35",
"*	c #938057",
"=	c #623222",
"-	c #4C8075",
";	c #D1B694",
">	c #329596",
",	c #1A4242",
"'	c #4E6C68",
")	c #5F8A89",
"!	c #B6D6BA",
"~	c #32121A",
"{	c #78CACC",
"]	c #D6C276",
"^	c #504634",
"/	c #763E2E",
"(	c #5A7672",
"_	c #5F5337",
":	c #9E523A",
"<	c #42191F",
"[	c #528E8E",
"}	c #9AB29A",
"|	c #8E866A",
"1	c #22463E",
"2	c #5E6A5E",
"3	c #EED682",
"4	c #9E3A52",
"5	c #3D6256",
"6	c #7ED2D2",
"7	c #6A7262",
"8	c #E6CEB2",
"9	c #4E1A2A",
"0	c #4E3834",
"a	c #AC9471",
"b	c #1A4E4E",
"c	c #AED2B2",
"d	c #C2A57B",
"e	c #5A9296",
"f	c #608380",
"g	c #6F5E47",
"h	c #25261F",
"i	c #4A6262",
"j	c #6E664E",
"k	c #62A2A6",
"l	c #322A1E",
"m	c #E2C8A4",
"n	c #205958",
"o	c #8E9E86",
"p	c #522A1E",
"q	c #5EA188",
"r	c #856C48",
"s	c #3E3828",
"t	c #266262",
"u	c #DBB78E",
"v	c #807654",
"w	c #DFC199",
"x	c #406C6C",
"y	c #A1D7D3",
"z	c #5A212F",
"  .9zz0&55b1nn  ",
" <444zqqqqn>>>n ",
" <444zqqqqn>>>n ",
" <444zqqqqbt>>n ",
" ~###9----sgt+, ",
" 9:::=%%%7a2-[x ",
" p@@@/!!}avk[{- ",
" z@@@/cc|a'[k6- ",
" p@@@/ovdjhhe{x ",
" <rrr0a;ag_h5fi ",
" _333d;;;d^_fy) ",
" _333amm;;*l(y) ",
" _33]d8wwd$jfyf ",
" s**v;wud*^&if& ",
"     wu$g0      ",
"    gudg        "};
