/* XPM */
static char * mini_gftp_xpm[] = {
"16 16 65 1",
" 	c None",
".	c #212742",
"+	c #565E8E",
"@	c #868EAE",
"#	c #A6B4E9",
"$	c #B6C2EE",
"%	c #DADAE2",
"&	c #353952",
"*	c #DAE2F9",
"=	c #5A72CA",
"-	c #56576A",
";	c #E6E6F6",
">	c #A6A2AE",
",	c #9A9EB6",
"'	c #76757D",
")	c #444657",
"!	c #9A9EBE",
"~	c #EAEAEA",
"{	c #726E82",
"]	c #92A6EE",
"^	c #465286",
"/	c #4B5A9B",
"(	c #BECAF2",
"_	c #F2F2F6",
":	c #82828A",
"<	c #CACAD2",
"[	c #364276",
"}	c #6276BA",
"|	c #929AC2",
"1	c #464C6E",
"2	c #727696",
"3	c #C9D1F6",
"4	c #5A669C",
"5	c #323A66",
"6	c #7B8ED3",
"7	c #667ECE",
"8	c #8296E2",
"9	c #B3BDE6",
"0	c #777DA6",
"a	c #3E3E46",
"b	c #52525A",
"c	c #D6D6E6",
"d	c #FEFEFE",
"e	c #A6A6A6",
"f	c #2B2D43",
"g	c #5E6276",
"h	c #829AE6",
"i	c #D5DDF7",
"j	c #6A7EC6",
"k	c #9CADE8",
"l	c #ACBAEC",
"m	c #4E4E5E",
"n	c #4E567A",
"o	c #454763",
"p	c #E6E2E6",
"q	c #CFD6F7",
"r	c #7782B1",
"s	c #424255",
"t	c #8DA1E7",
"u	c #AEAEAE",
"v	c #7386D1",
"w	c #4A5276",
"x	c #3B4057",
"y	c #394166",
"z	c #63697F",
"dddddddddddddddd",
"dddddddddddddddd",
"dddddddddddddddd",
"dddddddddddddddd",
"*ii3($9##kkkt,;~",
"q(9lr11oyy51ys:%",
"92z0wfn+^f5^.-m'",
"z)oo1f&+v&/=.{-'",
")02s1&06vx/j.s'c",
"zsaxn1#]8x/v.>_d",
",of-rrkk84jjgcdd",
",sm|l##ktth}<ddd",
"~cc*iiqqq((@euuu",
"dddddddddddddddd",
"dddddddddddddddd",
"dddddddddddddddd"};
