/* XPM */
static char * mini_apm_xpm[] = {
"16 16 3 1",
" 	c None",
".	c red",
"X	c white",
"    ........    ",
"   ..........   ",
"  ............  ",
" .............. ",
"................",
"..XX..XXX.XX.XX.",
".XXXX.X.X.XXXXX.",
".X..X.X.X.X.X.X.",
".XXXX.XXX.X...X.",
".X..X.X...X...X.",
".X..X.X...X...X.",
"................",
" .............. ",
"  ............  ",
"   ..........   ",
"    ........    "};
