/* XPM */
static char * mini_xat_xpm[] = {
"16 16 8 1",
" 	c None",
".	c #000000",
"+	c #FFFFFF",
"@	c #DBD225",
"#	c #847D00",
"$	c #F4E800",
"%	c #808080",
"&	c #AFA700",
"                ",
"  ........      ",
"  .++++++..     ",
"  .++++++.+.    ",
"  .+++@@+....   ",
"  .+++@#$+%%.%  ",
"  .+++++++++.%  ",
"  .++++#$+++.%  ",
"  .+++&#$+++.%  ",
"  .+++&#$+++.%  ",
"  .+++&#$+++.%  ",
"  .+++&#$+++.%  ",
"  .+++&#++++.%  ",
"  .+++++++++.%  ",
"  ...........%  ",
"   %%%%%%%%%%%  "};
