/* XPM */
static char * mini_glade_xpm[] = {
"16 16 130 2",
"  	c None",
". 	c #C8B6B9",
"+ 	c #644CF6",
"@ 	c #DCB98F",
"# 	c #FAB063",
"$ 	c #A49ED0",
"% 	c #DBA575",
"& 	c #F3AB58",
"* 	c #FCCD24",
"= 	c #FAD519",
"- 	c #FE8E1B",
"; 	c #FEB523",
"> 	c #FD661F",
", 	c #FC5C30",
"' 	c #F4C113",
") 	c #7E7606",
"! 	c #314D02",
"~ 	c #124422",
"{ 	c #22663C",
"] 	c #728102",
"^ 	c #EB9016",
"/ 	c #FE8C1E",
"( 	c #FF0201",
"_ 	c #E15450",
": 	c #715AF3",
"< 	c #8273D7",
"[ 	c #F2A21B",
"} 	c #426003",
"| 	c #64C91E",
"1 	c #4AB61C",
"2 	c #0AAFA3",
"3 	c #07B3AE",
"4 	c #078571",
"5 	c #326E03",
"6 	c #DEBC12",
"7 	c #FF0904",
"8 	c #DA2B29",
"9 	c #FE1F10",
"0 	c #78690E",
"a 	c #67D41F",
"b 	c #3DBA0D",
"c 	c #0298A2",
"d 	c #29FCFF",
"e 	c #13E5EF",
"f 	c #08604C",
"g 	c #29BE10",
"h 	c #4E6803",
"i 	c #FD3612",
"j 	c #B13F3D",
"k 	c #AFAFB0",
"l 	c #FE3A12",
"m 	c #265C3E",
"n 	c #0A7A5C",
"o 	c #05BEC7",
"p 	c #25FAFC",
"q 	c #33FFFF",
"r 	c #17E6EE",
"s 	c #0D613D",
"t 	c #0A7D62",
"u 	c #13470B",
"v 	c #C96727",
"w 	c #898383",
"x 	c #FF0B06",
"y 	c #FF4812",
"z 	c #147463",
"A 	c #018D93",
"B 	c #10ECF5",
"C 	c #2BF0F9",
"D 	c #32FDFF",
"E 	c #1FD7EE",
"F 	c #15A41B",
"G 	c #32F80A",
"H 	c #2CA608",
"I 	c #987932",
"J 	c #A4A4A6",
"K 	c #FE280E",
"L 	c #477F47",
"M 	c #3DA025",
"N 	c #3CB91B",
"O 	c #0F897C",
"P 	c #2FF6FF",
"Q 	c #1DCDDB",
"R 	c #17A00F",
"S 	c #1EC807",
"T 	c #135A23",
"U 	c #AD8C3E",
"V 	c #8A7FCB",
"W 	c #8A7CEE",
"X 	c #FF0101",
"Y 	c #C47818",
"Z 	c #225217",
"` 	c #6DF520",
" .	c #0D958E",
"..	c #32FEFF",
"+.	c #14C7E5",
"@.	c #04A7C3",
"#.	c #62752A",
"$.	c #997F63",
"%.	c #C7C7C7",
"&.	c #FE1810",
"*.	c #FF1809",
"=.	c #AD7516",
"-.	c #254605",
";.	c #116641",
">.	c #19F0F5",
",.	c #17E6ED",
"'.	c #0A989E",
").	c #516026",
"!.	c #AF8843",
"~.	c #857FA9",
"{.	c #EC2B29",
"].	c #FD1007",
"^.	c #E4631A",
"/.	c #886B1D",
"(.	c #726017",
"_.	c #795E14",
":.	c #9E7D2A",
"<.	c #997D60",
"[.	c #939395",
"}.	c #6A55ED",
"|.	c #A69392",
"1.	c #958D8F",
"2.	c #9B999B",
"3.	c #9E9894",
"4.	c #999494",
"5.	c #989899",
"6.	c #9085D3",
"7.	c #6149F6",
"8.	c #B9B8C6",
"9.	c #C3C2C4",
"                                ",
"            .                   ",
"    +         @ #               ",
"      $   % & * = - ; > ,       ",
"          ' ) ! ~ { ] ^ / ( _   ",
": <     [ } | 1 2 3 4 5 6 7 8   ",
"      9 0 a b c d e f g h i j k ",
"      l m n o p q r s t u v w   ",
"    x y z A B C D E F G H I J   ",
"      K L M N O P Q R S T U V W ",
"      X Y Z `  ...D +.@.#.$.  %.",
"      &.*.=.-.;.>.,.'.).!.~.    ",
"        {.].^./.(._.:.<.[.  }.  ",
"          |.1.2.3.4.5.6.        ",
"                      7.8.      ",
"                        9.      "};
