/* XPM */
static char * mini_halt_xpm[] = {
"16 16 77 1",
" 	c None",
".	c #B3B3B3",
"+	c #5D5D5D",
"@	c #7F7F7F",
"#	c #7E7E7E",
"$	c #808080",
"%	c #C6C6C6",
"&	c #D1D1D1",
"*	c #6B6B6B",
"=	c #1D1D1D",
"-	c #000000",
";	c #040404",
">	c #030303",
",	c #2A2A2A",
"'	c #717171",
")	c #CCCCCC",
"!	c #D2D2D2",
"~	c #363636",
"{	c #070707",
"]	c #282828",
"^	c #7D7D7D",
"/	c #828282",
"(	c #303030",
"_	c #2F2F2F",
":	c #C8C8C8",
"<	c #767676",
"[	c #1E1E1E",
"}	c #818181",
"|	c #C3C3C3",
"1	c #FBFBFB",
"2	c #FCFCFC",
"3	c #C9C9C9",
"4	c #838383",
"5	c #252525",
"6	c #666666",
"7	c #CDCDCD",
"8	c #FFFFFF",
"9	c #FEFEFE",
"0	c #FDFDFD",
"a	c #8C8C8C",
"b	c #0C0C0C",
"c	c #292929",
"d	c #C4C4C4",
"e	c #F7F7F7",
"f	c #CACACA",
"g	c #343434",
"h	c #797979",
"i	c #020202",
"j	c #8A8A8A",
"k	c #080808",
"l	c #7C7C7C",
"m	c #060606",
"n	c #848484",
"o	c #050505",
"p	c #787878",
"q	c #313131",
"r	c #CFCFCF",
"s	c #3A3A3A",
"t	c #7B7B7B",
"u	c #C2C2C2",
"v	c #858585",
"w	c #8F8F8F",
"x	c #090909",
"y	c #232323",
"z	c #C0C0C0",
"A	c #6C6C6C",
"B	c #909090",
"C	c #2C2C2C",
"D	c #676767",
"E	c #333333",
"F	c #888888",
"G	c #8E8E8E",
"H	c #3B3B3B",
"I	c #626262",
"J	c #C7C7C7",
"K	c #777777",
"L	c #BCBCBC",
"                ",
"     .+@#$%     ",
"   &*=-;>-,')   ",
"  !~-{]^/(;-_:  ",
"  <-[}|12345-6  ",
" 7(;@89}}08abcd ",
" /-,|9e--e9fg-h ",
" ^i^1ee--ee0jkl ",
" }mn2ee--ee9aop ",
" #-q30e--e0rs-t ",
" u,kv89}}08wxyz ",
"  A-5jf00rBC-D  ",
"  f_-kEFGHb-]d  ",
"   fAc-ok-yIu   ",
"     JlKlhL     ",
"                "};
