/* XPM */
static char * mini_klock_xpm[] = {
"16 16 5 1",
" 	s None	c None",
".	c #808080",
"X	c black",
"o	c white",
"O	c yellow3",
"                ",
"      .XXX.     ",
"     X.ooo.X    ",
"    ..oXXXo..   ",
"    XoX...XoX   ",
"    XoX.  XoX.  ",
"    XoX.  XoX.  ",
"   XXXXXXXXXXX  ",
"   XOOOOOOOOOX. ",
"   XO.......OX. ",
"   XOOOOOOOOOX. ",
"   XO.......OX. ",
"   XOOOOOOOOOX. ",
"   XXXXXXXXXXX. ",
"    ........... ",
"                "};
