/* XPM */
static char * mini_gtv_xpm[] = {
"16 16 8 1",
" 	c None",
".	c #000000",
"+	c #FFFFFF",
"@	c #AFE519",
"#	c #00FF00",
"$	c #FF0000",
"%	c #008B00",
"&	c #8B0000",
"................",
".++.++.++.++.++.",
"................",
".@@@@@@@@@@@@@@.",
".@@@@@@@@@@@@@@.",
".@@@@@@@@@@@@@@.",
".@@@@@@@@@@@@@@.",
".@@@@@@@@@@@@@@.",
"................",
".++.++.++.++.++.",
"................",
"                ",
"###   ###   $$$ ",
"###%  ###%  $$$&",
" %%%   %%%   &&&",
"                "};
