/* XPM */
static char * mini_gnomecal_xpm[] = {
"16 16 182 2",
"  	c None",
". 	c #67453E",
"+ 	c #64433B",
"@ 	c #644B45",
"# 	c #68544F",
"$ 	c #6B5752",
"% 	c #67544F",
"& 	c #52413C",
"* 	c #624F4A",
"= 	c #6B5B56",
"- 	c #6B5854",
"; 	c #66524D",
"> 	c #624E4A",
", 	c #564541",
"' 	c #3E2B26",
") 	c #9E6A5F",
"! 	c #A27C72",
"~ 	c #C3BEBE",
"{ 	c #D2D3D2",
"] 	c #E1E2E1",
"^ 	c #D4D3D4",
"/ 	c #8F8888",
"( 	c #B7B0AD",
"_ 	c #D9CBCA",
": 	c #DCD6D6",
"< 	c #D7D4D5",
"[ 	c #CFAAAB",
"} 	c #C8C3C3",
"| 	c #665A57",
"1 	c #60524F",
"2 	c #986B60",
"3 	c #BFBBBB",
"4 	c #B5B5B5",
"5 	c #BBBABB",
"6 	c #DBDADB",
"7 	c #D0CDD0",
"8 	c #8E8A8A",
"9 	c #B3A9A7",
"0 	c #D6BFBE",
"a 	c #D1B6B6",
"b 	c #D2C3C7",
"c 	c #C8AAAA",
"d 	c #C9C3C4",
"e 	c #A78484",
"f 	c #685757",
"g 	c #8F665D",
"h 	c #C9BDBC",
"i 	c #C0B2B4",
"j 	c #C8BABC",
"k 	c #D7C8C8",
"l 	c #BCADAF",
"m 	c #888180",
"n 	c #A79996",
"o 	c #CDBEC0",
"p 	c #CDBEC1",
"q 	c #C9BABB",
"r 	c #C7B8B9",
"s 	c #C3A1A3",
"t 	c #A35F5F",
"u 	c #412927",
"v 	c #86625A",
"w 	c #DCDDDC",
"x 	c #DDE0DD",
"y 	c #D8D9D8",
"z 	c #D9DBD9",
"A 	c #A09B96",
"B 	c #A6A19E",
"C 	c #8C8176",
"D 	c #999592",
"E 	c #C9C6C9",
"F 	c #C7C6C7",
"G 	c #C2B9BA",
"H 	c #B67979",
"I 	c #7C4E4D",
"J 	c #2B201E",
"K 	c #7E5E57",
"L 	c #DBDCDB",
"M 	c #D6D5D6",
"N 	c #D7D6D7",
"O 	c #D3D3D3",
"P 	c #C3C0C3",
"Q 	c #7F7B7C",
"R 	c #7D7877",
"S 	c #8B8A8B",
"T 	c #BAB7BA",
"U 	c #B9B5B8",
"V 	c #BB9090",
"W 	c #9B5A5A",
"X 	c #5B4F4F",
"Y 	c #1E1716",
"Z 	c #795B54",
"` 	c #DADCDA",
" .	c #D1D1D1",
"..	c #D3D1D3",
"+.	c #D0CED0",
"@.	c #B7B6B7",
"#.	c #838180",
"$.	c #979090",
"%.	c #C5C3C5",
"&.	c #C6C3C6",
"*.	c #C0A9A8",
"=.	c #B26F6F",
"-.	c #644343",
";.	c #413D3D",
">.	c #201917",
",.	c #745852",
"'.	c #CFCDCF",
").	c #CBC9CB",
"!.	c #CCCBCC",
"~.	c #938D89",
"{.	c #9C9A97",
"].	c #897F74",
"^.	c #A19D97",
"/.	c #C2B9B9",
"(.	c #C18C8D",
"_.	c #804444",
":.	c #4D494A",
"<.	c #5D5958",
"[.	c #2C2220",
"}.	c #745851",
"|.	c #DFDFDF",
"1.	c #CDCBCD",
"2.	c #C6C5C6",
"3.	c #C4C4C4",
"4.	c #A7A6A7",
"5.	c #666968",
"6.	c #797171",
"7.	c #989494",
"8.	c #BF9494",
"9.	c #9F5555",
"0.	c #4F3C3D",
"a.	c #797879",
"b.	c #746F6E",
"c.	c #2E2422",
"d.	c #735750",
"e.	c #E2E4E2",
"f.	c #DAD9DA",
"g.	c #D1D0D1",
"h.	c #BEBEBE",
"i.	c #858282",
"j.	c #989191",
"k.	c #C2A9A9",
"l.	c #C99A9A",
"m.	c #6E4545",
"n.	c #615F61",
"o.	c #9C999C",
"p.	c #777271",
"q.	c #2F2422",
"r.	c #694D46",
"s.	c #9E9997",
"t.	c #A3A2A1",
"u.	c #9E9D9D",
"v.	c #9C9B9B",
"w.	c #999797",
"x.	c #767272",
"y.	c #887573",
"z.	c #BD8787",
"A.	c #804242",
"B.	c #423D3D",
"C.	c #777576",
"D.	c #868485",
"E.	c #6F6867",
"F.	c #312522",
"G.	c #4A3631",
"H.	c #372E2B",
"I.	c #352D2B",
"J.	c #352E2C",
"K.	c #352F2D",
"L.	c #3A3230",
"M.	c #8C6463",
"N.	c #8E5050",
"O.	c #3A2525",
"P.	c #27211F",
"Q.	c #382F2D",
"R.	c #382E2C",
"S.	c #392D2A",
"T.	c #2A1E1B",
"U.	c #955858",
"V.	c #2D1414",
"W.	c #000000",
"X.	c #562D2D",
"Y.	c #472121",
"                                ",
". + @ # $ % & * = - ; > , '     ",
") ! ~ { ] ^ / ( _ : < [ } | 1   ",
"2 3 4 5 6 7 8 9 0 a b c d e f   ",
"g h i j k l m n o p q r s t u   ",
"v w x y z A B C D E F G H I J   ",
"K L M N O P Q R S T U V W X Y   ",
"Z `  ...+.@.#.$.%.&.*.=.-.;.>.  ",
",.x '.).!.~.{.].^./.(._.:.<.[.  ",
"}.|.1.2.3.4.5.6.7.8.9.0.a.b.c.  ",
"d.e.f.g.).h.i.j.k.l.m.n.o.p.q.  ",
"r.s.t.u.v.w.x.y.z.A.B.C.D.E.F.  ",
"G.H.I.J.K.K.L.M.N.O.P.Q.R.S.T.  ",
"              U.V.W.W.          ",
"            X.Y.  W.            ",
"                                "};
