/* XPM */
static char * mini_gnumeric_xpm[] = {
"16 16 65 1",
" 	c None",
".	c #0E0A0A",
"+	c #7E7A72",
"@	c #E2CAAA",
"#	c #B5B3B2",
"$	c #3E3A37",
"%	c #6A6A6A",
"&	c #A6A3A2",
"*	c #F3F2F1",
"=	c #4E5252",
"-	c #AA8A66",
";	c #99948F",
">	c #D4B288",
",	c #E2E2DE",
"'	c #A68A66",
")	c #908476",
"!	c #C1A27D",
"~	c #716151",
"{	c #42423E",
"]	c #C0BFBC",
"^	c #8A6E52",
"/	c #1B1C1B",
"(	c #D2C4BC",
"_	c #D1CDC9",
":	c #987E5E",
"<	c #BCACA4",
"[	c #D6B692",
"}	c #BAB2AE",
"|	c #EAD2B6",
"1	c #DCDCDC",
"2	c #978A81",
"3	c #625953",
"4	c #322A26",
"5	c #7A6652",
"6	c #504E4C",
"7	c #CEC2B9",
"8	c #6E6E6A",
"9	c #4C3E2C",
"0	c #4B443D",
"a	c #FAFAF9",
"b	c #B39675",
"c	c #CEAE8A",
"d	c #A69A8E",
"e	c #D6BC9A",
"f	c #7A6D61",
"g	c #B2ACA6",
"h	c #7E736A",
"i	c #C2B2AA",
"j	c #847B73",
"k	c #D3D3D3",
"l	c #878584",
"m	c #54483C",
"n	c #66625E",
"o	c #E1C29B",
"p	c #26221E",
"q	c #8C7A6C",
"r	c #C6C6C6",
"s	c #58544E",
"t	c #8A8A89",
"u	c #9E9A9A",
"v	c #E8E8E7",
"w	c #4E4A46",
"x	c #C9B9B1",
"y	c #8E765C",
"z	c #A18B76",
"                ",
"     33p        ",
"    ~5qzh4      ",
"   nj#h:2hj0    ",
"  9hu#jw32jdif/ ",
" w+lk)yl;)z<77xs",
" s#l+!j%kv&dx7g.",
" {6lb5=;gk*r;x0 ",
" /fzbw9%1]ra*l  ",
"  ze!:06]*1#vp  ",
"  e@[cm3]]a*6   ",
"  |oo!^n1v&r    ",
" yo>-~s2]a*/    ",
" !>:9 $_7&t     ",
"  '    {(g      ",
"        $$      "};
