/* XPM */
static char * mini_vMac_xpm[] = {
"16 16 199 2",
"  	c None",
". 	c #FFFFFF",
"+ 	c #F1F1F1",
"@ 	c #F0E8EF",
"# 	c #F0D8DF",
"$ 	c #EFEFEF",
"% 	c #EFB0B0",
"& 	c #E8E8E8",
"* 	c #E0F0E0",
"= 	c #E0E0E0",
"- 	c #DFDFDF",
"; 	c #DFD8F0",
"> 	c #DFA0A0",
", 	c #D0D0D0",
"' 	c #CFCFCF",
") 	c #CFC8EF",
"! 	c #CF807F",
"~ 	c #CCCCCC",
"{ 	c #C7C7C7",
"] 	c #C6C6C6",
"^ 	c #C0D0BF",
"/ 	c #C0C0DF",
"( 	c #BFE0BF",
"_ 	c #BFBFBF",
": 	c #B9B9B9",
"< 	c #B0D060",
"[ 	c #B0B0EF",
"} 	c #AFAFAF",
"| 	c #AFA8E0",
"1 	c #AFA8CF",
"2 	c #AFA8C0",
"3 	c #AFA8AF",
"4 	c #AFA86F",
"5 	c #A0C85F",
"6 	c #9F9F9F",
"7 	c #9F98E0",
"8 	c #9F98C0",
"9 	c #9F989F",
"0 	c #90B8A0",
"a 	c #90A080",
"b 	c #9090BF",
"c 	c #909050",
"d 	c #8F8F8F",
"e 	c #8088D0",
"f 	c #8088CF",
"g 	c #8088BF",
"h 	c #808880",
"i 	c #7F80D0",
"j 	c #7F80C0",
"k 	c #7F80BF",
"l 	c #7F80B0",
"m 	c #7F807F",
"n 	c #7F7F7F",
"o 	c #7080AF",
"p 	c #7078E0",
"q 	c #7078B0",
"r 	c #707870",
"s 	c #707070",
"t 	c #6F80A0",
"u 	c #6F70BF",
"v 	c #6F70B0",
"w 	c #6F7090",
"x 	c #6F706F",
"y 	c #6F7020",
"z 	c #6090A0",
"A 	c #6070A0",
"B 	c #6068BF",
"C 	c #6068AF",
"D 	c #606860",
"E 	c #606060",
"F 	c #602020",
"G 	c #5F60BF",
"H 	c #5F60A0",
"I 	c #5F605F",
"J 	c #5F3030",
"K 	c #5F2020",
"L 	c #5058AF",
"M 	c #505850",
"N 	c #50582F",
"O 	c #505050",
"P 	c #502830",
"Q 	c #4F5890",
"R 	c #4F5830",
"S 	c #4F50B0",
"T 	c #4F50A0",
"U 	c #4F5090",
"V 	c #4F5080",
"W 	c #4F504F",
"X 	c #4F383F",
"Y 	c #4F182F",
"Z 	c #464646",
"` 	c #405840",
" .	c #4048B0",
"..	c #40484F",
"+.	c #404840",
"@.	c #404040",
"#.	c #40282F",
"$.	c #3F705F",
"%.	c #3F603F",
"&.	c #3F38DF",
"*.	c #3F389F",
"=.	c #3F3880",
"-.	c #3F387F",
";.	c #3F384F",
">.	c #3F383F",
",.	c #3A3A3A",
"'.	c #333333",
").	c #313131",
"!.	c #30383F",
"~.	c #3030C0",
"{.	c #3030A0",
"].	c #303080",
"^.	c #30307F",
"/.	c #303030",
"(.	c #2FB0D0",
"_.	c #2FA8C0",
":.	c #2FA0B0",
"<.	c #2F8890",
"[.	c #2F787F",
"}.	c #2F686F",
"|.	c #2F6060",
"1.	c #2F605F",
"2.	c #2F5850",
"3.	c #2F4840",
"4.	c #2F3030",
"5.	c #2F28CF",
"6.	c #2F28B0",
"7.	c #2F28A0",
"8.	c #2F289F",
"9.	c #2F2880",
"0.	c #2F287F",
"a.	c #2F2870",
"b.	c #2F2860",
"c.	c #2F282F",
"d.	c #2C2C2C",
"e.	c #252525",
"f.	c #20C0EF",
"g.	c #20B8EF",
"h.	c #20B8DF",
"i.	c #20A8BF",
"j.	c #20909F",
"k.	c #20889F",
"l.	c #20884F",
"m.	c #2020BF",
"n.	c #2020B0",
"o.	c #20209F",
"p.	c #202080",
"q.	c #20207F",
"r.	c #202070",
"s.	c #20206F",
"t.	c #202040",
"u.	c #202030",
"v.	c #202020",
"w.	c #1FC8EF",
"x.	c #1FC0EF",
"y.	c #1FB0DF",
"z.	c #1FA8B0",
"A.	c #1F98A0",
"B.	c #1F8880",
"C.	c #1F881F",
"D.	c #1F781F",
"E.	c #1F1880",
"F.	c #1F187F",
"G.	c #1F1870",
"H.	c #1F181F",
"I.	c #171717",
"J.	c #141414",
"K.	c #10D0EF",
"L.	c #10C8EF",
"M.	c #10C0CF",
"N.	c #10B0D0",
"O.	c #10B0BF",
"P.	c #10A0C0",
"Q.	c #1010AF",
"R.	c #101080",
"S.	c #10107F",
"T.	c #10106F",
"U.	c #101060",
"V.	c #101010",
"W.	c #0FD0EF",
"X.	c #0FC8E0",
"Y.	c #0FC8D0",
"Z.	c #0FC0DF",
"`.	c #0FB0CF",
" +	c #0FA8C0",
".+	c #0FA0BF",
"++	c #0F98B0",
"@+	c #0F0860",
"#+	c #0F0850",
"$+	c #0F080F",
"%+	c #050505",
"&+	c #00E0EF",
"*+	c #00D0E0",
"=+	c #00B0BF",
"-+	c #00A8B0",
";+	c #0098A0",
">+	c #000080",
",+	c #000060",
"'+	c #00005F",
"            )                   ",
"        , } } $.4 6 t o >       ",
"  &.T   I I +.N +.X #.K         ",
"  7.r.  W W M >.>.>.>.>.>.      ",
"  G l   +.W >.j.k.k.k.j.}.      ",
"    a.W +.W >.&+;+;+;+`.|.      ",
"    {.t.W W !.*+K.w.x.g.3.      ",
"    H 8...+.2.K.++++y.g.c.].g   ",
"      >.W >.'.'.c.c.c.c.c.  0.  ",
"      W W >.'.c.c.c.c.c.c.  ^.  ",
"        +.>.H.H.H.H.H.H.>.  #+=.",
"          ..c.'.c.c.'.'.    =.  ",
"           .      l             ",
"          Q.      /             ",
"      {.o.8.      ,+'+F.        ",
"      j 7.u         {.9.        "};
