/* XPM */
static char * mini_gtoaster_xpm[] = {
"16 15 158 2",
"  	c None",
". 	c #92784E",
"+ 	c #977B4F",
"@ 	c #998054",
"# 	c #9F8756",
"$ 	c #6E665C",
"% 	c #CAAC72",
"& 	c #D7AE6A",
"* 	c #E3C556",
"= 	c #E7CF59",
"- 	c #D7B859",
"; 	c #B3986E",
"> 	c #717179",
", 	c #67676F",
"' 	c #65656E",
") 	c #686871",
"! 	c #282929",
"~ 	c #353639",
"{ 	c #313236",
"] 	c #343436",
"^ 	c #5D585B",
"/ 	c #9A8B79",
"( 	c #B19980",
"_ 	c #9F8E88",
": 	c #827A7F",
"< 	c #68666E",
"[ 	c #55555D",
"} 	c #4C4D55",
"| 	c #51515A",
"1 	c #797986",
"2 	c #75767F",
"3 	c #1F211F",
"4 	c #0D0F0D",
"5 	c #090D0A",
"6 	c #191B1B",
"7 	c #5C5D66",
"8 	c #70717C",
"9 	c #63636C",
"0 	c #4D4D55",
"a 	c #38393E",
"b 	c #2D2E32",
"c 	c #343236",
"d 	c #5B4954",
"e 	c #8A8796",
"f 	c #A2A2B3",
"g 	c #8C8D9C",
"h 	c #54555A",
"i 	c #272827",
"j 	c #1A1B1A",
"k 	c #252725",
"l 	c #090D09",
"m 	c #222425",
"n 	c #4F5057",
"o 	c #8B8B9A",
"p 	c #6E6F7A",
"q 	c #5F606A",
"r 	c #72626F",
"s 	c #A996A9",
"t 	c #A890A3",
"u 	c #787682",
"v 	c #63646E",
"w 	c #55565D",
"x 	c #444547",
"y 	c #1C1C1C",
"z 	c #181918",
"A 	c #0F110F",
"B 	c #0C0F0D",
"C 	c #5A5A63",
"D 	c #83828D",
"E 	c #B9B8C7",
"F 	c #C2BDD0",
"G 	c #C19DB4",
"H 	c #6E616D",
"I 	c #73616E",
"J 	c #5A5962",
"K 	c #55565E",
"L 	c #505256",
"M 	c #202220",
"N 	c #181818",
"O 	c #121512",
"P 	c #262826",
"Q 	c #828288",
"R 	c #D4D3E4",
"S 	c #A6A5B7",
"T 	c #908797",
"U 	c #7B7481",
"V 	c #AC97AC",
"W 	c #A489A0",
"X 	c #5A5860",
"Y 	c #585861",
"Z 	c #4A4B50",
"` 	c #232523",
" .	c #141614",
"..	c #1E201E",
"+.	c #5D5D64",
"@.	c #9495A4",
"#.	c #898896",
"$.	c #9B7A8D",
"%.	c #9D909F",
"&.	c #E7CFEB",
"*.	c #817282",
"=.	c #665B67",
"-.	c #595861",
";.	c #48494C",
">.	c #2A2C2A",
",.	c #161716",
"'.	c #151815",
").	c #3D3E42",
"!.	c #888998",
"~.	c #8A8695",
"{.	c #887583",
"].	c #C3AABF",
"^.	c #AB96AD",
"/.	c #786E7C",
"(.	c #776978",
"_.	c #585860",
":.	c #171917",
"<.	c #131613",
"[.	c #2C2E2E",
"}.	c #777784",
"|.	c #756F7B",
"1.	c #726772",
"2.	c #A0889D",
"3.	c #9A8399",
"4.	c #978095",
"5.	c #63616A",
"6.	c #55555A",
"7.	c #454549",
"8.	c #303135",
"9.	c #171817",
"0.	c #212423",
"a.	c #656670",
"b.	c #696A74",
"c.	c #676873",
"d.	c #655964",
"e.	c #857283",
"f.	c #6F6771",
"g.	c #696973",
"h.	c #171918",
"i.	c #131513",
"j.	c #1C1F1D",
"k.	c #595A62",
"l.	c #5D5F68",
"m.	c #5D5E67",
"n.	c #60616B",
"o.	c #5E5E65",
"p.	c #64656C",
"q.	c #2C2E2F",
"r.	c #1A1C1A",
"s.	c #525259",
"t.	c #616169",
"u.	c #191B19",
"v.	c #181A18",
"w.	c #56565D",
"x.	c #67686F",
"y.	c #2C2E2C",
"z.	c #242624",
"A.	c #515256",
"            . + @ #             ",
"        $ % & * = - ; > , ' )   ",
"  ! ~ { ] ^ / ( _ : < [ } | 1 2 ",
"3 4 5 6 7 8 9 0 a b c d e f g h ",
"i j k l m n o p q r s t u v w x ",
"  y z A B C D E F G H I J K L   ",
"  M N O P Q R S T U V W X Y Z   ",
"  ` N  ...+.@.#.$.%.&.*.=.-.;.  ",
"  >.,.,.'.).!.~.{.].^./.(._.    ",
"    :.,.<.[.}.|.1.2.3.4.5.6.    ",
"  7.8.9.<.0.a.b.c.d.e.f.        ",
"    g.h.i.j.k.l.m.n.o.          ",
"    p.q.i.r.s.J t.              ",
"        u.v.w.x.                ",
"        y.z.A.                  "};
