/* XPM */
static char * winfile_xpm[] = {
"16 16 5 1",
" 	c None",
".	c black",
"X	c yellow",
"o	c white",
"O	c #BDBEBD",
"                ",
"                ",
"   .....        ",
"  .XoXoX.       ",
" .............. ",
" .XoXoXoXoXoXoX.",
" .oXoXoXoXoXoXo.",
" .XoXoXoXoXoXoX.",
" .oXoXoXoXoXoXo.",
" .XoXoXoXoXoXoX.",
" .oXoXoXoXoXoXo.",
" .XoXoXoXoXoXoX.",
" .OOOOOOOOOOOOO.",
"  ..............",
"                ",
"                "};
