/* XPM */
static char * mini_gmurf_xpm[] = {
"16 16 35 1",
" 	c None",
".	c #000000",
"+	c #04467D",
"@	c #022643",
"#	c #0886EF",
"$	c #000509",
"%	c #044377",
"&	c #022746",
"*	c #00080F",
"=	c #044B86",
"-	c #032A4C",
";	c #076DC3",
">	c #010A11",
",	c #054E8C",
"'	c #011729",
")	c #032C4F",
"!	c #010B14",
"~	c #076FC6",
"{	c #044378",
"]	c #043B69",
"^	c #0771C9",
"/	c #0772CC",
"(	c #055292",
"_	c #0776D2",
":	c #01101D",
"<	c #0774CF",
"[	c #0662AF",
"}	c #044175",
"|	c #033157",
"1	c #055395",
"2	c #010F1A",
"3	c #032F55",
"4	c #010D17",
"5	c #032E52",
"6	c #066CC0",
".......+........",
"......@#..@..$.@",
"......%#.&%..%.%",
".....*=#*%%..=.%",
".-...%##;%%.>#.%",
".,')!,###~~!{#.{",
"]##{^######{{#]^",
"###/#######((###",
"_##_#######__#_#",
":<[%}<#####|%#:1",
".{.2.{###((.3#.{",
".4...5^#]{{..^.{",
"......%#.%%..%.%",
"......%#.>%..-.%",
"......*6..*....*",
".......{........"};
