/* XPM */
static char * mini_gpgp_xpm[] = {
"16 16 65 1",
" 	c None",
".	c #2A3681",
"+	c #FE9E46",
"@	c #4F79BA",
"#	c #D28656",
"$	c #82627C",
"%	c #4566AA",
"&	c #AE868A",
"*	c #685472",
"=	c #9A7A8A",
"-	c #475F9B",
";	c #669CD7",
">	c #3C53A0",
",	c #797BAE",
"'	c #463A9E",
")	c #6E93CB",
"!	c #38488A",
"~	c #66567E",
"{	c #928894",
"]	c #7B85BE",
"^	c #658DC7",
"/	c #686AA8",
"(	c #3C408C",
"_	c #6446C4",
":	c #5979AD",
"<	c #626CDE",
"[	c #A2969E",
"}	c #6A7AE6",
"|	c #2F4287",
"1	c #725A8A",
"2	c #809CD2",
"3	c #A27262",
"4	c #5A56AA",
"5	c #6050BE",
"6	c #343B8B",
"7	c #6186BD",
"8	c #768AAE",
"9	c #B28A86",
"0	c #A29EA2",
"a	c #3E3BA1",
"b	c #464A82",
"c	c #687DB5",
"d	c #566A96",
"e	c #789CDC",
"f	c #EA934D",
"g	c #CA865C",
"h	c #6D5ECE",
"i	c #4E3EB6",
"j	c #5860A4",
"k	c #7694CD",
"l	c #5372AE",
"m	c #5656DE",
"n	c #96A2C9",
"o	c #6C6ECA",
"p	c #5168AD",
"q	c #8C6E74",
"r	c #6AA6E0",
"s	c #8E8ABA",
"t	c #2B3B80",
"u	c #848EB8",
"v	c #3B4D9B",
"w	c #CE946C",
"x	c #514BA5",
"y	c #5D7FBB",
"z	c #DB955E",
";2}<<-l77yly)^@|",
"k}m_'66vl)ekc>at",
"m_a..t..(-jjx6.!",
"i..>l:,$1.66.|-y",
"av:y8z++++3|-y:,",
"<78]f++++++z7:4x",
"n7b#+f*,uw++&x6!",
",((++q.6joq$*t|d",
"6tq++c-tt...t-ln",
"d-{++k^:||!-))un",
"2y{++=c)e;0[{]ho",
"]hi#++3/cw++&5'|",
"_|tbf++++++g(ttd",
"!6vl/z++++3.t(lc",
">yrr;)^q1(66v%^;",
"lr;;;;@@%>>>%l^@"};
