/* XPM */
static char * mini_mpeg_play_xpm[] = {
"16 16 8 1",
" 	c None",
".	c black",
"X	c white",
"o	c blue",
"O	c lightblue",
"+	c green",
"@	c brown",
"#	c green4",
"                ",
"................",
".XX.XX.XX.XX.XX.",
"................",
" .ooooOOoooooo. ",
" .OOOoooooooOO. ",
" .oOOoooOOoooO. ",
" .oooooooOOooo. ",
" .oooooooooooo. ",
" .OO++@@@#++++. ",
" .+++@@#++++@@. ",
" .@#+++++#@@@@. ",
"................",
".XX.XX.XX.XX.XX.",
"................",
"                "};
