/* XPM */
static char * mini_mMosaic_xpm[] = {
"16 16 94 2",
"  	c None",
". 	c #282566",
"+ 	c #2A2188",
"@ 	c #383488",
"# 	c #383683",
"$ 	c #383782",
"% 	c #373785",
"& 	c #373789",
"* 	c #38388A",
"= 	c #464993",
"- 	c #292759",
"; 	c #404086",
"> 	c #2C2870",
", 	c #2A2380",
"' 	c #292472",
") 	c #28246E",
"! 	c #25244D",
"~ 	c #272458",
"{ 	c #27245C",
"] 	c #312C7A",
"^ 	c #312D7B",
"/ 	c #635F73",
"( 	c #64617B",
"_ 	c #3D3DA0",
": 	c #2A218A",
"< 	c #33307F",
"[ 	c #3E3E95",
"} 	c #5E5761",
"| 	c #807467",
"1 	c #726E7E",
"2 	c #302993",
"3 	c #2A218C",
"4 	c #2A2286",
"5 	c #43448F",
"6 	c #25244C",
"7 	c #4D476E",
"8 	c #86776A",
"9 	c #5D5F9F",
"0 	c #5053B0",
"a 	c #554E94",
"b 	c #4C488E",
"c 	c #302985",
"d 	c #454790",
"e 	c #262450",
"f 	c #292379",
"g 	c #2F2788",
"h 	c #3629A7",
"i 	c #504DAB",
"j 	c #78706D",
"k 	c #78706B",
"l 	c #484269",
"m 	c #25244A",
"n 	c #29256F",
"o 	c #2A2189",
"p 	c #2C2099",
"q 	c #3126A0",
"r 	c #5B557D",
"s 	c #8B7B66",
"t 	c #3D3875",
"u 	c #434389",
"v 	c #27255F",
"w 	c #29237A",
"x 	c #2A218B",
"y 	c #352D85",
"z 	c #786C6D",
"A 	c #2D2974",
"B 	c #484A98",
"C 	c #25244E",
"D 	c #282565",
"E 	c #29237F",
"F 	c #2A2282",
"G 	c #2F2979",
"H 	c #423F7E",
"I 	c #383779",
"J 	c #3A3896",
"K 	c #262457",
"L 	c #342F92",
"M 	c #312E7C",
"N 	c #272459",
"O 	c #333178",
"P 	c #282569",
"Q 	c #312E7E",
"R 	c #33317F",
"S 	c #2F2B7B",
"T 	c #27255E",
"U 	c #3B3A7F",
"V 	c #272462",
"W 	c #302A80",
"X 	c #393680",
"Y 	c #3F3D80",
"Z 	c #403F7E",
"` 	c #332D8D",
" .	c #312E85",
"..	c #26244F",
"                          .     ",
"        + @ # $ % & * = - ; >   ",
"    , ' )               ! ~ {   ",
"    ]                           ",
"  ^         / ( _ :             ",
"  < [     } | 1 2 3 4           ",
"    5   6 7 8 9 0 a b c         ",
"      d e f g h i j k l         ",
"        m n o p q r s t u       ",
"        m v w x x y z A   B     ",
"          C D E F G H     I J   ",
"            m C K K         L   ",
"                          M     ",
"  N O P               Q R S     ",
"  T U V , W X X Y Z `  .        ",
"    ..                          "};
