/* XPM */
static char * mini_gt_xpm[] = {
"16 18 189 2",
"  	c None",
". 	c #A05FA0",
"+ 	c #CB78CB",
"@ 	c #CB79CB",
"# 	c #B56CB5",
"$ 	c #B5B56C",
"% 	c #CBCB78",
"& 	c #A0A05F",
"* 	c #C977C9",
"= 	c #FD97FD",
"- 	c #FE98FE",
"; 	c #F994F9",
"> 	c #B66CB6",
", 	c #724372",
"' 	c #4A2C4A",
") 	c #4D4D2E",
"! 	c #7B7B49",
"~ 	c #C5C575",
"{ 	c #FCFC95",
"] 	c #FDFD97",
"^ 	c #C8C877",
"/ 	c #FD96FD",
"( 	c #C877C8",
"_ 	c #2E1B2E",
": 	c #010001",
"< 	c #000000",
"[ 	c #010100",
"} 	c #3F3F25",
"| 	c #D6D67F",
"1 	c #FDFD96",
"2 	c #C978C9",
"3 	c #FE97FE",
"4 	c #BD70BD",
"5 	c #0B060B",
"6 	c #080408",
"7 	c #4E2E4E",
"8 	c #6C406C",
"9 	c #65653C",
"0 	c #393922",
"a 	c #3E3E3D",
"b 	c #B8B7B6",
"c 	c #76766D",
"d 	c #CECE7A",
"e 	c #FEFE97",
"f 	c #C9C977",
"g 	c #EE8DEE",
"h 	c #180D18",
"i 	c #281728",
"j 	c #D981D9",
"k 	c #E387E3",
"l 	c #E3E387",
"m 	c #FAF995",
"n 	c #95957F",
"o 	c #D9D9D9",
"p 	c #717170",
"q 	c #2A2A19",
"r 	c #FAFA95",
"s 	c #8A528A",
"t 	c #040204",
"u 	c #D27DD2",
"v 	c #FF97FF",
"w 	c #DEDE85",
"x 	c #A09F81",
"y 	c #8A897C",
"z 	c #E0E08F",
"A 	c #E6E68D",
"B 	c #DDDD83",
"C 	c #F9F994",
"D 	c #442844",
"E 	c #432743",
"F 	c #D887D6",
"G 	c #8B8A76",
"H 	c #8D8C7D",
"I 	c #EEED92",
"J 	c #847B84",
"K 	c #1C191C",
"L 	c #464246",
"M 	c #A79CA7",
"N 	c #8A6B8A",
"O 	c #B0A8AF",
"P 	c #999998",
"Q 	c #646440",
"R 	c #727243",
"S 	c #7C8354",
"T 	c #84A07C",
"U 	c #76C676",
"V 	c #223922",
"W 	c #335633",
"X 	c #96FB96",
"Y 	c #437043",
"Z 	c #232323",
"` 	c #1D1E1E",
" .	c #243D3D",
"..	c #77C8C8",
"+.	c #457345",
"@.	c #080E08",
"#.	c #8BE88B",
"$.	c #97FB97",
"%.	c #61A261",
"&.	c #305130",
"*.	c #305252",
"=.	c #365B5B",
"-.	c #223A3A",
";.	c #447373",
">.	c #81D881",
",.	c #040704",
"'.	c #2A472A",
").	c #8FF08F",
"!.	c #96FC96",
"~.	c #86E086",
"{.	c #87E3E3",
"].	c #96FEFE",
"^.	c #8BEBEB",
"/.	c #1D3131",
"(.	c #020505",
"_.	c #7FD6D6",
":.	c #77C9C9",
"<.	c #558E55",
"[.	c #152315",
"}.	c #538C53",
"|.	c #65AA65",
"1.	c #66ABAB",
"2.	c #528A8A",
"3.	c #121E1E",
"4.	c #4D8282",
"5.	c #97FEFE",
"6.	c #96FA96",
"7.	c #579257",
"8.	c #050905",
"9.	c #020303",
"0.	c #4A7D7D",
"a.	c #96FCFC",
"b.	c #77C677",
"c.	c #95FA95",
"d.	c #84DD84",
"e.	c #477647",
"f.	c #1C301C",
"g.	c #070C07",
"h.	c #050909",
"i.	c #152424",
"j.	c #3B6464",
"k.	c #7ACECE",
"l.	c #96FDFD",
"m.	c #75C475",
"n.	c #94F894",
"o.	c #95F995",
"p.	c #84DE84",
"q.	c #85DFDF",
"r.	c #95FBFB",
"s.	c #76C7C7",
"t.	c #4F584F",
"u.	c #646F64",
"v.	c #7C877C",
"w.	c #919C91",
"x.	c #6A746A",
"y.	c #687368",
"z.	c #667166",
"A.	c #717B71",
"B.	c #8D9797",
"C.	c #768181",
"D.	c #697474",
"E.	c #677373",
"F.	c #667171",
"G.	c #646F6F",
"H.	c #4F5858",
"I.	c #5F5F5F",
"J.	c #787878",
"K.	c #AAAAAA",
"L.	c #BDBDBD",
"M.	c #B1B1B1",
"N.	c #A4A4A4",
"O.	c #A5A5A5",
"P.	c #CECECE",
"Q.	c #BEBEBE",
"R.	c #B6B6B6",
"S.	c #C3C3C3",
"T.	c #B2B2B2",
"U.	c #4C4C4C",
"V.	c #606060",
"W.	c #8E8E8E",
"X.	c #737373",
"Y.	c #828282",
"Z.	c #7C7C7C",
"`.	c #747474",
" +	c #898989",
".+	c #777777",
"++	c #767676",
"@+	c #808080",
"#+	c #7A7A7A",
". + @ @ @ @ @ # $ % % % % % % & ",
"* = - - ; > , ' ) ! ~ { ] ] ] ^ ",
"* / - ( _ : < < < < [ } | 1 1 ^ ",
"2 3 4 5 < 6 7 8 9 0 a b c d e f ",
"2 g h < i j 3 k l m n o p q r f ",
"2 s < t u v v k w x y z A B C f ",
"2 D < E - - - F G H I 1 1 1 1 ^ ",
"J K < L M M N O P Q R R R R S T ",
"U V < W X X Y Z ` < < < < <  ...",
"U +.< @.#.$.%.&.*.=.=.-.< < ;...",
"U >.,.< '.).!.~.{.].^./.< (._.:.",
"U X <.< < [.}.|.1.2.3.< < 4.5.:.",
"U 6.X 7.8.< < < < < < 9.0.a.]...",
"b.c.$.X d.e.f.g.h.i.j.k.l.5.5.:.",
"m.n.o.o.o.o.o.p.q.r.r.r.r.r.r.s.",
"t.u.v.w.x.y.z.A.B.C.D.D.E.F.G.H.",
"I.J.K.K.L.M.N.O.O.P.Q.R.S.T.J.I.",
"U.V.J.W.J.X.Y.Z.`. +.+++@+#+V.U."};
