/* XPM */
static char * mini_xfi_xpm[] = {
"16 16 71 1",
" 	c None",
".	c #2938D7",
"+	c #2E3DD8",
"@	c #2B3AD7",
"#	c #2837D6",
"$	c #2A39D7",
"%	c #2534D6",
"&	c #3846D9",
"*	c #3A47DA",
"=	c #2433D6",
"-	c #2736D6",
";	c #3B49DA",
">	c #525EDE",
",	c #ACB1EE",
"'	c #BFC3F1",
")	c #AEB3EF",
"!	c #6F79E4",
"~	c #2A38D7",
"{	c #848CE7",
"]	c #DCDEF7",
"^	c #F8F9FD",
"/	c #FDFDFD",
"(	c #EDEEFB",
"_	c #5964E0",
":	c #2635D6",
"<	c #434FDB",
"[	c #CBCFF4",
"}	c #FEFEFE",
"|	c #FCFCFC",
"1	c #8D94E8",
"2	c #2634D6",
"3	c #2D3BD7",
"4	c #757EE4",
"5	c #F4F5FC",
"6	c #9199E8",
"7	c #2533D6",
"8	c #8991E7",
"9	c #FCFCFD",
"0	c #F4F5FB",
"a	c #6D77E2",
"b	c #5863DF",
"c	c #E5E7F8",
"d	c #F7F7FC",
"e	c #A7AEED",
"f	c #303ED8",
"g	c #2937D6",
"h	c #6E78E3",
"i	c #B5BAF0",
"j	c #B9BEF1",
"k	c #C1C5F2",
"l	c #A3A9EC",
"m	c #3B4AD4",
"n	c #2335CF",
"o	c #243CBC",
"p	c #2B39D7",
"q	c #3744D9",
"r	c #3F4CDA",
"s	c #3341D7",
"t	c #2342A7",
"u	c #1D5563",
"v	c #1A6239",
"w	c #1A662B",
"x	c #3442D9",
"y	c #3946D9",
"z	c #3240D8",
"A	c #2E3CD7",
"B	c #2C3AD7",
"C	c #2647A5",
"D	c #1A662D",
"E	c #1A6828",
"F	c #1A672A",
"    .+@#$@      ",
"   .%&*+#=#     ",
" #-;>,')!~=     ",
" #~{]^//(_=-    ",
" :<[}}}/|1:2    ",
"3%45}}}}}6:7    ",
"$:89}}}}0a=:    ",
"-=bc}}}def=%    ",
" %ghijklmno     ",
" p=#q&rstuvw    ",
"  xyz3ABCDEEE   ",
"         FEEEE  ",
"          EEEEE ",
"           EEEEE",
"            EEEE",
"             EEE"};
