/* XPM */
static char * mini_xpg_xpm[] = {
"16 16 11 1",
" 	c None",
".	c #082000",
"+	c #FFFFFF",
"@	c #BDBABD",
"#	c #8B898B",
"$	c #737573",
"%	c #525552",
"&	c #EEEEEE",
"*	c #ACAAAC",
"=	c #CDCACD",
"-	c #414441",
"                ",
"     .....      ",
"    .+@#$%.     ",
"    .@%.$%.     ",
"    .#. .%.     ",
"   .........    ",
"  .&&&&&***#.   ",
"  .&=@@@**#%.#  ",
"  .---...*#%.#  ",
"  .&=@@@**#%..  ",
"  .---...*#%.#  ",
"  .&@@@@**#%.#  ",
"  .#########.#  ",
"   .........#   ",
"    ########    ",
"                "};
