/* XPM */
static char * mini_xap_xpm[] = {
"16 16 6 1",
" 	c None",
".	c black",
"X	c gray",
"o	c white",
"O	c red",
"+	c red4",
"                ",
"..............  ",
".XXX.XXX.oooo.X ",
".XXX.XXX.oooo.XX",
"..............XX",
".oooooooooooo.XX",
".oOOOOooOOOOo.XX",
".oO+++ooO+++o.XX",
".oO+++ooO+++o.XX",
".oO++.ooO++.o.XX",
".oO+..ooO+..o.XX",
".oooooooooooo.XX",
"..............XX",
" XXXXXXXXXXXXXXX",
"  XXXXXXXXXXXXXX",
"                "};
