/* XPM */
static char * mini_grip_xpm[] = {
"16 16 216 2",
"  	c None",
". 	c #000000",
"+ 	c #010000",
"@ 	c #070000",
"# 	c #120001",
"$ 	c #130001",
"% 	c #0C0001",
"& 	c #0B0000",
"* 	c #69141D",
"= 	c #C25D6A",
"- 	c #641018",
"; 	c #45050B",
"> 	c #902834",
", 	c #B54452",
"' 	c #BE4554",
") 	c #AA3E4B",
"! 	c #7F1622",
"~ 	c #C95967",
"{ 	c #AE2C3B",
"] 	c #C95564",
"^ 	c #922F3B",
"/ 	c #170102",
"( 	c #220103",
"_ 	c #9F3541",
": 	c #CE5161",
"< 	c #8F2732",
"[ 	c #5E0912",
"} 	c #58050D",
"| 	c #A72131",
"1 	c #ED7A89",
"2 	c #E77787",
"3 	c #410308",
"4 	c #2C0105",
"5 	c #B54654",
"6 	c #842430",
"7 	c #230103",
"8 	c #B64654",
"9 	c #9E3441",
"0 	c #2A0105",
"a 	c #080000",
"b 	c #030000",
"c 	c #150001",
"d 	c #B04855",
"e 	c #EA5B6F",
"f 	c #B6515D",
"g 	c #380207",
"h 	c #D25768",
"i 	c #3D0309",
"j 	c #0E0001",
"k 	c #912A36",
"l 	c #A53946",
"m 	c #170002",
"n 	c #310205",
"o 	c #E47685",
"p 	c #F07081",
"q 	c #7B121D",
"r 	c #190001",
"s 	c #210104",
"t 	c #4E030B",
"u 	c #BE4252",
"v 	c #8A303B",
"w 	c #360206",
"x 	c #D15160",
"y 	c #370207",
"z 	c #0A0000",
"A 	c #751621",
"B 	c #DB6574",
"C 	c #D5606F",
"D 	c #BD4756",
"E 	c #B44E5B",
"F 	c #D86F7E",
"G 	c #E67080",
"H 	c #C85F6C",
"I 	c #651720",
"J 	c #751620",
"K 	c #AC3F4C",
"L 	c #100001",
"M 	c #180102",
"N 	c #84222D",
"O 	c #E17887",
"P 	c #9F2432",
"Q 	c #780713",
"R 	c #DC4B5D",
"S 	c #EC6073",
"T 	c #F06B7C",
"U 	c #DA5F70",
"V 	c #3C0208",
"W 	c #973945",
"X 	c #811C28",
"Y 	c #050000",
"Z 	c #040000",
"` 	c #7C1D27",
" .	c #C04B5A",
"..	c #800D19",
"+.	c #C24252",
"@.	c #E57382",
"#.	c #C96472",
"$.	c #9E3A46",
"%.	c #83121F",
"&.	c #D74F60",
"*.	c #3C0207",
"=.	c #9A3D4B",
"-.	c #7E1824",
";.	c #060000",
">.	c #932F3A",
",.	c #A32D3B",
"'.	c #550713",
").	c #BE5872",
"!.	c #5C0C19",
"~.	c #1D0102",
"{.	c #240104",
"].	c #CD4656",
"^.	c #410208",
"/.	c #81202B",
"(.	c #9C3240",
"_.	c #0B080F",
":.	c #00080D",
"<.	c #01070B",
"[.	c #300811",
"}.	c #AF4E64",
"|.	c #A85C81",
"1.	c #5696D9",
"2.	c #0D223D",
"3.	c #00090E",
"4.	c #000A10",
"5.	c #2C0A16",
"6.	c #CC4B5B",
"7.	c #290105",
"8.	c #410710",
"9.	c #A06289",
"0.	c #4D79A7",
"a.	c #4A82B1",
"b.	c #2E6CA1",
"c.	c #0A4273",
"d.	c #4274A8",
"e.	c #2F6BA9",
"f.	c #2B7CC2",
"g.	c #0A4B83",
"h.	c #306FA5",
"i.	c #4E85B3",
"j.	c #5F76A7",
"k.	c #8B4E71",
"l.	c #120205",
"m.	c #13101D",
"n.	c #7C99C8",
"o.	c #749ACF",
"p.	c #3A72AC",
"q.	c #AED4F7",
"r.	c #1A73BE",
"s.	c #AAD4F8",
"t.	c #1B6BAF",
"u.	c #84BFEE",
"v.	c #1B71BA",
"w.	c #ABD2F5",
"x.	c #4371AC",
"y.	c #8CAEE0",
"z.	c #6089B7",
"A.	c #030D15",
"B.	c #021524",
"C.	c #8DB9E4",
"D.	c #7980BB",
"E.	c #4B3C68",
"F.	c #84B4E1",
"G.	c #1A75C3",
"H.	c #81BAE8",
"I.	c #084072",
"J.	c #84BEEC",
"K.	c #1E71B9",
"L.	c #7DA9D9",
"M.	c #7C5A89",
"N.	c #6574B3",
"O.	c #83B1DA",
"P.	c #01121E",
"Q.	c #000C14",
"R.	c #4881B2",
"S.	c #8DB3E3",
"T.	c #7FA9E3",
"U.	c #B9DAFB",
"V.	c #2872BF",
"W.	c #80B6E6",
"X.	c #1F3865",
"Y.	c #81BBEA",
"Z.	c #2F72BC",
"`.	c #ADD6FB",
" +	c #7BA0D9",
".+	c #8FB9E6",
"++	c #3B729F",
"@+	c #000B11",
"#+	c #00080C",
"$+	c #105084",
"%+	c #368CD4",
"&+	c #3088D6",
"*+	c #92C4F2",
"=+	c #5E639F",
"-+	c #8071A5",
";+	c #AF6285",
">+	c #736AA1",
",+	c #5771B0",
"'+	c #81B1DF",
")+	c #2B669C",
"!+	c #1A4E79",
"~+	c #011421",
"{+	c #000101",
"]+	c #000305",
"^+	c #0E395B",
"/+	c #6BA2D2",
"(+	c #70ABDE",
"_+	c #366A98",
":+	c #151323",
"<+	c #27050C",
"[+	c #2A0308",
"}+	c #230710",
"|+	c #113154",
"1+	c #28608D",
"2+	c #00111D",
"3+	c #000405",
". . . . + @ # $ % & * = - $ . . ",
". . . # ; > , ' ) ! ~ { ] ^ / . ",
". + ( _ : < [ } | 1 2 3 4 5 6 % ",
"+ 7 8 9 0 a b c d e f $ + g h i ",
"j k l m + . . n o p q r s t u v ",
"w x y . . . z A B C D E F G H I ",
"J K L . . M N O P Q R S T U V @ ",
"W X Y . Z `  ...+.@.#.$.%.&.*.. ",
"=.-.;.. @ >.,.'.).!.~.z {.].^.. ",
"/.(._.:.<.[.}.|.1.2.3.4.5.6.7.. ",
"8.9.0.a.b.c.d.e.f.g.h.i.j.k.l.. ",
"m.n.o.p.q.r.s.t.u.v.w.x.y.z.A.. ",
"B.C.D.E.F.G.H.I.J.K.L.M.N.O.P.. ",
"Q.R.S.T.U.V.W.X.Y.Z.`. +.+++@+. ",
"#+$+%+&+*+=+-+;+>+,+'+)+!+~+{+. ",
"]+^+/+(+_+:+<+[+}+|+1+2+3+. . . "};
