/* XPM */
static char * mini_gmix_xpm[] = {
"16 16 5 1",
" 	c None",
".	c #9575FF",
"+	c #270A7F",
"@	c #0B264F",
"#	c #ED125B",
"                ",
" ...  ...  ...  ",
" .+@  .+@  .+@  ",
" .+@  ###  .+@  ",
" .+@  ###  .+@  ",
" ###  .+@  .+@  ",
" ###  .+@  .+@  ",
" .+@  .+@  ###  ",
" .+@  .+@  ###  ",
" .+@  .+@  .+@  ",
" .+@  .+@  .+@  ",
" .+@  .+@  .+@  ",
" .+@  .+@  .+@  ",
" .+@  .+@  .+@  ",
" @@@  @@@  @@@  ",
"                "};
