/* XPM */
static char * mini_realplay_xpm[] = {
"16 16 65 1",
" 	c None",
".	c #020202",
"+	c #BABEBA",
"@	c #595A59",
"#	c #8E8E8E",
"$	c #0242AE",
"%	c #023EA2",
"&	c #666666",
"*	c #023A9E",
"=	c #353635",
"-	c #5A5E5E",
";	c #025EF2",
">	c #022C74",
",	c #D2D2D2",
"'	c #626262",
")	c #161A16",
"!	c #3E3E3E",
"~	c #D6DAD6",
"{	c #023696",
"]	c #02102C",
"^	c #AAAEAA",
"/	c #E3E3E3",
"(	c #131313",
"_	c #3A3A3A",
":	c #EDEEED",
"<	c #021E4A",
"[	c #32322E",
"}	c #020E26",
"|	c #024ED2",
"1	c #424242",
"2	c #0E0E0E",
"3	c #FEFEFE",
"4	c #6A6E6A",
"5	c #424642",
"6	c #020A1E",
"7	c #A6A6A6",
"8	c #0A0A0A",
"9	c #024EC8",
"0	c #525252",
"a	c #727272",
"b	c #C2C2C2",
"c	c #060606",
"d	c #0262FE",
"e	c #0242B2",
"f	c #EFF2EF",
"g	c #7B7B7B",
"h	c #BABABA",
"i	c #0256E2",
"j	c #C8CAC8",
"k	c #222222",
"l	c #959695",
"m	c #0246BD",
"n	c #F6F6F6",
"o	c #023282",
"p	c #020612",
"q	c #024AC0",
"r	c #02020A",
"s	c #022256",
"t	c #B2B2B2",
"u	c #0252D6",
"v	c #C4C6C4",
"w	c #021234",
"x	c #023A96",
"y	c #535655",
"z	c #025EF9",
"dddddddddddddddd",
"ddddz9e*>o*muddd",
"zz%<r.......r6>u",
"m}..............",
"..............[@",
".![yk_&0cc0a-87v",
"(ff,gfl:g5^#3',l",
"[3y.~/hbgvbt3@f&",
"'/).l:+b!n,v/y:=",
"r....((..2(cc.c.",
"q}..............",
"zz%<6.........w*",
"dddzz|m*{w..p{z|",
"dddddddd;}.<idd|",
"dzddddzz{}qdddd9",
"zdddzddz*zzzzzd$"};
