/* XPM */
static char * mini_pgaccess_xpm[] = {
"16 16 64 1",
" 	c None",
".	c black",
"X	c #000D10",
"o	c #004553",
"O	c #00829B",
"+	c #00AFD1",
"@	c #00B3D6",
"#	c #004B5A",
"$	c #00C2E8",
"%	c #00D4FE",
"&	c #00CBF4",
"*	c #005A6B",
"=	c #004350",
"-	c #006579",
";	c #007990",
":	c #001F24",
">	c #00B4D7",
",	c #00BEE4",
"<	c #002830",
"1	c #000707",
"2	c #001C1F",
"3	c #00758C",
"4	c #0088A2",
"5	c #000808",
"6	c #003737",
"7	c #007272",
"8	c #003E3E",
"9	c #031B1F",
"0	c #002F38",
"q	c #001719",
"w	c #004040",
"e	c #002D2D",
"r	c #007E7E",
"t	c #006363",
"y	c #005151",
"u	c #007878",
"i	c #003A3A",
"p	c #004A4A",
"a	c #1D0022",
"s	c #450053",
"d	c #004747",
"f	c #004E4E",
"g	c #002121",
"h	c #3B0047",
"j	c #2E0037",
"k	c #700086",
"l	c #D300FC",
"z	c #B500D9",
"x	c #6F0085",
"c	c #250B37",
"v	c #08111A",
"b	c #001111",
"n	c #25002C",
"m	c #620076",
"M	c #A600C6",
"N	c #790090",
"B	c #C900F0",
"V	c #35003F",
"C	c #BE00E3",
"Z	c #40004D",
"A	c #060008",
"S	c #370042",
"D	c #82009C",
"F	c #B300D6",
"     ......     ",
"   XoO+@@+OoX   ",
"  #$%%%%%%%%&*  ",
" =%%%%%%%%%%%%o ",
" -%%%%%%%%%%%%; ",
" :>%%%%%%%%%%,< ",
" 123,%%%%%%&4:5 ",
" 67890****0q67w ",
" errr7tyyt7urri ",
" .prrrrrrrrrry1 ",
" as9d7urru7fghj ",
" klzxjcvbcnmMlN ",
" jlllllBBlllllh ",
"  VCllllllllCZ  ",
"   ASNDFFDNSA   ",
"      ....      "};
