/* XPM */
static char * mini_ghex_xpm[] = {
"16 16 113 2",
"  	c None",
". 	c #0C0F09",
"+ 	c #262F1F",
"@ 	c #212A1B",
"# 	c #030302",
"$ 	c #030403",
"% 	c #151A11",
"& 	c #323E28",
"* 	c #415135",
"= 	c #516642",
"- 	c #73915D",
"; 	c #6E8B59",
"> 	c #4E643F",
", 	c #070905",
"' 	c #000000",
") 	c #010101",
"! 	c #74925E",
"~ 	c #465939",
"{ 	c #6A8755",
"] 	c #678554",
"^ 	c #779A61",
"/ 	c #7BA064",
"( 	c #5A7649",
"_ 	c #010100",
": 	c #242E1D",
"< 	c #81A669",
"[ 	c #779960",
"} 	c #556E45",
"| 	c #556F45",
"1 	c #445B38",
"2 	c #739A5F",
"3 	c #6C9159",
"4 	c #151C11",
"5 	c #314028",
"6 	c #698A56",
"7 	c #80A969",
"8 	c #6E935A",
"9 	c #34462A",
"0 	c #24301D",
"a 	c #11160E",
"b 	c #161C12",
"c 	c #010201",
"d 	c #0A0E08",
"e 	c #222E1C",
"f 	c #0F140C",
"g 	c #191E14",
"h 	c #3A482F",
"i 	c #5A7049",
"j 	c #6D8958",
"k 	c #6C8958",
"l 	c #475A39",
"m 	c #090C07",
"n 	c #283120",
"o 	c #698255",
"p 	c #718F5B",
"q 	c #73925D",
"r 	c #75975F",
"s 	c #789B62",
"t 	c #73965D",
"u 	c #0A0D08",
"v 	c #7A9C63",
"w 	c #75955E",
"x 	c #779961",
"y 	c #799E63",
"z 	c #7CA365",
"A 	c #81AB6A",
"B 	c #374A2D",
"C 	c #25301E",
"D 	c #72955D",
"E 	c #7EA667",
"F 	c #779F62",
"G 	c #5A794A",
"H 	c #314228",
"I 	c #12180E",
"J 	c #0D110B",
"K 	c #000100",
"L 	c #394C2E",
"M 	c #212C1B",
"N 	c #0E130C",
"O 	c #1C2317",
"P 	c #3F4E33",
"Q 	c #5C734B",
"R 	c #698355",
"S 	c #3A492E",
"T 	c #090C08",
"U 	c #0F120C",
"V 	c #506340",
"W 	c #688255",
"X 	c #708F5B",
"Y 	c #76975F",
"Z 	c #7A9E63",
"` 	c #242F1D",
" .	c #556C45",
"..	c #779760",
"+.	c #75965F",
"@.	c #7A9F63",
"#.	c #7DA366",
"$.	c #83AD6B",
"%.	c #5E7D4D",
"&.	c #020302",
"*.	c #12180F",
"=.	c #7BA164",
"-.	c #80A868",
";.	c #81AB69",
">.	c #749B5F",
",.	c #567447",
"'.	c #2D3D25",
").	c #090D08",
"!.	c #192114",
"~.	c #4F6A40",
"{.	c #415835",
"].	c #1B2517",
"^.	c #060805",
"                                ",
"              . + @ #           ",
"      $ % & * = - ; > , '       ",
"    ) = ! ~ { ] ^ / ( _         ",
"    : < [ } | 1 2 3 4 '         ",
"  ' 5 6 7 8 9 0 a a b c         ",
"    ' d e f g h i j k l m '     ",
"        n o - p q r s t u '     ",
"      , v w x y z A A B '       ",
"      C D E A F G H I J )       ",
"      K a L M N O P Q R S T '   ",
"          U V W ! X q Y Z ` '   ",
"        )  ...+.^ @.#.$.%.&.    ",
"        *./ =.-.;.>.,.'.).'     ",
"        &.!.~.{.].^.'           ",
"            ' '                 "};
