/* XPM */
static char * mini_xli_xpm[] = {
"16 16 39 1",
" 	c None",
".	c #FFFF00",
"+	c #EAD200",
"@	c #E6C800",
"#	c #E9D000",
"$	c #DCB200",
"%	c #A73806",
"&	c #9B1A08",
"*	c #FEFE00",
"=	c #A53407",
"-	c #960C0A",
";	c #960C0B",
">	c #E3C000",
",	c #991609",
"'	c #960C0C",
")	c #E4C300",
"!	c #A02808",
"~	c #E3C300",
"{	c #F9F300",
"]	c #CA8603",
"^	c #9B1C09",
"/	c #960F0A",
"(	c #F2E100",
"_	c #D49E00",
":	c #F1E000",
"<	c #C7C700",
"[	c #F3ED00",
"}	c #FDFD00",
"|	c #555500",
"1	c #A8A800",
"2	c #AAAA00",
"3	c #727200",
"4	c #8E8E00",
"5	c #393900",
"6	c #000000",
"7	c #E3E300",
"8	c #FCFC00",
"9	c #F9F900",
"0	c #535300",
"..+@#...........",
".$%&%$**........",
"+=-;-=+.........",
">,;';,>.........",
")!;;;!~*........",
"{]^/^]{.........",
".(_]_:......<.<.",
"..{[{....}..|.|.",
"......<...1.|.<.",
"......23.2|.|.|.",
"....*..|45..|.|.",
"........6<..|.|.",
"...*...4||..|.|.",
"....}.75.32.|8|.",
"..*...47*90.4.4.",
"................"};
