/* XPM */
static char * xttv_xpm[] = {
"16 16 13 1",
" 	c None",
".	c #808080",
"+	c #FFFFFF",
"@	c #000000",
"#	c #CE2929",
"$	c #B84131",
"%	c #A25A39",
"&	c #8C7341",
"*	c #768C4A",
"=	c #60A452",
"-	c #4ABD5A",
";	c #34D662",
">	c #C0C0C0",
"                ",
"  ............  ",
" .++++++++++++@ ",
" .+@@@@@@@@@.+@ ",
" .+@#$%&*=-;.+@ ",
" .+@#$%&*=-;.+@ ",
" .+@#$%&*=-;.+@ ",
" .+@#$%&*=-;.+@ ",
" .+@#$%&*=-;.+@ ",
" .+@#$%&*=-;.+@ ",
" .+@.........+@ ",
" .++++++++++++@ ",
"  @@@@@@@@@@@@  ",
"    .++++>.@    ",
"  @@@@@@@@@@@@  ",
"                "};
