/* XPM */
static char * mini_knu_xpm[] = {
"16 16 10 1",
" 	c None",
".	c #000000",
"+	c #FFFFFF",
"@	c #C0C0C0",
"#	c #585858",
"$	c #C0C0FF",
"%	c #8F8FE0",
"&	c #FFA858",
"*	c #FFDCA8",
"=	c #D4E08F",
" .............  ",
".+@@@@@@@@@@@@. ",
".@###########@. ",
".@#$$$$$$$%%+@. ",
".@#$$$$$$%%%+@. ",
".@#$$$$$$%%$+@. ",
".@#..$$$$$$$+@. ",
".@#.&.$$$$$$+@. ",
".@#.&.$$$$$$+@. ",
".++.&.+++++++@. ",
".#..&.......... ",
" .&.&&.&.&.@@.  ",
"..&&*&&&&&.==@. ",
"..&******&.@@@. ",
" ..&****&.....  ",
"   ......       "};
