/* XPM */
static char * mini_wine_xpm[] = {
"16 16 65 1",
" 	c None",
".	c #534E4B",
"+	c #229276",
"@	c #2EA286",
"#	c #BEA4A4",
"$	c #62AE9E",
"%	c #60C1AA",
"&	c #6A7672",
"*	c #9FF3E5",
"=	c #5FCDB6",
"-	c #7E7676",
";	c #40B69C",
">	c #6A5555",
",	c #C2AAAA",
"'	c #8ACEBE",
")	c #9E7676",
"!	c #75DFC8",
"~	c #B99494",
"{	c #56C8AE",
"]	c #8F6565",
"^	c #A2B6B2",
"/	c #7AC3B3",
"(	c #6CCDB8",
"_	c #2E9E82",
":	c #56B09C",
"<	c #6AB6A6",
"[	c #6E8E86",
"}	c #51655B",
"|	c #6AD6BF",
"1	c #8AD6CA",
"2	c #5A8A7E",
"3	c #6E5A5A",
"4	c #C2DEDA",
"5	c #51C1A8",
"6	c #92CEC2",
"7	c #7AA696",
"8	c #AACCC4",
"9	c #85BCB0",
"0	c #85B6AB",
"a	c #46BA9F",
"b	c #876F6F",
"c	c #46AC96",
"d	c #948080",
"e	c #87E7D4",
"f	c #32A68A",
"g	c #73DAC6",
"h	c #7ACCBA",
"i	c #6C9C90",
"j	c #5A9E8A",
"k	c #8AC6BA",
"l	c #6E6662",
"m	c #BB9C9C",
"n	c #AEEEE6",
"o	c #967270",
"p	c #39AE94",
"q	c #7EE4D0",
"r	c #5ACEB5",
"s	c #48BEA3",
"t	c #62D2B8",
"u	c #7A8682",
"v	c #6CDAC2",
"w	c #87A9A2",
"x	c #9E8182",
"y	c #7A6462",
"z	c #9DC7C0",
"vv!!%$9090<||=ta",
"{s;:[-o]]yli!eq!",
"{a{7o]>>>y)d|!{r",
"5s|u~,###,,d/5ts",
"|t{&x~##m~~d/=sr",
"t|g[bx~#m~xy%ap;",
"5s{a.3oxxbyi|s{a",
"==a=c}..>>2ev{s5",
"5|*g5{j}}:tqe{5;",
"|(**!=e1/g|!*|{t",
"e!v||e*(hq|{5q=!",
"vv{p@(n/0h(gt=vt",
"{aaac988^88'q||t",
"pp;;'4zww7zz%a5!",
"pf;;/zzww0z/s{ss",
"p@+fa%96z/<ps5v{"};
