/* XPM */
static char * mini_panel_xpm[] = {
"16 16 46 1",
" 	c None",
".	c #5E1B37",
"X	c #50182E",
"o	c #A11C5B",
"O	c #660E30",
"+	c black",
"@	c #892050",
"#	c #570C2B",
"$	c #A02C62",
"%	c #7F1342",
"&	c #4F0B24",
"*	c #3A0E1E",
"=	c #16030A",
"-	c #290713",
";	c #7B1442",
":	c #A01A5A",
">	c #3C081C",
",	c #9B2960",
"<	c #9C1957",
"1	c #8A164A",
"2	c #6B1237",
"3	c #1E060E",
"4	c #260C16",
"5	c #97265D",
"6	c #951650",
"7	c #77113A",
"8	c #6C0F33",
"9	c #37091A",
"0	c #78113C",
"q	c #721037",
"w	c #22050F",
"e	c #3E0E23",
"r	c #92164E",
"t	c #86224E",
"y	c #671639",
"u	c #851344",
"i	c #100207",
"p	c #450920",
"a	c #290915",
"s	c #89184A",
"d	c #861446",
"f	c #270512",
"g	c #610D2D",
"h	c #500B26",
"j	c #380719",
"k	c #0B0105",
"        .       ",
"     X oO+      ",
"    @#$%&+      ",
"    *=+-=+      ",
"   ;    :       ",
"   >+ ,<123     ",
"   4 5678&+     ",
"  ;9 :0qOw+     ",
"   +er7&=+      ",
"     1qw+  $t   ",
"     18=  yu8i  ",
"     2qpa  1&+  ",
"     q887sodf+  ",
"      >g7q7h+   ",
"       wjp>k+   ",
"         +++    "};
