/* XPM */
static char * mini_spruce_xpm[] = {
"16 16 169 2",
"  	c None",
". 	c #000000",
"+ 	c #040000",
"@ 	c #220000",
"# 	c #3F000A",
"$ 	c #140068",
"% 	c #00000B",
"& 	c #010000",
"* 	c #380000",
"= 	c #6B0000",
"- 	c #660014",
"; 	c #130082",
"> 	c #000068",
", 	c #000043",
"' 	c #0A0000",
") 	c #530000",
"! 	c #770400",
"~ 	c #6D1619",
"{ 	c #0C0085",
"] 	c #000070",
"^ 	c #000094",
"/ 	c #00006A",
"( 	c #000002",
"_ 	c #191400",
": 	c #815200",
"< 	c #896800",
"[ 	c #AEA500",
"} 	c #ADAD0E",
"| 	c #0A0A8B",
"1 	c #000045",
"2 	c #00009B",
"3 	c #000078",
"4 	c #00002C",
"5 	c #0D0D00",
"6 	c #787700",
"7 	c #646500",
"8 	c #4A4A00",
"9 	c #B1AE00",
"0 	c #5A5955",
"a 	c #000064",
"b 	c #00007E",
"c 	c #00007C",
"d 	c #444400",
"e 	c #636300",
"f 	c #4E4F00",
"g 	c #A4A500",
"h 	c #ADAC0B",
"i 	c #0B0B90",
"j 	c #00483D",
"k 	c #008C00",
"l 	c #001600",
"m 	c #020200",
"n 	c #797A00",
"o 	c #5B5B00",
"p 	c #A1A300",
"q 	c #5A5B4E",
"r 	c #00008B",
"s 	c #002450",
"t 	c #00A700",
"u 	c #00AA00",
"v 	c #00B700",
"w 	c #003700",
"x 	c #000059",
"y 	c #000098",
"z 	c #1D1E6E",
"A 	c #3B3C47",
"B 	c #8B8C17",
"C 	c #7E7D00",
"D 	c #A0A10A",
"E 	c #0D2270",
"F 	c #003805",
"G 	c #00C200",
"H 	c #00CE00",
"I 	c #00CD00",
"J 	c #00BC00",
"K 	c #006500",
"L 	c #00001D",
"M 	c #0001CD",
"N 	c #0000A7",
"O 	c #00007F",
"P 	c #0000B4",
"Q 	c #1212B3",
"R 	c #545232",
"S 	c #33732D",
"T 	c #01AA01",
"U 	c #004B00",
"V 	c #008B00",
"W 	c #009800",
"X 	c #0CAF00",
"Y 	c #377B00",
"Z 	c #0002A2",
"` 	c #0004DC",
" .	c #000041",
"..	c #00004C",
"+.	c #0000A0",
"@.	c #060781",
"#.	c #4A453D",
"$.	c #5E5951",
"%.	c #357C34",
"&.	c #03D303",
"*.	c #03C300",
"=.	c #289600",
"-.	c #495500",
";.	c #313100",
">.	c #000157",
",.	c #0004DA",
"'.	c #000289",
").	c #000182",
"!.	c #0000D8",
"~.	c #0000D4",
"{.	c #0000DD",
"].	c #0D0D28",
"^.	c #3B3730",
"/.	c #5A5550",
"(.	c #3E3E3C",
"_.	c #629D55",
":.	c #527600",
"<.	c #313200",
"[.	c #4D4E00",
"}.	c #141500",
"|.	c #420163",
"1.	c #2702A4",
"2.	c #05029E",
"3.	c #0001C3",
"4.	c #0000E2",
"5.	c #0000E1",
"6.	c #0304AA",
"7.	c #101000",
"8.	c #0B0B0A",
"9.	c #504B44",
"0.	c #575654",
"a.	c #7D7D56",
"b.	c #515300",
"c.	c #404000",
"d.	c #303100",
"e.	c #010100",
"f.	c #520000",
"g.	c #9D0000",
"h.	c #61000D",
"i.	c #5A0043",
"j.	c #420081",
"k.	c #1C00BE",
"l.	c #0B0B4D",
"m.	c #0C0C00",
"n.	c #0C0A07",
"o.	c #38352F",
"p.	c #63652C",
"q.	c #414300",
"r.	c #161600",
"s.	c #150000",
"t.	c #990000",
"u.	c #600000",
"v.	c #6E0000",
"w.	c #7D0000",
"x.	c #A30000",
"y.	c #2B0D00",
"z.	c #060600",
"A.	c #161615",
"B.	c #3F3F17",
"C.	c #070700",
"D.	c #6F0000",
"E.	c #740000",
"F.	c #510000",
"G.	c #9B0000",
"H.	c #380B00",
"I.	c #200000",
"J.	c #3A0000",
"K.	c #7F0000",
"L.	c #3F0400",
". . . . . . + @ # $ % . . . . . ",
". . . . & * = - ; > , . . . . . ",
". . . ' ) ! ~ { ] ^ / ( . . . . ",
". . _ : < [ } | 1 2 3 4 . . . . ",
". . 5 6 7 8 9 0 a b c > . . . . ",
". . . d e f g h i 1 > j k l . . ",
". . . m n o o p q r s t u v w . ",
". . x y z A B C D E F G H I J K ",
". L M N x O P Q R S T U V W X Y ",
"( Z `  .2 ..+.@.#.$.%.&.*.=.-.;.",
">.,.'.).!.~.{.].^./.(._.:.<.[.}.",
"|.1.2.3.4.5.6.7.8.9.0.a.b.c.d.e.",
"f.g.h.i.j.k.l.m.. n.o.p.q.r.. . ",
"s.t.u.v.w.x.y.z.. . A.B.C.. . . ",
". ) D.E.F.G.H.e.. . . . . . . . ",
". . + I.J.K.L.. . . . . . . . . "};
