/* XPM */
static char * mini_ps2pdf_xpm[] = {
"16 16 4 1",
" 	c black",
".	s None	c None",
"X	c red",
"o	c gray",
"   ...   .......",
" .. . .X........",
"   .. X.X.......",
" .....  X.......",
" ...o..X .......",
" ....   X.......",
".. ....X.X......",
"..  ..X...XXXXX.",
"     .X..XXXX..X",
"..  ..XXXX...XX.",
".. ..XX.........",
"....XX..........",
"..XXX...........",
"..X.X...........",
"..XX............",
"................"};
