/* XPM */
static char * mini_knews_xpm[] = {
"16 16 5 1",
" 	c #808080",
".	c black",
"X	s None	c None",
"o	c White",
"O	c lightblue",
" .XXXXXXXXXXXX. ",
".o..XXXXXXXX..o.",
".ooo..XXXX..ooo.",
".ooooo....ooooo.",
".o ooooO oooo o.",
".oo  ooO oo  oo.",
".o oo  OO  oo o.",
".oo  ooO oo  oo.",
".o oo  OO  oo o.",
".oo  ooO oo  oo.",
".oooo  OO  oooo.",
".ooooooO oooooo.",
" .ooo  OO  ooo. ",
"XX..oooO ooo..XX",
"XXXX..oO o..XXXX",
"XXXXXX....XXXXXX"};
