/* XPM */
static char * mini_gnomba_xpm[] = {
"20 18 17 1",
" 	c None",
".	c white",
"X	c #f7f7f7",
"o	c #313131",
"O	c #dedede",
"+	c #636363",
"@	c #d6d6d6",
"#	c #cecece",
"$	c #a5a5a5",
"%	c #b5b5b5",
"&	c #31ff63",
"*	c #319c31",
"=	c #ffff31",
"-	c #ffce31",
";	c #ff9c00",
":	c #ce6300",
">	c #633100",
"                    ",
"                    ",
"                    ",
"   ...XXXXXXXXXXXo  ",
"  ...OOOOOOOOOOO+o  ",
"  @############$oo  ",
"  @%X$X$%%%%%&*$oo  ",
"  @%%%%%%%%%%%%$oo  ",
"  @%XXXXXXXXXXX$oo  ",
"  $$$$$$$$$$$$$$o   ",
"   ooooooooooooo    ",
"         @o         ",
"   @@@@@=-;@@@@@+   ",
"   ooooo::>oooooo   ",
"                    ",
"                    ",
"                    ",
"                    "};
