/* XPM */
static char * question_xpm[] = {
"32 32 3 1",
" 	c None",
".	c black",
"X	c green",
"            ........            ",
"         ...XXXXXXXX...         ",
"       ..XXXXXXXXXXXXXX..       ",
"      .XXXXXX.....XXXXXXX.      ",
"     .XXXXX.........XXXXXX.     ",
"    .XXXXX...........XXXXXX.    ",
"   .XXXXXX............XXXXXX.   ",
"  .XXXXXX.....XXXX.....XXXXXX.  ",
"  .XXXXXX....XXXXXX....XXXXXX.  ",
" .XXXXXXX....XXXXXX....XXXXXXX. ",
" .XXXXXXXXXXXXXXXXX....XXXXXXX. ",
" .XXXXXXXXXXXXXXXX.....XXXXXXX. ",
".XXXXXXXXXXXXXXXX.....XXXXXXXXX.",
".XXXXXXXXXXXXXXX.....XXXXXXXXXX.",
".XXXXXXXXXXXXXX.....XXXXXXXXXXX.",
".XXXXXXXXXXXXXX.....XXXXXXXXXXX.",
".XXXXXXXXXXXXX.....XXXXXXXXXXXX.",
".XXXXXXXXXXXXX.....XXXXXXXXXXXX.",
".XXXXXXXXXXXXX.....XXXXXXXXXXXX.",
".XXXXXXXXXXXXX.....XXXXXXXXXXXX.",
" .XXXXXXXXXXXX.....XXXXXXXXXXX. ",
" .XXXXXXXXXXXXXXXXXXXXXXXXXXXX. ",
" .XXXXXXXXXXXXX...XXXXXXXXXXXX. ",
"  .XXXXXXXXXXX.....XXXXXXXXXX.  ",
"  .XXXXXXXXXX.......XXXXXXXXX.  ",
"   .XXXXXXXXX.......XXXXXXXX.   ",
"    .XXXXXXXX.......XXXXXXX.    ",
"     .XXXXXXXX.....XXXXXXX.     ",
"      .XXXXXXXX...XXXXXXX.      ",
"       ..XXXXXXXXXXXXXX..       ",
"         ...XXXXXXXX...         ",
"            ........            "};
