/* XPM */
static char * xpg_decrypt_xpm[] = {
"20 18 76 1",
" 	c None",
".	c #FF0000",
"+	c #151515",
"@	c #4C4C4C",
"#	c #CBCBCB",
"$	c #A3A3A3",
"%	c #838383",
"&	c #6B6B6B",
"*	c #5F5F5F",
"=	c #303030",
"-	c #464646",
";	c #D9D9D9",
">	c #979797",
",	c #656565",
"'	c #535353",
")	c #747474",
"!	c #5B5B5B",
"~	c #343434",
"{	c #3A3A3A",
"]	c #AAAAAA",
"^	c #595959",
"/	c #2E2E2E",
"(	c #2A2A2A",
"_	c #545454",
":	c #7C7C7C",
"<	c #2F2F2F",
"[	c #3E3E3E",
"}	c #181818",
"|	c #8B8B8B",
"1	c #A6A6A6",
"2	c #9A9A9A",
"3	c #787878",
"4	c #737373",
"5	c #626262",
"6	c #B8B8B8",
"7	c #E6E6E6",
"8	c #DDDDDD",
"9	c #D7D7D7",
"0	c #919191",
"a	c #717171",
"b	c #2C2C2C",
"c	c #9B9B9B",
"d	c #BABABA",
"e	c #A9A9A9",
"f	c #A0A0A0",
"g	c #999999",
"h	c #A2A2A2",
"i	c #242424",
"j	c #4F4F4F",
"k	c #373737",
"l	c #424242",
"m	c #969696",
"n	c #939393",
"o	c #898989",
"p	c #222222",
"q	c #707070",
"r	c #878787",
"s	c #5D5D5D",
"t	c #575757",
"u	c #959595",
"v	c #353535",
"w	c #6A6A6A",
"x	c #4B4B4B",
"y	c #474747",
"z	c #CCCCCC",
"A	c #B5B5B5",
"B	c #B2B2B2",
"C	c #989898",
"D	c #7D7D7D",
"E	c #8F8F8F",
"F	c #8E8E8E",
"G	c #8D8D8D",
"H	c #383838",
"I	c #3C3C3C",
"J	c #363636",
"K	c #494949",
".                  .",
" ..    ++++++     ..",
"  ..  @#$%&*@=   .  ",
"   .. -;>,')!~+..   ",
"    ..{]^/(_'~..    ",
"     ..:<  +[..     ",
"     +..}+++..++    ",
"    |11..12..345<   ",
"   +6789....]$0ab   ",
"   +cdefg...h2:'ij  ",
"   +klll..+..2:'ij  ",
"   +cde..mno..:'ip  ",
"   +qr..,*stu..'iv  ",
"   +5..w_@xy02..ij  ",
"   +.zAAAAB11CD..j  ",
"  ..)0EEEEFGG|r%..  ",
" .. HIIIIIIIIIII^.. ",
"..   JKKKKKKKKKK   ."};
