/* XPM */
static char * xpg_mail_xpm[] = {
"16 16 16 1",
" 	c None",
".	c #101010",
"+	c #202020",
"@	c #414441",
"#	c #525552",
"$	c #082000",
"%	c #DEDEDE",
"&	c #EEEEEE",
"*	c #ACAAAC",
"=	c #8B898B",
"-	c #FFFFFF",
";	c #737573",
">	c #FFFFCD",
",	c #FFFF9C",
"'	c #FFCA62",
")	c #CD9962",
"                ",
"          ....  ",
"         +++++. ",
"         +.  +. ",
"        ..@#....",
"$$$$$$$$.%&%*=#.",
"$-------+@#@*=#.",
"$-;>>>>>+@#@*=#.",
"$-@;>>>>.%&%*=#.",
"$->>>>>>........",
"$->>>@;>>>$,'$  ",
"$->>>@;@>>$')$  ",
"$->>>>>>>>>$$   ",
"$>))))))))))$   ",
"$$$$$$$$$$$$$   ",
"                "};
