/* XPM */
static char * xpg_sign_xpm[] = {
"18 18 11 1",
" 	c None",
".	c #082000",
"+	c #FF65CD",
"@	c #FFFF00",
"#	c #DE0000",
"$	c #CD9962",
"%	c #FFCA9C",
"&	c #FFFFFF",
"*	c #414441",
"=	c #ACAAAC",
"-	c #8B898B",
"                  ",
"            ...   ",
"           .++.   ",
"          .@.#.   ",
"       ...@$..    ",
"     ..$.@$..     ",
"    .%$.@$..      ",
"   .%$.@$..$.     ",
"  .%$.@$..$%&.    ",
" .%$.@$...$$%&... ",
" .$.@$.. .$%%%.*. ",
"  .@.....%%%%%.=. ",
" .@.%%%%%%%%%%.-. ",
" .$...$$$%%$%%.*. ",
" ..   ...$$$$$... ",
"         ........ ",
"              ... ",
"                  "};
