/* XPM */
static char * xpg_open_xpm[] = {
"18 18 13 1",
" 	c None",
".	c #202020",
"+	c #082000",
"@	c #FFFFFF",
"#	c #414441",
"$	c #DEDEDE",
"%	c #6265CD",
"&	c #CDCAFF",
"*	c #737573",
"=	c #CDCACD",
"-	c #BDBABD",
";	c #9C99FF",
">	c #525552",
"                  ",
"   ..++           ",
"  .@#..++         ",
" ++#$@#..+++++    ",
" +%++#$@#..%%%++  ",
" +&&%++#$@#..%%++ ",
" +&&&&%++#$@#.%%+ ",
" +&&&&&&%++#$*%%+ ",
" +&&&&&&&&%+=*%++ ",
" +&&&&&&&&%+-.%+  ",
" +&&&&&&&&%+*.%+  ",
" +%;&&&&&&%+.%+   ",
"  ++%;&&&&%+.%+   ",
"    ++%;&&%+%+>>  ",
"      ++%;%+%+>>> ",
"        ++%+++>>> ",
"          ++++>>  ",
"                  "};
