/* XPM */
static char * xpg_cut_xpm[] = {
/* columns rows colors chars-per-pixel */
"22 18 2 1",
" 	c None",
".	c black",
/* pixels */
"                      ",
"                      ",
"                .     ",
"              ..      ",
"             ..       ",
"            ..        ",
"           ..         ",
"  ....    ..     ...  ",
" .   ..  ..   ....    ",
" .   ...........      ",
"  ....   ....         ",
"        ..            ",
"       ...            ",
"      .  .            ",
"     .   .            ",
"     .  .             ",
"     ...              ",
"                      "};
