/* XPM */
static char * xpg_save_xpm[] = {
"18 18 11 1",
" 	c None",
".	c #151515",
"+	c #747474",
"@	c #BBBBBB",
"#	c #898989",
"$	c #EEEEEE",
"%	c #CBCBCB",
"&	c #DEDEDE",
"*	c #535353",
"=	c #FFFFFF",
"-	c #AAAAAA",
"                  ",
"  ..............  ",
" .++@++#+####$+%. ",
" .+%+@@@@@@@@$.$. ",
" .+%+@@@@@@@@$%$. ",
" .+%+@@@@@@@@$%$. ",
" .+%+@@@@@@@@$%$. ",
" .+%+@@@@@@@@$%$. ",
" .+%%$$$$$$$$%%$. ",
" .+%%%%%%%%%%%%$. ",
" .+%%++++++++%%$. ",
" .+%++&&&&&&#$%$. ",
" .+%++&#*&&&#$+$. ",
" .+%++&#*=&=#$+$. ",
" .-%++&**&=&#$%$. ",
"  .%++&&&=&=#$%$. ",
"   .............  ",
"                  "};
