/* XPM */
static char * xpg_encrypt_xpm[] = {
"20 18 81 1",
" 	c None",
".	c #151515",
"+	c #4C4C4C",
"@	c #CBCBCB",
"#	c #A3A3A3",
"$	c #838383",
"%	c #6B6B6B",
"&	c #5F5F5F",
"*	c #303030",
"=	c #464646",
"-	c #D9D9D9",
";	c #979797",
">	c #656565",
",	c #535353",
"'	c #747474",
")	c #5B5B5B",
"!	c #343434",
"~	c #3A3A3A",
"{	c #AAAAAA",
"]	c #595959",
"^	c #2E2E2E",
"/	c #2A2A2A",
"(	c #545454",
"_	c #2F2F2F",
":	c #7C7C7C",
"<	c #3E3E3E",
"[	c #313131",
"}	c #181818",
"|	c #222222",
"1	c #1A1A1A",
"2	c #8B8B8B",
"3	c #A6A6A6",
"4	c #9A9A9A",
"5	c #787878",
"6	c #737373",
"7	c #626262",
"8	c #B8B8B8",
"9	c #E6E6E6",
"0	c #DDDDDD",
"a	c #D7D7D7",
"b	c #CCCCCC",
"c	c #919191",
"d	c #717171",
"e	c #2C2C2C",
"f	c #9B9B9B",
"g	c #BABABA",
"h	c #A9A9A9",
"i	c #A0A0A0",
"j	c #999999",
"k	c #969696",
"l	c #939393",
"m	c #898989",
"n	c #A2A2A2",
"o	c #242424",
"p	c #4F4F4F",
"q	c #373737",
"r	c #424242",
"s	c #202020",
"t	c #858585",
"u	c #707070",
"v	c #878787",
"w	c #7D7D7D",
"x	c #5D5D5D",
"y	c #575757",
"z	c #959595",
"A	c #353535",
"B	c #6A6A6A",
"C	c #4B4B4B",
"D	c #474747",
"E	c #AFAFAF",
"F	c #B5B5B5",
"G	c #B2B2B2",
"H	c #989898",
"I	c #262626",
"J	c #8F8F8F",
"K	c #8E8E8E",
"L	c #8D8D8D",
"M	c #383838",
"N	c #3C3C3C",
"O	c #363636",
"P	c #494949",
"                    ",
"        ......      ",
"       +@#$%&+*     ",
"       =-;>,')!.    ",
"       ~{]^/(,!.    ",
"       _:_  .<[.    ",
"      .}|}...1}..   ",
"     233333455567_  ",
"    .890aaab{{#cde  ",
"    .fghijklmn4:,op ",
"    .qrrrs...t4:,op ",
"    .fghijklmn4:,o| ",
"    .uvw5>&xyz4:,oA ",
"    .76BB(+CDc4:,op ",
"    .EbFFFFG33Hw]Ip ",
"    .'cJJJJKLL2v$*p ",
"     MNNNNNNNNNNN]  ",
"      OPPPPPPPPPP   "};
